<?xml version="1.0" encoding="UTF-8"?>
<svg id="a" data-name="Layer 1" xmlns="http://www.w3.org/2000/svg" viewBox="0 0 309.75 352.24">
  <defs>
    <style>
      .e {
        fill: #1d1b1b;
      }

      .f {
        fill: #fdfeff;
      }

      .g {
        fill: #ecada9;
      }

      .h {
        fill: #425fac;
      }

      .i {
        fill: #fff;
      }

      .j {
        fill: #1d1c1c;
      }

      .k {
        fill: #1e1c1c;
      }

      .l {
        fill: #d32e4a;
      }

      .m {
        isolation: isolate;
      }

      .n {
        fill: #fcfcfb;
      }

      .o {
        fill: #1a1919;
      }

      .p {
        fill: #fafbfc;
      }

      .q {
        fill: #1b1a1a;
      }

      .r {
        fill: #1e1d1d;
      }

      .s {
        fill: #1f1c1c;
      }
    </style>
  </defs>
  <path class="o" d="M197.41,137.99v5.91c0,1.6.04,3.21-.03,4.81-.04.99.28,1.71,1.08,2.29.9.65,1.73,1.4,2.5,2.21.85.88,1.27,1.9,1.2,3.14-.05.93-.04,1.87,0,2.81.05,1.07.41,1.42,1.49,1.47.98.04,1.96.01,2.94.02,1.02,0,2.05.02,3.07.02.27,0,.54.01.8-.02.52-.06.79-.34.84-.87.03-.35-.02-.71-.02-1.06v-1.38c-.3-.31-.57-.17-.82-.17-.22,0-.45.04-.66.09-.66.15-1.33.18-1.99.14-.88-.04-1.29-.39-1.53-1.22-.04-.13-.07-.26-.08-.39-.53-5.03.05-9.86,2.58-14.34,1.01-1.79,2.26-3.28,4.18-4.15,1.38-.63,2.06-1.78,2.09-3.3,0-.36.02-.71.02-1.07v-22.19c0-.53-.01-1.07-.07-1.6-.05-.4-.32-.64-.72-.65-.35-.02-.71.04-1.07.02-.54-.02-.81-.27-.9-.8-.01-.09-.03-.18-.03-.27-.04-1.91-.25-3.82-.19-5.74.03-.94.14-1.87.39-2.77.59-2.12,1.91-3.7,3.77-4.83,1.1-.67,2.32-1.14,3.33-1.96.26-.21.56-.23.88-.07.2.1.43.12.63.22.52.25,1.11-.22,1.13-.76.02-.44.04-.89.04-1.34v-12.57c0-.22.01-.45,0-.67-.05-.77.08-.92.43-.97.66-.1,1.23.22,1.41.75.17.52.18,1.05.16,1.59-.17,3.83-.04,7.66-.08,11.49-.02,1.87.2,1.61,1.51,2,1.94.57,3.76,1.36,5.39,2.57,1.69,1.26,2.93,2.84,3.54,4.89.29.99.47,2,.42,3.03-.06,1.29-.09,2.58,0,3.87.03.4.03.8-.12,1.19-.19.51-.52.82-1.07.86-.18.01-.36.03-.53,0-1.13-.17-1.18.27-1.18,1.2,0,8.42,0,16.84-.02,25.26,0,.91.33,1.5,1.09,1.98,1.32.84,2.49,1.87,3.54,3.04,2.43,2.71,3.75,5.9,4.21,9.49.24,1.9.22,3.82.27,5.74.04,1.77-.59,2.3-2.39,2.07-.71-.09-1.42-.17-2.13-.12-.47.04-.73.29-.79.76-.04.31-.03.62-.03.93,0,6.46.02,12.92-.02,19.38,0,1.09.37,1.84,1.17,2.54,2.72,2.4,4.74,5.29,5.92,8.75.77,2.26,1.09,4.59,1.12,6.96.04,3.07.04,6.15.05,9.22v8.29c0,2.32-.27,2.57-2.54,2.33-.66-.07-1.33-.14-2-.17-1.5-.07-2.6.28-2.6,2.53,0,.13,0,.27.01.4.34,2.04.22,4.09.22,6.14,0,23.39-.01,46.78-.02,70.18,0,.49-.02.98.04,1.47.11.81.5,1.16,1.32,1.24.4.04.8.03,1.2.03,5.48,0,10.96,0,16.44-.01.45,0,.89,0,1.33-.04.54-.05.77-.3.85-.86.04-.26.04-.53.04-.8,0-2.45,0-4.9-.01-7.35v-.13c.02-1.34-.14-1.54-1.4-1.84-.7-.16-1.35-.48-1.9-.94-1.61-1.36-2.47-3.14-2.67-5.21-.17-1.75.59-3.19,1.74-4.47.37-.41,1.13-.67.99-1.3-.11-.49-.83-.61-1.25-.92-2.39-1.76-3.97-4.04-4.5-7-.49-2.75.14-5.23,1.83-7.41,1.81-2.32,4.2-3.77,7.16-3.92,4.56-.23,9.5,2.1,10.65,7.93.25,1.24.29,2.48.11,3.72-.32,2.33-1.53,4.15-3.33,5.59-.55.45-1.17.82-1.73,1.25-.58.44-.66.86-.26,1.5.26.41.59.78.88,1.18.84,1.14,1.38,2.37,1.41,3.82s-.41,2.71-1.3,3.84c-.7.89-1.57,1.58-2.56,2.1-.28.15-.55.29-.83.42-.73.33-1.06.87-1.03,1.69.05,1.51.04,3.03.04,4.54,0,.94-.02,1.87-.03,2.81,0,.31-.01.63.02.93.06.52.32.78.87.84.31.04.62.03.93.03,3.74,0,7.49-.01,11.23-.02.13,0,.27-.01.4,0,.82.03,1.18.54.97,1.35-.07.27-.24.48-.54.53-.18.03-.35.03-.53.04-.49,0-.98.01-1.47.01-67.68.13-135.36.19-203.05.16-10.16,0-20.32-.1-30.48-.15-.62,0-1.25.02-1.87.02-.36,0-.72-.07-.88-.47-.19-.45-.11-.87.17-1.25.07-.09.22-.17.34-.18.31-.03.62-.02.93-.02,8.24,0,16.49-.01,24.73-.02h.53c1.42,0,1.48-.06,1.5-1.53.07-6.73.17-13.46.17-20.18,0-13.5-.06-27-.07-40.5,0-5.61.05-11.22.08-16.84,0-.58.02-1.15-.13-1.72-.16-.6-.54-.91-1.11-1.01-.49-.08-.98-.04-1.46.06-.84.16-1.68.2-2.53.15-1.34-.08-1.9-.68-1.93-2.04,0-.36-.01-.72.05-1.07.23-1.24.17-2.48.17-3.73.02-5.03.04-10.07.06-15.1.02-4.19,1.51-7.82,4.2-10.98.63-.74,1.31-1.47,2.04-2.11,1.42-1.25,1.97-2.8,1.92-4.64-.16-5.84-.1-11.67-.04-17.51,0-.44,0-.89-.06-1.33-.07-.52-.35-.79-.89-.83-.49-.04-.98-.01-1.47-.03s-.98-.02-1.46-.09c-.76-.1-1.2-.58-1.28-1.33-.56-5.1.04-9.95,2.99-14.32,1.19-1.76,2.64-3.24,4.49-4.31.19-.11.39-.22.57-.35.47-.31.76-.74.79-1.32,0-.31.03-.62.03-.93v-24.06c0-.4,0-.8-.07-1.2-.08-.54-.34-.76-.91-.78-.35-.02-.71.03-1.07.01-.5-.02-.77-.24-.77-.73-.02-2.49-.3-4.98.05-7.48.22-1.6.83-3,2-4.12,1.87-1.78,4.03-3.06,6.56-3.67.04-.01.09-.01.13-.02,1.54-.35,1.68-.52,1.68-2.04,0-4.37,0-8.73-.02-13.1,0-.13,0-.27,0-.4,0-.37.05-.71.47-.86.46-.17.88-.09,1.25.21.19.15.21.38.21.61,0,.71-.02,1.43-.02,2.14,0,3.7,0,7.4.02,11.09,0,.56-.2,1.04-.28,1.56-.08.55.19.87.73.87.18,0,.36-.02.53-.05,1.12-.2,2.11.12,3.02.76.11.08.23.14.33.22.75.58,1.58,1.01,2.54,1.09.56.05.86.38,1.08.86.49,1.05.99,2.09,1.5,3.13.75,1.56,1.09,3.18.93,4.92-.09,1.02,0,2.05,0,3.07,0,.44.02.9-.05,1.33-.1.62-.48.9-1.12.92-.27,0-.53-.03-.8-.02-.48.02-.76.24-.85.69-.06.3-.06.62-.06.93,0,8.24.02,16.49,0,24.73,0,.87.29,1.38,1.06,1.79,3.56,1.88,6.84,6.61,7.51,10.57.26,1.54.47,3.08.47,4.64v3.61c0,.22,0,.45,0,.67-.05.47-.3.73-.79.74-.8.02-1.6,0-2.41,0-.27,0-.54-.03-.8-.02-.7.04-1.1.34-1.25.99-.15.66-.13,1.33,0,1.99.11.55.46.8,1.04.86.09,0,.18.01.27.01,2.18-.08,4.36-.1,6.55,0,.86.04,1.06-.18,1.22-1.07.13-.75.18-1.49.05-2.26-.26-1.53.17-2.91,1.07-4.15.42-.58.91-1.09,1.46-1.56.34-.29.68-.57,1.02-.86.78-.68,1.18-1.53,1.17-2.58-.02-1.43,0-2.85,0-4.28v-5.21c0-.87-.02-.9-.84-1.03-.13-.02-.27-.02-.4-.04-.25-.05-.38-.22-.42-.46-.32-2.08-.24-4.08,1.01-5.9.72-1.06,1.58-1.97,2.8-2.38,1.64-.56,1.92-1.47,1.78-2.85-.16-1.6,0-3.21,0-4.81v-.13c.06-.78.36-1.02,1.12-.9.41.06.64.26.69.69.05.35.05.71.05,1.06v5.35c.05.96.16,1.18,1.09,1.42,1.4.37,2.44,1.25,3.44,2.21.59.57.85,1.26.65,2.06-.22.88-.2,1.76-.09,2.65.03.26,0,.53.02.8,0,.39-.13.7-.5.86-.68.28-.85.82-.84,1.51.04,3.16.05,6.32.06,9.49,0,.27.02.54,0,.8-.06.85.3,1.42,1.02,1.86,2.28,1.4,3.26,3.56,3.48,6.14.05.58.02,1.16.04,1.74,0,.27,0,.54.04.8.1.61.43.94,1.07,1,.44.04.89.04,1.33.04h60.96c1.17-.06,1.42-.34,1.37-1.46,0-.13-.03-.27-.04-.4-.13-1.44.07-2.83.46-4.22.24-.85.66-1.56,1.32-2.11.58-.49,1.18-.95,1.82-1.35.87-.56,1.26-1.29,1.25-2.34-.04-3.34-.03-6.68-.03-10.03,0-.49-.15-.79-.58-1.07-1.21-.77-1.42-1.33-1.15-2.68.21-1.05.51-2.07.62-3.14.08-.73.52-1.31,1.08-1.79.48-.41,1.03-.71,1.6-.95.33-.14.66-.25,1-.37.96-.34,1.39-1.02,1.37-2.04-.04-1.56-.02-3.12-.03-4.68,0-.31,0-.62,0-.94.06-.77.71-1.14,1.43-.83.17.07.29.22.33.4.05.3.1.61.1.92,0,1.65,0,3.3-.01,4.95,0,.18-.02.36-.02.53.02,1.25.2,1.5,1.47,1.83,1.14.3,2.01.93,2.65,1.89.39.59.75,1.21,1.15,1.8.39.55.5,1.13.33,1.77-.19.74-.28,1.48-.24,2.25.04.7-.13.88-.84,1.16-.2.08-.4.16-.62.25l.07-.09Z"/>
  <path class="l" d="M238.55,39.81c1.61-.5,3.21-1.06,4.84-1.49,2.23-.6,4.49-.66,6.74-.12.47.12.94.29,1.39.47.65.27.96.77.92,1.48,0,.18,0,.36-.04.53-.39,1.51-.72,3.03-1.39,4.45-.36.77-.88,1.44-1.46,2.06-.15.16-.02.43.21.49.28.08.53.02.77-.1,1.8-.83,3.72-1.19,5.65-1.55,1.28-.24,2.57-.23,3.84.13.13.04.26.06.39.1,2.11.72,2.83,2.07,2.28,4.26-.19.74-.47,1.43-.82,2.11-.27.51-.59,1.01-.65,1.6-.08.76-.27,1.34-1.16,1.49-.4.07-.62.49-.76.88-.58,1.59-1.64,2.84-2.78,4.04-.68.71-1.34,1.43-1.99,2.16-.26.3-.5.63-.7.98-.39.69-.32,1.1.28,1.66.33.3.71.53,1.07.8.49.37.71,1.12.43,1.65-.07.14-.25.27-.41.31-.3.08-.61.11-.92.12-2.72.05-5.43.1-8.15.14h-.4c-.75-.05-1.02-.3-1.08-1.08-.08-.98-.02-1.96.19-2.92.35-1.59,1.02-3.03,1.89-4.39.82-1.28,1.77-2.45,2.78-3.59.71-.8,1.4-1.61,1.96-2.54.3-.5.58-1,.72-1.57.16-.67-.1-1.04-.77-1.1-.94-.08-1.87.04-2.78.27-2.44.59-4.21,2.04-5.44,4.2-.09.15-.16.32-.23.48-.29.77-.07,1.3.68,1.63.32.14.68.22.99.38.44.22.63.6.62,1.1,0,.55-.25.81-.82.82-2.72.05-5.43.08-8.15.13-.69.01-1.34-.04-1.81-.64-.51-.65-.86-1.37-.71-2.22.09-.52.24-1.04.4-1.55.41-1.33,1.04-2.56,1.83-3.7.79-1.13,1.63-2.23,2.46-3.33.8-1.07,1.62-2.13,2.41-3.2.34-.47.64-.97.81-1.53.18-.6-.14-1.07-.77-1.13-.95-.08-1.87.11-2.78.32-2.35.53-4.3,1.69-5.6,3.78-.19.3-.35.62-.47.95-.2.58,0,1.06.56,1.32.28.13.6.19.87.33.67.32.88,1.21.45,1.82-.17.24-.43.29-.71.29-.8,0-1.6,0-2.41.02-1.96.04-3.92.09-5.88.14-1.31.03-1.55-.19-1.64-1.5-.16-2.35.41-4.51,1.67-6.48.38-.6.82-1.17,1.27-1.72,1.43-1.76,2.83-3.56,4.14-5.41.31-.44.61-.88.79-1.39.31-.89.1-1.58-.7-2.07-.41-.25-.89-.4-1.34-.59-.38-.16-.75-.35-.73-.84.02-.48.26-.83.69-1.07.37-.21.78-.17,1.17-.17,1.96,0,3.92,0,5.88-.02,1.02,0,2.05.05,3.07-.11.13-.02.27-.02.4-.01.47.03.72.22.83.71.39,1.74.36,3.45-.36,5.11-.48,1.11-1.19,2.09-1.86,3.08-.08.31,0,.44.34.34h0Z"/>
  <path class="l" d="M49.23,60.15c0-1.43.04-2.85,0-4.28-.05-1.44.49-1.64,1.61-1.77,1.17-.13,2.31.03,3.44.27,1.96.42,3.84,1.14,5.71,1.84,2.46.92,4.88,1.93,7.4,2.67.72.21,1.46.41,2.2.56.39.08.8.07,1.19.04.4-.04.59-.42.43-.79-.05-.12-.11-.25-.18-.36-1.15-1.65-2.41-3.21-4.06-4.4-1.09-.79-2.28-1.39-3.61-1.66-1.26-.26-1.86.05-2.3,1.2-.06.17-.08.35-.16.51-.28.61-.75.86-1.4.78-.68-.09-1.14-.52-1.19-1.22-.03-.49,0-.98.05-1.46.32-2.52.66-5.03,1.01-7.54.16-1.15.5-1.45,1.61-1.56,2.6-.25,4.91.39,7,2.01,2.89,2.24,4.99,5.05,6.32,8.44.57,1.44.73,2.94.51,4.46-.29,2.08-.38,4.17-.31,6.26.02.67.04,1.34.02,2,0,.4-.06.8-.15,1.19-.13.57-.5.93-1.08,1.06-.3.07-.61.14-.92.15-1.98.04-3.91-.17-5.72-1.06-.32-.16-.64-.31-.98-.4-.43-.12-.83.12-.91.55-.07.35-.08.71-.09,1.06-.09,2.58-.16,5.16-.26,7.75,0,.4-.07.8-.16,1.19-.35,1.53-1.47,2.34-3.03,2.18-.53-.05-1.05-.18-1.57-.31-1.68-.43-3.35-.88-5.03-1.33-1.34-.36-2.61-.9-3.82-1.56-1.39-.76-2.87-1.19-4.41-1.48-.92-.17-1.84-.32-2.76-.48-1.16-.2-1.73.14-2.14,1.26-.05.12-.07.26-.11.38-.31.96-1.42,1-2.12.61-.2-.12-.3-.34-.32-.56-.03-.26-.03-.53-.03-.8-.01-2.72-.02-5.43-.03-8.15,0-.27-.01-.54.01-.8.12-1.1.63-1.6,1.73-1.64.44-.02.89.03,1.33.08,2.59.27,5.05,1.01,7.48,1.9,2.13.78,4.25,1.58,6.39,2.34,1.38.49,2.8.87,4.26,1.08.22.03.44.08.66.08.49,0,.91-.29.98-.74.14-.83.28-1.67.21-2.52-.09-1.16-.71-1.89-1.81-2.22-.68-.2-1.38-.36-2.06-.54-.86-.23-1.72-.46-2.58-.69-.7-.19-1.41-.22-2.12-.19-.99.03-1.68.5-2.09,1.4-.07.16-.12.33-.19.5-.24.56-.44.67-1.02.57-.54-.09-.76-.33-.81-.89-.03-.31-.01-.62-.01-.93v-4.01h0v-.03Z"/>
  <path class="s" d="M154.97,317.43h126.17c.58,0,1.16,0,1.74.03.51.03.68.23.69.78,0,.18-.01.36-.04.53-.04.3-.23.47-.53.52-.22.03-.44.05-.66.05H30.27c-1.02,0-2.05.02-3.07.04-.32,0-.65,0-.83-.31-.24-.41-.22-.86,0-1.28.11-.21.35-.26.58-.27.98-.03,1.96-.07,2.94-.09.4-.01.8,0,1.2,0h123.9-.02Z"/>
  <path class="l" d="M292.4,141.31c-.95.03-1.7.1-2.41.41-.69.31-.9.8-.66,1.52.04.13.11.24.18.36.37.71.21,1.19-.62,1.79-.26.19-.52.14-.73-.06-.32-.3-.61-.65-.93-.96-1.62-1.6-3.24-3.19-4.85-4.78-.16-.16-.32-.31-.47-.47-.47-.48-.5-1.02-.19-1.59.43-.8,1.01-1.46,1.75-1.99.88-.63,1.86-1.04,2.88-1.36,1.67-.53,3.39-.77,5.13-.77,2.15,0,4.25-.37,6.34-.82.34-.07.7-.17,1-.34.77-.41.98-1.17.52-1.92-.2-.34-.51-.62-.75-.93-.35-.45-.32-.79.09-1.16.81-.71,1.44-.71,2.21.05,2.09,2.06,4.17,4.14,6.26,6.21.13.13.25.25.36.39.7.91.66,1.7-.18,2.48-.72.67-1.49,1.28-2.32,1.79-.74.46-1.55.67-2.4.76-.59.06-1.14.21-1.59.61-.27.24-.26.6.05.77.19.11.4.19.61.28,1.65.69,3.18,1.59,4.7,2.53,1.44.89,2.52,2.11,3.08,3.74.1.29.17.6.23.9.22,1.11-.12,2.01-1,2.72-1.47,1.2-3.05,2.13-5.02,2.28-1.28.1-2.55.35-3.81.65-.94.22-1.94.22-2.92.3-.54.04-1.07.09-1.57.3-.68.3-1.36.34-2.08.13-.57-.17-1.14-.15-1.7.09-.93.4-1.15,1-.67,1.91.1.2.25.38.31.58.04.15,0,.35-.04.51-.04.12-.16.21-.25.31-.84.91-1.03.92-1.92.04-1.9-1.88-3.79-3.77-5.68-5.66-.81-.81-.83-1.04-.17-1.93,1.42-1.92,3.39-2.96,5.68-3.46,1.22-.26,2.46-.39,3.7-.47,1.74-.12,3.45-.38,5.17-.63.44-.06.88-.15,1.29-.32.81-.32,1.04-1.34.44-1.99-.2-.23-.47-.43-.74-.55-1.34-.61-2.68-1.2-4.04-1.76-.79-.32-1.61-.5-2.29-.48h.02Z"/>
  <path class="l" d="M115.17,33.48c-.45.94-.83,1.84-1.29,2.69-1.5,2.78-3.03,5.54-4.55,8.31-.09.16-.18.31-.29.45-.21.26-.5.39-.83.28-.33-.11-.67-.24-.98-.41-1.75-.96-3.16-2.3-4.27-3.95-.87-1.3-1.55-2.7-2.12-4.15-.34-.87-.68-1.74-1.03-2.6-.47-1.16-1.04-2.27-1.82-3.25-.38-.47-.59-.99-.62-1.59-.02-.41-.13-.79-.34-1.14-.45-.73-.73-.8-1.46-.28-.41.29-.86.5-1.33.6-.92.2-1.79.49-2.59,1.01-.34.22-.55.14-.78-.2-.12-.18-.23-.38-.34-.57-.22-.38-.26-.77,0-1.13.64-.92,1.01-1.98,1.48-2.98.43-.94.96-1.82,1.82-2.43.51-.37.41-.76.12-1.13-.11-.14-.22-.28-.35-.41-.79-.8-1.73-.9-2.65-.29-.29.2-.54.46-.83.67-.54.39-.94.36-1.45-.06-.32-.27-.41-.57-.26-.94.1-.25.24-.48.36-.72,1.26-2.5,2.52-5.01,3.78-7.51.06-.12.12-.24.18-.36.53-1.1.99-1.23,2.17-.95,1.66.4,2.99,1.34,3.99,2.73.6.83,1.07,1.74,1.46,2.69.18.45.35.91.57,1.35.56,1.13,1.2,1.39,2.25.74,1.23-.75,2.6-1.14,3.91-1.7.2-.09.42-.14.64-.18.24-.04.57.2.59.44.03.31.05.63,0,.93-.14.83-.3,1.66-.49,2.49-.35,1.5-1.12,2.7-2.51,3.45-.19.1-.39.22-.55.37-.35.32-.51.73-.35,1.2.04.13.1.25.15.37,1.15,2.7,2.3,5.4,3.74,7.97.22.39.43.78.69,1.14.69.97,1.15,1.05,2.11.39.33-.23.63-.49.94-.75.27-.23.53-.47.79-.71.43-.41.89-.56,1.45-.24.26.15.56.24.91.39l-.02-.03Z"/>
  <path class="l" d="M114.55,29.57c-.45.01-.74-.12-1-.28-.43-.26-.58-.7-.35-1.15.54-1.02,1.08-2.05,1.67-3.04.62-1.05,1.55-1.65,2.76-1.92,3.04-.68,6.07-1.41,9.03-2.38.72-.24,1.42-.53,2.14-.76.62-.2.92-.04,1.16.54.08.21.15.42.22.63.17.45.13.89-.19,1.25-.48.53-.82,1.16-1.21,1.75-.85,1.28-2.05,2.09-3.52,2.48-1.2.32-2.42.58-3.62.9-2.02.55-4.02,1.14-6.04,1.7-.38.11-.77.19-1.04.26v.02Z"/>
  <path class="l" d="M164.35,17.44h6.41c.67,0,.87.18,1,.81.12.57,0,1.06-.41,1.47-.74.71-1.5,1.4-2.38,1.93-.86.52-1.77.8-2.79.78-1.47-.03-2.94,0-4.41-.02-.4,0-.78,0-1.18-.15-.32-.12-.7-.1-1.05-.11h-4.95c-.39,0-.86.1-1.09-.32-.26-.48.1-.84.36-1.19.41-.58.83-1.16,1.27-1.72.92-1.17,2.1-1.72,3.61-1.64,1.87.11,3.73.29,5.61.17h0Z"/>
  <path class="e" d="M233.98,307.44h-8.29c-.36,0-.71,0-1.07-.02-.12,0-.26-.07-.28-.23-.13-.72,0-1.42.94-1.62.3-.06.62-.06.93-.06,5.7,0,11.4.02,17.11.03.13,0,.27-.01.4.01.33.06.78-.13.93.31.19.56-.14,1.23-.67,1.44-.2.08-.43.11-.65.13-.4.03-.8.03-1.2.03h-8.15v-.03h0Z"/>
  <path class="e" d="M76.37,307.44h-8.15c-.36,0-.71-.02-1.07,0-.95.04-1.09-1-.8-1.55.11-.21.3-.33.54-.34.31-.01.62-.01.93-.01h16.84c.36,0,.71,0,1.07.03.42.04.65.27.69.67.02.22,0,.45-.03.66-.05.29-.24.49-.53.52-.35.03-.71.03-1.07.03h-8.42,0Z"/>
  <path class="e" d="M115.98,305.54h9.07c.31,0,.65-.02.83.3.23.42.22.86-.03,1.27-.08.13-.27.26-.42.28-.35.05-.71.06-1.06.06h-17.61c-.32-.01-.64-.03-.78-.38-.17-.43-.2-.88.08-1.27.09-.12.29-.21.46-.23.31-.04.62-.02.93-.02h8.54,0Z"/>
  <path class="j" d="M205.31,307.35c-.67.03-1.24.09-1.82.09h-17.47c-.32,0-.62-.05-.78-.39-.21-.44-.21-.85.06-1.26.11-.16.26-.24.44-.25.22-.01.44,0,.67,0,5.47,0,10.93-.02,16.4-.03h.4c1.5,0,1.6.09,2.1,1.84Z"/>
  <path class="k" d="M155.39,307.44h-8.4c-.18,0-.36.01-.53,0-.85-.03-1.24-.66-.89-1.46.09-.21.26-.38.49-.41.31-.04.62-.05.93-.05h16.93c.22,0,.45,0,.67.01.53.04.77.32.79.87.02.63-.23.96-.79,1.01-.35.03-.71.02-1.07.02h-8.13,0Z"/>
  <path class="r" d="M269.51,305.53c1.47,0,2.93.02,4.4,0,.94-.02,1.09.69.91,1.36-.07.26-.25.48-.55.51-.26.03-.53.05-.8.05h-7.99c-.18,0-.36-.02-.53-.01-.84.03-1.12-1.05-.78-1.58.1-.16.23-.28.42-.29.27-.02.53-.03.8-.03h4.13-.01Z"/>
  <path class="r" d="M41.74,307.45h-4.53c-.79-.05-1.16-.62-.9-1.38.09-.27.26-.47.56-.5.31-.03.62-.03.93-.03,2.35,0,4.71-.02,7.06-.02.27,0,.53,0,.8.02.77.08,1.17.44,1.37,1.23.12.46-.02.67-.5.68h-4.79,0Z"/>
  <path class="g" d="M238.55,39.81c-.1.07-.2.18-.31.21-.11.02-.24-.04-.36-.06.04-.12.06-.24.13-.34.04-.07.13-.1.2-.14l.34.34h0Z"/>
  <path class="i" d="M150.92,216.05c15.15,0,30.3.01,45.45-.01,3.96,0,7.93.17,11.89-.02.18,0,.36,0,.53.01.78.1,1.1.38,1.22,1.17.06.39.07.8.07,1.2-.02,25.44-.04,50.88-.06,76.32,0,.67-.02,1.34-.09,2-.07.65-.38.94-1.03,1.03-.31.04-.62.05-.93.05-5.26.01-10.51.03-15.77.04-1.63,0-1.91-.28-1.91-1.98,0-2.49.06-4.99.07-7.48,0-3.25.03-6.51-.02-9.76-.04-2.76-.15-5.52-.52-8.26-1.16-8.42-4.85-15.48-11.46-20.91-3.34-2.74-6.77-5.37-10.15-8.06-4.18-3.33-8.27-6.78-12.14-10.47-1-.95-2.02-1.88-3.04-2.81-.16-.15-.35-.28-.53-.4-.41-.26-.82-.28-1.26-.04-.4.22-.72.52-1.02.85-5.72,6.05-12.19,11.2-18.86,16.14-.97.72-1.97,1.37-2.96,2.06-4.39,3.1-7.98,6.95-10.65,11.63-2.56,4.5-3.93,9.32-4.07,14.49-.15,5.26-.14,10.51-.07,15.77.03,2.41.04,4.81.03,7.22,0,1.71-.31,2.02-2.04,2.01-6.06-.07-12.12-.06-18.18,0-1.74.02-1.96-.22-1.96-2.04v-77.13c0-.49,0-.98.04-1.47.06-.59.39-1,1-1.09.44-.07.88-.1,1.33-.1,3.25,0,6.51.02,9.76.02h47.32v.02Z"/>
  <path class="i" d="M152.1,297.84h-34.07c-.45,0-.89,0-1.33-.03-.78-.07-1.1-.4-1.16-1.19-.04-.53-.02-1.07-.02-1.6.04-6.73.13-13.45,0-20.18-.19-9.28,3.26-16.99,9.91-23.35,1.81-1.73,3.79-3.24,5.83-4.68,2.98-2.11,5.93-4.26,8.73-6.6,2.49-2.09,4.97-4.19,7.45-6.3,1.15-.98,2.24-2.04,3.16-3.25.08-.11.16-.21.25-.31.58-.62,1.06-.68,1.75-.18.36.26.69.57,1.02.87,3.77,3.4,7.53,6.82,11.47,10.02,2.24,1.83,4.55,3.57,6.85,5.34,1.87,1.44,3.74,2.88,5.52,4.43,4.7,4.13,8.01,9.14,9.61,15.23.47,1.81.76,3.65.97,5.51.57,5.1.52,10.22.38,15.35-.09,3.12-.16,6.23,0,9.35,0,.18.03.36.02.53-.04.61-.3.89-.92.92-.98.05-1.96.08-2.94.08h-32.47v.04h0Z"/>
  <path class="i" d="M211.81,257v-38.49c0-.49,0-.98.07-1.46.06-.43.35-.72.81-.77.31-.04.62-.04.93-.04h19.78c.27,0,.54,0,.8.02.63.07.95.37,1.04,1.02.05.35.04.71.04,1.07,0,25.7-.02,51.41-.03,77.11,0,.4,0,.81-.05,1.2-.12.84-.38,1.08-1.2,1.15-.22.02-.45.02-.67.02-6.59.01-13.19.03-19.78.03-1.48,0-1.72-.24-1.75-1.68v-39.15h0v-.03Z"/>
  <path class="i" d="M89.62,256.77v38.22c0,.45,0,.89-.04,1.33-.11.98-.58,1.43-1.55,1.51-.35.03-.71.02-1.07.02-6.5-.01-13.01-.03-19.51-.05-.44,0-.96.18-1.29-.15-.37-.38,0-.82.1-1.24.06-.25.04-.53.04-.8,0-1.02-.03-2.05-.03-3.07v-53.31c0-6.81-.03-13.63-.03-20.44,0-.49,0-.98.06-1.47.08-.7.41-1,1.13-1.08.26-.03.53-.02.8-.02h19.51c1.72,0,1.9.19,1.9,1.93v38.62h-.02Z"/>
  <path class="i" d="M150.95,171.33h-58.26c-.4,0-.8.01-1.2-.03-.97-.1-1.34-.5-1.37-1.46,0-.18,0-.36,0-.53.11-1.6.1-3.2,0-4.81v-.4c0-1.17.34-1.53,1.47-1.59.22-.01.45,0,.67,0,22.63,0,45.25.02,67.88.02,16.21,0,32.42-.01,48.63-.02.49,0,.98-.02,1.47.05.71.1,1,.44,1.08,1.14.01.13.02.27.02.4-.14,1.96-.07,3.92-.04,5.88v.4c-.05.71-.27.92-1.02.93-.76.01-1.51,0-2.27,0h-57.05v.03h-.02Z"/>
  <path class="i" d="M77.83,208.33h-16.56c-.27,0-.54,0-.8-.03-.84-.09-1.05-.33-1.1-1.2v-.13c.02-4.14-.06-8.28.1-12.42.19-4.93,2.06-9.15,5.86-12.42,2.09-1.79,4.47-3.05,7.09-3.87,3.45-1.07,6.91-1.07,10.38-.02,2.41.73,4.63,1.83,6.65,3.32,3.65,2.7,5.75,6.35,6.58,10.77.37,1.98.43,3.98.46,5.98.03,2.76,0,5.52,0,8.28,0,.22,0,.45-.03.67-.11.74-.36.97-1.14,1.05-.26.03-.53.02-.8.02h-16.69Z"/>
  <path class="i" d="M223.42,208.33h-16.43c-.35,0-.71-.02-1.06-.07-.53-.08-.76-.35-.83-.89-.03-.26-.03-.53-.03-.8.01-4.1.05-8.19.04-12.29,0-2.04.45-3.97,1.34-5.79,1.02-2.09,2.27-4.03,3.91-5.7,2.57-2.62,5.62-4.32,9.28-4.86,2.93-.43,5.85-.48,8.74.3,4.77,1.29,8.46,4.03,11.03,8.27.97,1.61,1.7,3.33,2.24,5.12.46,1.5.55,3.06.51,4.63-.09,3.34-.12,6.68.01,10.02.07,1.78-.29,2.15-2.05,2.1-5.57-.16-11.13-.02-16.7-.02v-.02Z"/>
  <path class="i" d="M150.42,206.59h50.11c.49,0,.98-.02,1.47.04.8.09,1.18.52,1.22,1.32,0,.13.01.27,0,.4-.18,1.42-.19,2.84-.01,4.26.02.18.02.36,0,.53-.06.58-.32.86-.9,1-.57.15-1.15.12-1.73.12-7.26-.02-14.52-.07-21.78-.06-25.52.01-51.04.04-76.56.06-.67,0-1.34.02-2,0-.4-.01-.8-.07-1.19-.15s-.61-.35-.67-.74c-.04-.26-.07-.53-.05-.8.12-1.51.07-3.03.04-4.54,0-.22-.02-.45,0-.67.05-.51.26-.73.75-.76.27-.02.53,0,.8,0h50.51v-.02h0Z"/>
  <path class="i" d="M150.95,173.26h57.61c.62,0,1.25-.04,1.86.14.64.19.89.46.93,1.13.02.31-.03.62-.06.93-.06.71-.1,1.43.06,2.13.22,1.01-.1,1.86-.83,2.54-.55.52-1.16.97-1.77,1.42-.41.31-.77.14-.84-.4-.06-.48-.07-.98-.07-1.46-.01-1.03-.19-2.03-.57-3-.49-1.26-1.36-1.94-2.73-1.94-.45,0-.89,0-1.34.01-1.71.09-2.9,1.15-3.18,2.86-.16.97-.14,1.95-.07,2.93.08,1.22-.09,1.46-1.26,1.48-.67.01-1.34-.03-2-.11-.44-.05-.65-.33-.67-.85-.02-.76,0-1.51-.01-2.27-.01-.98-.41-1.82-1.07-2.52-1.15-1.22-3.62-1.61-5.09-.82-.53.28-.91.72-1.11,1.28-.35,1-.74,2-.74,3.1,0,.45-.05.88-.18,1.32-.18.59-.57.88-1.13.99-.72.15-1.42-.06-2.11-.18-.25-.04-.38-.26-.39-.48-.04-.44-.03-.89-.03-1.33,0-.8.03-1.6-.09-2.4-.11-.68-.4-1.27-.82-1.8-.51-.63-1.14-.95-1.98-.87-.89.08-1.77.18-2.61.49-1.31.47-2.03,1.41-2.11,2.79-.04.71.02,1.42.02,2.14,0,.95-.37,1.41-1.32,1.5-.62.06-1.25.06-1.86-.01-.71-.09-1.1-.56-1.14-1.27-.03-.53.02-1.07.04-1.6.04-.81-.04-1.6-.33-2.36-.43-1.15-1.27-1.8-2.49-1.93-.57-.06-1.16-.02-1.74-.04-.97-.03-1.71.41-2.32,1.12-.71.84-1.12,1.81-1.15,2.92,0,.49,0,.98-.02,1.47-.02.31-.07.62-.15.92-.15.59-.57.88-1.14.98-.63.11-1.24-.08-1.84-.22-.24-.05-.35-.27-.36-.51,0-.8,0-1.6-.02-2.41,0-1.27-.46-2.34-1.4-3.2-1.14-1.04-2.5-1.33-3.98-1.03-1.32.27-2.56,1.87-2.63,3.36-.03.67,0,1.34,0,2-.04,1.9-.72,1.88-1.92,1.84-.53-.01-1.07-.01-1.6-.07-.47-.05-.71-.33-.72-.8-.02-.76,0-1.51,0-2.27,0-.63-.1-1.24-.32-1.83-.3-.8-.86-1.36-1.67-1.62-1.13-.36-2.29-.4-3.42-.03-1.16.38-1.82,1.26-2.05,2.43-.12.61-.13,1.24-.19,1.86-.04.44-.04.9-.14,1.33-.22.99-.89,1.51-1.9,1.55h-.53c-1.39-.09-1.6-.3-1.63-1.66,0-.53.02-1.07,0-1.6-.03-.58-.07-1.16-.18-1.72-.25-1.26-1.01-2.03-2.3-2.28-.76-.15-1.49-.16-2.25,0-1.34.29-2.21,1.07-2.66,2.36-.22.64-.29,1.3-.27,1.97,0,.31.05.62.06.93,0,1-.35,1.41-1.32,1.46-.71.04-1.42.02-2.13-.15-.49-.12-.78-.43-.83-.92-.04-.4-.03-.8-.03-1.2,0-.53.05-1.07.02-1.6-.1-1.62-1.01-2.77-2.55-3.22-.87-.25-1.76-.23-2.64,0-.73.18-1.28.6-1.62,1.28-.43.84-.69,1.74-.88,2.65-.05.25.02.53.04.79.03.35.1.71.08,1.06-.04.78-.47,1.24-1.24,1.31-.53.05-1.07.04-1.6-.03-.81-.11-1.12-.51-1.15-1.37,0-.36,0-.71.02-1.07v-.67c-.07-2.71-2.19-4.33-4.8-3.67-2.17.55-2.88,1.45-2.91,3.67,0,.58,0,1.16-.06,1.73-.16,1.19-.82,1.7-2.03,1.61-.26-.02-.53-.09-.79-.14-1.17-.24-1.3-.37-1.33-1.59,0-.4.06-.8.1-1.19.09-.77-.04-1.51-.37-2.21-.6-1.25-1.68-1.8-2.98-1.98-.44-.06-.89-.05-1.33,0-1.81.22-2.87,1.34-3,3.18-.05.67,0,1.34-.02,2v.67c.05.81-.5,1.09-1.1.66-1.19-.84-2.14-1.93-2.33-3.43-.14-1.15-.04-2.31.14-3.46.13-.78.66-1.3,1.42-1.33.85-.03,1.69-.11,2.54-.11h56.68v-.04l-.07-.02Z"/>
  <path class="i" d="M223.83,155.01h-13.9c-1.74,0-1.91-.13-2-1.89-.26-4.59.99-8.72,3.99-12.25,2.57-3.03,5.89-4.68,9.82-5.1,2.97-.31,5.89-.03,8.58,1.38,4.56,2.38,7.53,6.01,8.53,11.14.3,1.54.42,3.09.42,4.65,0,.36-.02.71-.06,1.07-.1.88-.2.98-1.07.98h-14.3v.02h-.01Z"/>
  <path class="i" d="M77.84,155.01h-13.62c-.31,0-.63.01-.93-.02-.66-.07-.97-.36-.99-1.02-.03-.84-.02-1.69,0-2.54.03-.89.01-1.79.15-2.66.98-6.48,5.6-11.44,12.04-12.7,6.31-1.23,11.59.7,15.71,5.66,1.27,1.53,2.05,3.32,2.51,5.25.44,1.82.74,3.66.77,5.54,0,.53-.02,1.07-.09,1.6-.07.53-.35.8-.86.87-.35.05-.71.03-1.07.03h-13.62Z"/>
  <path class="i" d="M136.84,194.57c-1.35-1.14-2.51-2.1-3.66-3.07-.54-.46-1.07-.94-1.62-1.39-.62-.5-.98-.53-1.53-.03-1.58,1.44-3.26,2.76-4.89,4.14-1.62,1.36-2.43,3.14-2.39,5.29.02,1.38.03,2.76.04,4.14,0,.81-.16,1-.99,1.11-.8.1-1.6.06-2.4-.05-.44-.06-.62-.28-.61-.72,0-.89.04-1.78.05-2.67,0-.53-.02-1.07-.02-1.6-.02-2.33-1.01-4.22-2.72-5.73-1.4-1.24-2.86-2.41-4.29-3.61-.03-.03-.07-.05-.11-.08-.87-.63-1.24-.67-1.98.11-1.24,1.3-2.66,2.36-4.08,3.44-1.95,1.48-2.84,3.48-2.91,5.89-.03,1.07,0,2.14-.04,3.21-.04,1.56-.34,1.84-1.92,1.85-.58,0-1.16,0-1.73-.05-.42-.03-.62-.27-.67-.7-.03-.26-.02-.53-.02-.8,0-2.09.03-4.19,0-6.28-.02-2.59-.3-5.15-1.11-7.63-.47-1.44-1.11-2.81-1.92-4.09-.17-.26-.31-.54-.43-.82-.09-.2.1-.45.33-.47h1.07c12.74-.01,25.47-.02,38.21-.03.36,0,.71-.01,1.07.02.92.08,1.27.45,1.34,1.34,0,.18,0,.36,0,.53,0,2.67-.02,5.34-.03,8.01,0,.17-.02.34-.05.78v-.04Z"/>
  <path class="i" d="M164.77,194.39c-.2-.17-.14-.4-.14-.61,0-2.81,0-5.61,0-8.42,0-.18,0-.36,0-.53.06-.65.27-.87.91-.92.31-.02.62,0,.94,0,12.79.01,25.57.02,38.36.03h1.34c.36.01.5.21.34.51-.42.79-.81,1.59-1.28,2.34-1.31,2.05-1.87,4.31-1.98,6.7-.14,3.07-.09,6.15-.06,9.22,0,.4.02.8-.02,1.2-.05.52-.33.8-.88.82-.76.03-1.52.04-2.27,0-.83-.05-1.19-.41-1.25-1.27-.05-.66,0-1.34.02-2,.05-1.03-.01-2.05-.24-3.05-.46-2.03-1.53-3.69-3.17-4.97-.95-.74-1.85-1.53-2.69-2.39-.31-.32-.66-.6-1.03-.85-.62-.41-1.26-.41-1.87.03-.39.29-.77.61-1.11.96-.75.77-1.55,1.46-2.45,2.05-1.52,1.01-2.69,2.33-3.29,4.08-.38,1.1-.56,2.26-.4,3.42.13.98.05,1.96.1,2.94.03.68-.26,1-.93,1.04-.67.03-1.34.02-2-.03-.56-.05-.8-.3-.84-.85-.04-.53-.03-1.07-.02-1.6.03-1.29.06-2.58-.16-3.86-.27-1.6-.96-2.95-2.13-4.05-.52-.49-1.08-.94-1.64-1.37-.92-.71-1.84-1.41-2.65-2.24-.16-.16-.32-.31-.5-.44-.7-.54-1.07-.53-1.78.03-.14.11-.28.23-.4.36-1.35,1.45-3.01,2.5-4.56,3.69-.06.04-.16.03-.24.04h-.03Z"/>
  <path class="i" d="M88.19,177.92c-.49.13-.81-.19-1.16-.33-1.98-.8-4.01-1.45-6.13-1.78-3.83-.6-7.53-.16-11.12,1.31-.69.28-1.37.58-2.06.88-.25-.49-.15-.94-.15-1.37,0-5.3,0-10.6,0-15.9,0-.67-.03-1.34-.03-2,0-.35.03-.71.08-1.06.06-.45.35-.71.8-.77.31-.04.62-.04.93-.04,5.83,0,11.67,0,17.5.01,1.31,0,1.41.08,1.41,1.32,0,6.41,0,12.83,0,19.24,0,.17-.03.33-.05.49h0Z"/>
  <path class="i" d="M233.97,167.57v8.95c0,.36,0,.71-.02,1.07-.02.3-.28.47-.57.36-.37-.14-.74-.31-1.1-.48-3.34-1.53-6.84-2.2-10.51-1.9-2.42.2-4.71.86-6.92,1.85-1.59.71-1.58.94-1.58-1.02,0-5.92,0-11.84-.01-17.77v-.27c.01-1.39.13-1.51,1.53-1.51h17.63c1.46,0,1.56.11,1.56,1.63v9.08h0Z"/>
  <path class="i" d="M150.69,204.75h-10.69c-.86-.05-1.15-.36-1.2-1.26v-17.9c.02-1.43.26-1.68,1.75-1.68,3.39,0,6.77.02,10.16.02s6.59-.02,9.89-.02c.4,0,.81,0,1.2.05.5.07.77.4.82.9.03.26.02.53.02.8-.04,5.75-.09,11.49-.11,17.24,0,2.07-.54,1.86-1.94,1.86h-9.9Z"/>
  <path class="i" d="M216.95,121.91v-11.88c0-.4,0-.8.12-1.19.12-.38.36-.61.76-.64.31-.03.62-.04.93-.04h9.61c.31,0,.62,0,.93.03.52.05.83.33.9.82.04.31.03.62.03.93v23.22c0,.35,0,.71-.07,1.06-.07.4-.5.7-.89.64-.44-.07-.87-.19-1.3-.3-1.47-.38-2.97-.57-4.48-.61-1.7-.05-3.37.2-5.02.59-.13.03-.25.09-.38.11-.72.15-1.12.23-1.11-.87.04-3.96.02-7.92.02-11.88h-.05,0Z"/>
  <path class="i" d="M71.29,121.65v-11.75c0-1.64.09-1.74,1.73-1.74h9.75c1.6,0,1.75.14,1.75,1.75v23.36c0,1.57-.28,1.79-1.83,1.36-3.25-.9-6.5-.88-9.76-.08-.17.04-.34.09-.52.13-.96.19-1.09.09-1.09-.89v-12.15h-.03Z"/>
  <path class="i" d="M222.99,106.32h-7.47c-1.24-.02-1.36-.14-1.36-1.39,0-.93.05-1.87,0-2.8-.19-3.4,2.77-7.56,7.31-7.98,1.86-.17,3.73-.04,5.56.43,1.4.37,2.63,1.06,3.7,2.04,1.22,1.12,1.96,2.51,2.22,4.15.18,1.19.28,2.38.24,3.59,0,.31-.03.62-.16.91-.2.44-.51.71-.98.82-.7.17-1.4.22-2.12.22h-6.94Z"/>
  <path class="i" d="M77.33,106.32h-7.74c-.22,0-.45.01-.67,0-.25-.02-.43-.18-.43-.42,0-1.73-.31-3.46-.02-5.19.19-1.12.68-2.11,1.34-3.02,1.32-1.8,3.11-2.9,5.28-3.35,2.13-.45,4.26-.31,6.34.27,2.23.62,4.05,1.85,5.09,3.99,1.05,2.17,1.04,4.47.68,6.79-.06.38-.31.62-.68.75-.52.18-1.05.18-1.58.18h-7.61,0Z"/>
  <path class="i" d="M259.31,273.52c-3.76.12-7.03-2.71-7.72-6.36-.43-2.26-.03-4.35,1.15-6.28,1.36-2.23,3.35-3.38,6.03-3.19,1.11.08,2.22.13,3.3.44,2.57.74,4.21,2.38,4.92,4.96,1.23,4.49-1.22,8.22-4.27,9.66-1.11.53-2.26.79-3.41.77Z"/>
  <path class="i" d="M77.68,214.28h-16.3c-.49,0-.98-.01-1.46-.09-.56-.09-.8-.34-.82-.89-.02-.75,0-1.51.06-2.27.03-.38.27-.66.67-.73.35-.06.7-.11,1.06-.13.4-.02.8,0,1.2,0h29.13c.8,0,1.6-.02,2.41-.03h.94c1.05,0,1.89.37,1.59,1.82-.09.45,0,.89.04,1.33.03.55-.21.83-.74.93-.3.05-.62.07-.93.07h-16.85Z"/>
  <path class="i" d="M223.35,214.28h-16.29c-.4,0-.8,0-1.19-.07-.57-.1-.78-.31-.85-.87-.11-.8-.05-1.6.08-2.39.06-.34.28-.54.61-.63.57-.15,1.14-.15,1.72-.15,3.78,0,7.56.01,11.35,0,6.9-.01,13.79-.04,20.69-.05.58,0,1.15-.05,1.72.15.41.15.71.4.8.82.16.7.21,1.4.07,2.12-.11.55-.43.84-.96.97-.49.12-.97.11-1.46.1-3.83-.02-7.65-.05-11.48-.07h-4.81v.06h0Z"/>
  <path class="i" d="M170.83,204.74h-4.67c-.27,0-.53,0-.8-.03-.34-.04-.61-.25-.61-.6,0-1.86-.15-3.74.08-5.59.14-1.09.71-2,1.53-2.74.33-.3.67-.59,1.05-.81.82-.48,1.51-1.09,2.12-1.81.17-.2.38-.38.59-.54.36-.28.72-.29,1.1-.02,1.09.77,2.2,1.51,3.27,2.3,1.72,1.28,2.59,3,2.53,5.16-.02,1.02,0,2.04,0,3.07,0,1.56-.03,1.6-1.53,1.59h-4.67v.02Z"/>
  <path class="i" d="M190.55,204.73h-5.47c-.31-.01-.52-.19-.52-.49,0-1.69-.19-3.38-.06-5.07.1-1.24.58-2.33,1.47-3.21.47-.47,1-.89,1.53-1.29.92-.7,1.89-1.33,2.73-2.14.36-.35.6-.37.92-.03.68.73,1.53,1.21,2.33,1.77,2.04,1.41,3.05,3.42,3.33,5.83.14,1.2.1,2.4.01,3.6-.06.86-.27,1.04-1.19,1.05-1.69.01-3.38,0-5.08,0h0v-.02Z"/>
  <path class="i" d="M130.89,204.75h-4.81c-.27,0-.54,0-.8-.04-.38-.06-.62-.34-.68-.72,0-.09-.02-.18-.02-.27,0-1.42-.04-2.85.03-4.27.08-1.75.9-3.15,2.27-4.21.88-.68,1.77-1.35,2.56-2.13.19-.18.43-.32.65-.46.41-.27.84-.28,1.26-.04.23.13.47.26.67.44.87.76,1.79,1.48,2.58,2.32,2.3,2.46,2.99,5.38,2.31,8.65-.12.59-.3.71-.94.71h-5.08v.02h0Z"/>
  <path class="i" d="M110.85,204.74h-4.8c-.22,0-.45,0-.67-.02-.35-.04-.58-.25-.64-.58-.05-.26-.07-.53-.05-.79.09-1.07.09-2.13-.04-3.19-.14-1.19.2-2.29.85-3.29.54-.83,1.23-1.52,2.01-2.12.7-.54,1.46-1.02,2.16-1.55.69-.53,1.36-.57,2.08-.07.73.51,1.5.95,2.21,1.49,1.71,1.31,2.64,3.07,2.93,5.19.17,1.28.23,2.57.07,3.86-.12.91-.27,1.07-1.17,1.07-1.64.01-3.29,0-4.93,0h-.01Z"/>
  <path class="i" d="M108.94,160.38h-6.15c-.27,0-.53,0-.8-.02-.34-.03-.59-.21-.67-.55-.07-.3-.15-.61-.15-.92-.02-1.17.12-2.32.53-3.41.77-2.08,2.3-3.35,4.42-3.89,2.33-.59,4.61-.29,6.79.63,1.8.76,2.88,2.2,3.38,4.06.3,1.09.33,2.2.07,3.31-.17.69-.24.78-1,.78-2.14.01-4.28,0-6.41,0h-.01Z"/>
  <path class="i" d="M192.85,160.38h-6c-.27,0-.53.01-.8-.01-.48-.04-.73-.24-.78-.74-.21-1.99-.02-3.91,1.11-5.63.91-1.38,2.27-2.1,3.83-2.44,1.96-.42,3.9-.25,5.8.3,2.24.65,3.61,2.14,4.07,4.47.22,1.11.23,2.21.19,3.32-.02.53-.22.7-.75.72-.35.02-.71,0-1.07,0h-5.6Z"/>
  <path class="i" d="M259.13,275.79c2.25,0,3.91,1.07,4.59,2.94,1,2.75-.33,6.38-4.37,6.66-.18.01-.36,0-.53-.03-1.91-.27-3.85-2.04-4.31-3.91-.12-.48-.13-.95-.04-1.45.2-1.04.65-1.93,1.35-2.71.91-1,2.04-1.56,3.31-1.51h0Z"/>
  <path class="i" d="M105.94,142.84v-3.6c0-.27-.02-.53,0-.8.05-.67.3-.98.98-1.03,1.06-.07,2.13-.1,3.19-.07.89.03,1.28.41,1.43,1.28.1.57.17,1.15.17,1.72.02,2.66.02,5.33.02,7.99,0,.18,0,.36-.03.53-.07.39-.3.67-.69.71-1.19.12-2.4.17-3.59,0-.72-.1-1.22-.52-1.31-1.29-.06-.53-.15-1.06-.16-1.59-.02-1.29,0-2.58,0-3.86h-.02.01Z"/>
  <path class="i" d="M195.51,144.06v4.67c-.04.47-.25.72-.71.84-.13.03-.26.06-.39.06-.93,0-1.87.06-2.8,0-1.2-.07-1.65-.54-1.74-1.75-.06-.71-.05-1.42-.05-2.13,0-2.26,0-4.53-.02-6.79,0-1.36.15-1.52,1.51-1.58.67-.03,1.33-.04,2-.02,1.64.04,2.09.5,2.17,2.18.03.53.03,1.07.03,1.6v2.93h0Z"/>
  <path class="i" d="M192.49,135.53c-1.15,0-2.31.01-3.46,0-.73,0-1.02-.34-1-1.08.02-.5.16-.96.38-1.4.52-1.07,1.31-1.89,2.38-2.42,2.64-1.32,6.13.73,6.26,3.67,0,.18,0,.36-.02.53-.07.46-.32.69-.81.7-1.24.01-2.48,0-3.72,0h-.01Z"/>
  <path class="i" d="M108.85,135.51h-2.53c-.27,0-.53,0-.8-.02-.92-.1-1.29-.53-1.17-1.41.08-.57.21-1.14.56-1.62.97-1.34,2.29-2.12,3.91-2.25,2.33-.2,4.4,1.92,4.28,4.27-.04.78-.28,1.03-1.05,1.04-1.07.01-2.13,0-3.2,0h0Z"/>
  <path class="f" d="M135.05,180.18c0,.44,0,.89,0,1.33,0,.43-.2.66-.62.74-1.02.19-2.04.08-3.06,0-.24-.02-.39-.2-.48-.41-.05-.12-.09-.25-.09-.38,0-.93-.04-1.87.03-2.8.08-1.06.43-1.39,1.46-1.59.13-.03.26-.05.4-.06,1.56-.14,2.37.47,2.36,2.1v1.07h.03-.03Z"/>
  <path class="f" d="M194.12,180.24c0,.11.03.46.04.82.01.57-.1.77-.6.87-.65.13-1.32.26-1.98.28-1.04.03-1.59-.41-1.81-1.39-.26-1.11,0-2.12.44-3.11.21-.48.64-.72,1.17-.77.68-.06,1.34.06,1.96.3.51.19.74.65.77,1.16.04.53,0,1.07,0,1.85h.01Z"/>
  <path class="f" d="M170.32,179.96c.02.4.05.79.05,1.19,0,.47-.12.69-.54.77-.65.12-1.31.24-1.97.28-1.13.06-1.61-.35-1.87-1.45-.24-1.04,0-2.02.4-2.97.22-.53.67-.81,1.25-.85.63-.04,1.23.06,1.83.24.53.16.82.53.86,1.06.04.57,0,1.15,0,1.72h-.02,0Z"/>
  <path class="i" d="M123.12,179.26v.71c-.07,1.71-1.9,2.88-3.6,2.03-.24-.12-.47-.26-.51-.56-.08-.7-.18-1.41-.2-2.11-.02-.58.12-1.14.41-1.66.51-.93,1.34-1.25,2.36-.89.21.07.41.17.61.27.69.37,1.05.93.98,1.73,0,.13-.02.26-.04.49h-.01Z"/>
  <path class="i" d="M107.4,179.92c0-.58-.02-1.15,0-1.73.04-.72.24-.94.91-1.11.52-.14,1.05-.15,1.58-.12.59.03,1.01.31,1.15.91.08.39.17.78.19,1.17.04.8.05,1.59.05,2.39,0,.6-.16.76-.76.88-.89.18-1.77,0-2.65-.02-.34-.01-.47-.24-.48-.52-.02-.62,0-1.24,0-1.86h.02-.01Z"/>
  <path class="f" d="M142.65,179.56c.04-.48.05-.97.12-1.45.1-.68.31-.89,1.02-1.02.57-.11,1.15-.09,1.73-.02.73.08,1.13.52,1.24,1.2.12.79.19,1.59.26,2.39.02.21-.05.44-.1.65-.12.44-.41.7-.86.7-.84,0-1.69,0-2.53-.05-.47-.03-.7-.3-.76-.78-.06-.53-.07-1.06-.1-1.61h-.02Z"/>
  <path class="f" d="M95.44,179.83c.05-.57.06-1.15.16-1.72.1-.58.45-.94,1.07-1.03.58-.09,1.14-.09,1.72.02.59.12.95.47,1.1,1.03.24.86.34,1.74.28,2.64-.04.61-.39,1-.96,1.13-.83.17-1.68.21-2.52.13-.56-.06-.84-.4-.87-.99,0-.22.02-.44.03-.66,0-.18.02-.35.03-.53h-.04v-.02Z"/>
  <path class="n" d="M154.55,179.86c0-.49-.03-.98,0-1.46.06-.79.42-1.2,1.2-1.37.26-.06.53-.07.79-.07,1.33.02,1.84.51,1.92,1.84.05.84-.06,1.68.06,2.52.04.31-.22.6-.55.64-1.01.14-2.03.1-3.05-.01-.26-.03-.35-.26-.35-.49,0-.53,0-1.06,0-1.6h-.03.01Z"/>
  <path class="f" d="M205.69,180c0,.44.01.88,0,1.32-.01.36-.19.58-.54.65-.79.15-1.59.18-2.37.02-.81-.17-1.16-.59-1.1-1.39.05-.7.12-1.4.07-2.11-.05-.74.32-1.13,1.03-1.35.6-.19,1.21-.25,1.83-.08.67.19.98.52,1.03,1.21.04.57,0,1.15,0,1.72h.05Z"/>
  <path class="p" d="M182.21,180.12c.03.36.09.76.11,1.15.02.4-.21.67-.62.72-.89.11-1.77.06-2.65-.07-.44-.07-.66-.28-.67-.69-.02-.97-.05-1.95,0-2.92.04-.71.46-1.09,1.18-1.25.68-.14,1.33,0,1.94.26.6.26.78.82.78,1.43,0,.44-.05.88-.08,1.37h0Z"/>
  <path class="l" d="M303.76,119.18c-.5-.84-.56-1.77-.5-2.71.04-.62.07-1.25.07-1.87-.02-1.96-.83-3.49-2.43-4.65-2.09-1.52-4.11-3.13-6.17-4.69-.32-.24-.65-.46-1-.66-.33-.18-.69-.19-1.03,0-.32.18-.6.43-.67.79-.05.29.27.43.45.62,2.44,2.51,3.55,5.49,3.25,8.99-.05.54-.16,1.05-.54,1.47-.25.28-.58.27-.8-.02-.48-.64-1-1.26-1.4-1.94-.96-1.61-2.28-2.83-3.86-3.81-.34-.21-.67-.44-1.01-.66-1.71-1.11-3.52-1.9-5.61-1.86-.97.02-1.56-.54-1.89-1.41-.24-.63-.14-1.01.38-1.41.21-.16.45-.28.68-.43,1.28-.82,2.67-1.43,4.03-2.09,1.73-.84,3.37-1.82,4.89-2.99,1.84-1.41,3.05-3.23,3.42-5.54.58-3.66-.41-6.69-3.59-8.83-1-.67-2.04-1.27-3.13-1.78-1.69-.79-3.4-1.54-5.11-2.31-.16-.07-.33-.15-.5-.18-.44-.1-.79.12-1.05.63-.22.43-.17.72.22,1.06.23.2.49.38.74.57.74.58,1.44,1.2,2.07,1.89,1.73,1.92,2.25,4.19,1.96,6.7-.02.17-.08.35-.14.51-.14.35-.49.45-.75.19-1.3-1.34-2.86-2.42-3.98-3.95-.23-.32-.52-.61-.82-.88-.6-.57-1.3-.9-2.16-.9-.49,0-.97-.09-1.46-.12-1.24-.09-2.46-.37-3.72-.36-2.05.02-3.81-.77-5.36-2.08-.88-.74-1.45-1.66-1.69-2.8-.38-1.83-1.25-3.42-2.52-4.79-.54-.59-1.15-1.11-1.74-1.66-.2-.18-.42-.33-.62-.51-.05-.04-.05-.16-.05-.24,0-.11.08-.15.19-.15.67-.01,1.34-.08,2-.03.99.07,1.78.55,2.3,1.4.21.34.37.71.55,1.07.3.6.65,1.17,1.08,1.68.47.57,1.05.97,1.79,1.09,1.14.19,2.28.37,3.43.52.62.08,1.25,0,1.85-.16.72-.21.96-.76.65-1.45-.13-.28-.29-.55-.48-.8-.45-.61-.94-1.19-1.39-1.79-.15-.2-.42-.35-.36-.66.12-.18.31-.14.48-.14.71,0,1.44-.09,2.13.03,1.72.3,3.46.27,5.19.41,1.24.1,2.49.18,3.73.25.55.03.91-.22,1.04-.65.14-.49.01-.87-.41-1.16-.18-.13-.38-.23-.58-.33-1.31-.71-2.41-1.68-3.32-2.86-1.18-1.52-2.21-3.12-2.81-4.97-.16-.51-.38-1-.59-1.49-.27-.62-.65-1.16-1.15-1.63-.42-.4-.85-.79-1.24-1.21-.44-.47-.94-.73-1.54-.41-.53.29-.94.12-1.35-.18-.25-.18-.49-.39-.7-.61-.21-.23-.43-.29-.7-.14-.66.37-1.29.2-1.92-.07-.33-.14-.64-.3-.97-.46-.54-.26-1.1-.39-1.68-.17-.28.11-.5.08-.76-.04-.31-.15-.49,0-.57.32-.07.3-.16.6-.23.9-.05.24.04.44.24.57.15.1.31.19.47.24,1.42.42,2.18,1.47,2.66,2.78.23.63.41,1.27.6,1.91.37,1.26,1,2.37,1.94,3.3.44.44.87.9,1.28,1.36.17.2.33.42.44.66.11.23.02.44-.21.56-.75.4-1.76.26-2.35-.32-.19-.19-.35-.4-.51-.62-.87-1.25-2-2.27-2.96-3.44-.17-.2-.38-.38-.59-.54-1.04-.79-2.15-1.22-3.49-.84-.72.21-1.47.37-2.24.14-.16-.05-.35,0-.52.05-.61.16-.85.72-.5,1.24.22.33.51.62.79.89.65.62,1.25,1.27,1.7,2.05.11.19.24.38.14.66-.87.27-1.8.35-2.73.28-1.02-.07-2.04-.16-3.06-.32-1.95-.3-3.9-.33-5.86-.15-.4.04-.56.21-.6.58-.09.72.25,1.18.87,1.5,1.84.94,3.18,2.41,4.26,4.14.38.6.75,1.21,1.07,1.85.61,1.19,1.19,2.39,1.76,3.6.89,1.91,2.34,2.93,4.48,3.06,1.69.11,3.35.44,4.96.99.84.29,1.68.55,2.62.61-.09.17-.12.3-.21.38-.9.87-1.57,1.94-2.42,2.85-1.54,1.68-1.25,5.43,1.42,6.6,1.67.73,3.26,1.63,4.89,2.46.35.18.75.3,1.07.68-.44.53-.89,1.07-1.34,1.61-.63.76-1.12,1.6-1.36,2.57-.27,1.08.04,1.67,1.09,2.1.25.1.51.16.76.26,1.41.55,2.82,1.1,4.21,1.68.63.26.68.55.29,1.14-.17.26-.38.49-.55.76-.35.56-.73,1.12-1.03,1.72-.5,1.02-.7,2.1-.62,3.24.07.91.44,1.62,1.24,2.08.19.11.39.21.58.32,2.02,1.16,3.75,2.7,5.7,4.13-.58.35-1.07.64-1.55.93-1.36.82-2.23,2.01-2.68,3.53-.11.39-.02.72.3.95.32.23.68.42,1.03.62,2.37,1.32,4.73,2.68,6.94,4.26.14.1.29.21.45.27.11.04.28.02.38-.04.55-.37.74-1.02.5-1.62-.15-.37-.3-.74-.44-1.12-.17-.48-.01-.89.38-1.18.28-.21.61-.38.93-.51.58-.23,1.17-.42,1.76-.61,1.86-.61,3.73-1.18,5.58-1.82,1.39-.47,2.78-.96,4.08-1.64,1.24-.64,2.16-1.57,2.57-2.93.13-.45.3-.82.72-1.07.36-.21.3-.51.13-.8h.02ZM277.49,98.23c-.39.21-.79.41-1.47.36-.05-.01-.32-.05-.56-.15-.78-.35-1.38-.96-1.99-1.54-.33-.31-.27-.75-.1-1.13.74-1.7,1.94-2.85,3.85-3.08,2.27-.27,4.17.58,5.82,2.07.2.18.18.4-.03.54-.11.07-.23.13-.35.2-1.72.91-3.44,1.83-5.17,2.74h0ZM285.98,120.6c-.83.22-1.5.03-2.07-.53-.48-.46-.9-.98-1.34-1.48-.22-.26-.26-.58-.08-.87.94-1.56,2.19-2.69,4.13-2.74.44-.01.89.08,1.32.17,1.95.44,3.42,1.57,4.69,3.32-2.33.78-4.45,1.56-6.64,2.13h-.01Z"/>
  <path class="l" d="M222.84,22.17c-.69-.63-1.45-1.18-2.27-1.64-.62-.34-1.27-.64-1.9-.98-1.45-.8-2.96-.86-4.53-.47-.73.18-1.48.32-2.22.45-1.8.33-3.55.85-5.24,1.55-.61.25-.77.69-.61,1.3.15.54.45.75,1.11.71,2.2-.12,4.22.51,6.16,1.46,1.1.54,1.99,1.35,2.66,2.38.17.26.3.54.42.83.13.32-.06.65-.41.7-.39.06-.8.08-1.2.08-1.78-.02-3.56-.04-5.34-.07-2.59-.05-4.78.91-6.61,2.71-.47.47-.91.98-1.33,1.49-.37.44-.82.65-1.39.69-.75.06-1.41-.13-2.01-.57-.44-.32-.79-.72-1.11-1.15-.67-.9-1.17-1.9-1.53-2.95-.58-1.73-1.12-3.47-1.65-5.22-.23-.74-.06-1.17.61-1.58.38-.23.79-.41,1.19-.61,2.44-1.22,4.45-2.93,5.91-5.26.21-.34.46-.66.71-.97.29-.36.44-.75.52-1.21.25-1.43.16-2.85-.15-4.25-.64-2.89-2.44-4.89-5.04-6.21-.72-.37-1.45-.37-2.19-.02-.24.12-.48.23-.72.35-2.35,1.18-4.69,2.36-7.04,3.53-.27.14-.52.34-.96.29-.04-.18-.08-.31-.08-.45,0-.22-.04-.45,0-.67.27-2.11-.55-3.93-1.57-5.68-.5-.85-.94-.95-1.75-.36-1.95,1.42-4.1,2.5-6.25,3.57-.84.41-1.67.83-2.5,1.26-.44.23-.55.53-.4.98.25.73.63,1.01,1.38,1,.44,0,.89-.07,1.33-.04.91.05,1.39.49,1.46,1.41.04.48,0,.98-.08,1.46-.14.74-.35,1.47-.54,2.2-.2.78-.5,1.54-.59,2.32-.33,2.61-.97,5.16-1.6,7.71-.52,2.12-1.08,4.23-1.28,6.41-.21,2.27.26,4.34,1.91,6.03.67.68.87.73,1.75.28,2.46-1.25,4.91-2.52,7.38-3.74,1.09-.54.89-.7.47-1.64-.14-.31-.42-.44-.78-.38-.17.03-.35.07-.53.07-1.06.04-1.49-.33-1.54-1.37,0-.22,0-.45,0-.67,0-1.83.28-3.64.67-5.42.61-2.82,1.41-5.61,1.8-8.48.2-1.41,1.02-2.43,2.34-3.05.61-.28,1.24-.49,1.89-.65,1-.24,1.85.05,2.53.81,1.23,1.37,1.6,2.93,1,4.71-.24.72-.54,1.42-1,2.03-1.46,1.94-3.09,3.68-5.51,4.45-.96.31-1.35,1.11-1.16,2.11.05.26.11.52.17.78.16.65.33,1.29.5,1.94.55,2.11,1.18,4.2,2.09,6.19.96,2.09,2.22,3.96,3.93,5.51,1.26,1.15,1.88,1.2,3.33.35,1.11-.65,2.23-1.3,3.35-1.93.27-.15.56-.27.85-.37.27-.09.54.13.55.42.01.31-.02.62-.02.93,0,.54.01,1.07.23,1.57.57,1.34,1.52,2.41,2.59,3.36.56.5,1.25.63,1.98.2.58-.34,1.25-.47,1.92-.52.9-.06,1.76-.26,2.58-.63.37-.17.76-.26,1.16-.26.64,0,.98.23,1.23.83.18.42.18.87.19,1.31.03.95.31,1.84.66,2.71.24.6.71.9,1.37.85.35-.03.71-.06,1.05-.15.94-.25,1.89-.52,2.82-.81,1.19-.36,2.37-.76,3.56-1.12.51-.15,1.05-.22,1.56-.37.49-.14.68-.54.55-1.04-.1-.41-.29-.74-.74-.86-.34-.09-.69-.18-1.01-.33-.8-.36-1.09-.99-.85-1.86.12-.43.3-.84.48-1.24.95-2.16,1.92-4.31,2.86-6.47.32-.73.58-1.49.82-2.25,1.02-3.29.12-6.05-2.38-8.34l.03.03ZM216.28,31.4c-.14.37-.29.74-.45,1.11-.61,1.43-1.28,2.83-1.82,4.29-.53,1.41-1.48,2.05-2.96,1.95h-.54c-1.1-.02-1.41-.26-1.59-1.35-.32-2,.21-3.71,1.86-4.96,1.56-1.19,3.37-1.52,5.29-1.42.23.01.27.21.21.39h0Z"/>
  <path class="l" d="M53.98,92.3c-.06-.44-.14-.88-.21-1.32-.37-2.37-.71-4.75-1.33-7.08-.09-.34-.21-.68-.34-1.01-.07-.17-.23-.27-.42-.29-.6-.04-1.15.33-1.31.89-.04.13-.04.27-.07.39-.31,1.06-.84,1.35-1.9,1.03-.3-.09-.59-.21-.86-.35-.88-.44-1.75-.87-2.61-1.34-1.13-.62-2.24-1.28-3.37-1.9-1.17-.64-2.38-1.2-3.68-1.56s-2.61-.56-3.96-.32c-1.83.32-3.36,1.2-4.5,2.65-.99,1.26-1.89,2.59-2.81,3.9-.43.62-.55,1.32-.34,2.04.41,1.43.54,2.89.49,4.36-.05,1.66.17,3.28.59,4.88.15.58.37.76.92.76.72,0,1.07-.29,1.19-.99.04-.22.03-.44.06-.67.22-1.84.77-3.56,1.75-5.14.6-.96,1.33-1.78,2.28-2.4.37-.25.77-.45,1.21-.53.53-.1.87.21.79.76-.19,1.37-.38,2.73-.59,4.09-.45,2.94.09,5.67,1.71,8.17.39.6.86,1.13,1.3,1.7.24.32.52.62.71.97.54.99-.14,2.21-1.33,2.09-.35-.04-.7-.12-1.04-.23-1.06-.33-2.12-.68-3.17-1.02-1.99-.64-3.96-1.34-6-1.81-1.17-.27-2.35-.49-3.57-.42-1.24.07-2.39.43-3.27,1.32-1.35,1.36-2.58,2.83-3.47,4.55-.97,1.88-1.14,3.84-.44,5.82.83,2.35,1.56,4.73,2.3,7.11.08.25.16.51.27.75.09.22.28.36.51.39.7.11,1.22-.38,1.15-1.07-.03-.27-.09-.53-.13-.79-.1-.67-.1-1.33,0-2,.24-1.79.9-3.44,1.83-4.98.47-.78,1.11-1.39,1.92-1.82.53-.28.87-.1.91.49.04.67.04,1.33.11,2,.05.57.23,1.14.24,1.71.05,2.91,1.1,5.46,2.69,7.84.61.92,1.39,1.63,2.38,2.09,2.2,1.02,4.46,1.16,6.75.32.98-.36,1.81-.93,2.49-1.74.72-.86.88-1.82.58-2.88-.05-.17-.13-.33-.18-.5-.59-1.87-1.18-3.73-1.77-5.6-.09-.29-.22-.59-.08-.9.04-.02.08-.04.13-.05.67-.02,1.33-.04,2-.05.67,0,1.33-.08,1.97-.31,1.06-.38,1.57-1.19,1.37-2.29-.11-.61-.31-1.2-.52-1.79-.34-.97-.7-1.92-1.07-2.88-.15-.38-.24-.77-.24-1.17,0-.45.24-.78.68-.87.34-.07.71-.07,1.06-.11,1.45-.15,2.77-.63,3.92-1.54.75-.6,1.16-1.38,1-2.34-.35-2.02-.34-4.08-.81-6.08-.02-.09-.04-.17-.05-.26-.08-.71.17-1.03.87-1.02.53.01,1.07.05,1.59.15,1.06.2,2.04-.09,2.99-.46.66-.26.87-.67.78-1.37l-.05.03ZM35.18,118.33c-2.06.68-3.86.25-5.32-1.35-1.35-1.49-1.87-3.26-1.71-5.3.26.01.44-.02.6.04,1.86.59,3.71,1.17,5.55,1.83,1.22.44,1.74,1.27,1.82,2.49.02.31.04.62.04.93,0,.8-.21,1.11-.98,1.36h0ZM45.28,93.6c-.03.17,0,.35,0,.78-.02.24-.01.73-.09,1.21-.11.64-.52,1.02-1.17,1.09-1.04.12-2.05-.02-2.93-.63-1.88-1.33-2.98-3.13-3.21-5.44-.05-.54.05-1.06.26-1.56.12-.27.39-.38.66-.25.36.17.71.37,1.06.56,1.48.81,2.94,1.66,4.44,2.42.79.4,1.14.93.98,1.81h0Z"/>
  <path class="l" d="M34.72,150.69c.23-.62.52-1.23.76-1.85,1.17-3.02,1.12-6-.3-8.93-1.59-3.28-3.69-6.18-6.32-8.7-3.57-3.42-7.78-5.46-12.73-5.77-1.54-.1-3.1.13-4.65.24-.35.02-.68.19-1.02.3-4.57,1.59-7.47,4.81-9.12,9.28-.33.89-.15,1.63.36,2.38,1.37,2.03,2.71,4.07,4.06,6.11.07.11.14.22.19.35.13.35-.1.77-.47.8-.35.03-.71,0-1.06,0-1.26-.06-2.42.2-3.22.69-1.17.71-1.49,1.73-.93,2.96.13.28.29.55.46.81,1.52,2.41,3.03,4.82,4.56,7.23.12.19.24.38.41.52.12.11.31.2.47.21.79.05,1.34-.59,1.19-1.36-.08-.44-.21-.87-.25-1.31-.06-.8.31-1.26,1.1-1.41.35-.06.71-.06,1.06-.07,2.14-.05,4.26.1,6.39.41,1.98.29,3.99.41,5.96.7,2.16.32,4.3.66,6.49.76,1.71.08,3.34.52,4.68,1.7.07.06.14.12.21.16.56.37,1.55.04,1.77-.59.04-.12.06-.27.02-.39-.06-.21-.18-.41-.27-.61-.47-1-.61-2.04-.3-3.12.15-.51.3-1.02.48-1.52l.02.02ZM30.56,139.81c-.2.74-.51,1.42-.83,2.11-.68,1.49-1.46,2.95-1.72,4.61-.07.44-.32.59-.76.57-.4-.02-.8-.06-1.2-.09-2.09-.09-4.16-.4-6.24-.67-2.69-.36-5.36-.88-8.08-.99-1.48-.06-2.54-.71-3.19-2.04-.31-.64-.64-1.27-.98-1.9-.33-.61-.3-1.2.05-1.77.23-.38.51-.73.81-1.06,1.36-1.53,3.04-2.61,4.95-3.29,3.74-1.33,7.58-1.95,11.55-1.38,1.29.18,2.52.55,3.66,1.19,1.9,1.07,2.53,2.63,1.98,4.73v-.02Z"/>
  <path class="l" d="M98.53,41.1c-.33-.02-.61.07-.87.27-.36.26-.71.55-1.09.76-.56.31-1.01.25-1.45-.23-.36-.39-.67-.83-.96-1.28-1.4-2.12-2.78-4.25-4.16-6.38-.44-.67-.91-1.32-1.47-1.9-1.15-1.19-2.52-1.93-4.15-2.27-1.68-.35-3.28-.07-4.85.47-1.65.56-3.17,1.42-4.74,2.14-.36.17-.55.43-.6.81-.22,1.75-.92,3.34-1.63,4.92-.44.97-.87,1.95-1.26,2.95-.24.62-.4,1.27-.58,1.91-.08.28-.02.57.25.7.39.2.68.64,1.16.56.39-.07.41-.55.65-.8.09-.1.16-.22.26-.3.68-.59,1.18-1.32,1.71-2.04.75-1.04,1.77-1.74,2.99-2.16,1.41-.48,2.87-.6,4.35-.58.26,0,.38.24.22.45-.69.93-1.38,1.86-2.08,2.78-.73.96-1.43,1.93-1.97,3.02-.78,1.58-1.27,3.23-1.23,5.01,0,1.3.2,2.58.61,3.81.37,1.12.98,2.1,1.98,2.78,1.11.76,2.32,1.37,3.63,1.63,1.68.34,3.15.19,4.49-1.82.27-.41.51-.84.69-1.29.26-.61.46-1.25.67-1.88.18-.5.33-1.02.52-1.51.18-.46.45-.87.84-1.19.63-.52,1.01-.55,1.67-.05.46.35.91.72,1.43.97,1.78.86,2.9.44,3.52-1.44.83-2.49,1.61-5,2.39-7.51.27-.86-.04-1.26-.93-1.32h-.01ZM86.97,50.02c-.33.18-.68.17-1.04.09-1.55-.34-2.49-1.4-2.94-2.83-.66-2.07-.26-4.05.86-5.89.11-.19.28-.35.45-.49.19-.15.42-.15.61.01.1.08.19.19.26.3,1.11,1.67,2.21,3.34,3.31,5.02.2.3.36.62.34,1.01-.19,1.2-.73,2.17-1.84,2.77h0Z"/>
  <path class="l" d="M152.34,25.64c-.38-.59-.8-.7-1.48-.36-.95.48-1.9.97-2.84,1.46-1.19.62-2.32.58-3.34-.32-.48-.42-1.05-.65-1.62-.96.16-.56.51-.95.87-1.34,1.99-2.1,3.98-4.2,5.97-6.29.37-.39.77-.74,1.13-1.13.96-1.03,1.03-1.63.3-2.86-.64-1.08-1.41-2.05-2.33-2.9-1.36-1.27-2.93-2.18-4.75-2.59-1.96-.44-3.79-.23-5.32,1.28-.98.97-2.02,1.88-2.94,2.91-1.37,1.54-2.48,3.24-3.35,5.11-.75,1.62-1.02,3.3-.82,5.07.11.98.37,1.92.74,2.83.91,2.24,2.14,4.3,3.68,6.16,1.21,1.46,2.68,2.57,4.42,3.36,1.47.67,2.68.51,3.86-.68,2.39-2.39,4.86-4.7,7.3-7.04.16-.15.32-.31.46-.48.32-.41.33-.8.06-1.23h0ZM142.01,22.39c-.12.12-.28.21-.44.3-.31.17-.61.13-.86-.11-.19-.18-.37-.39-.51-.61-.67-1.1-1.31-2.22-1.8-3.41-.31-.75-.49-1.52-.45-2.65,0-.08.03-.49.14-.86.23-.73.77-1.05,1.53-.99.41.03.78.18,1.12.39,1.48.88,2.68,2.05,3.6,3.5.14.22.25.47.32.73.12.4.1.8-.2,1.13-.82.88-1.64,1.75-2.47,2.61l.02-.03Z"/>
  <path class="o" d="M128.6,228.55c.03,2.67-1.79,5.59-5.72,5.79-.39.02-.8-.06-1.18-.16-2.29-.61-3.82-2.12-4.48-4.34-.57-1.94.07-3.69,1.5-5.11.94-.94,2.11-1.45,3.44-1.58.8-.08,1.61-.09,2.39.09,2.68.61,3.8,2.34,4.05,4.65.02.22,0,.44,0,.67h0Z"/>
  <path class="o" d="M184.05,228.42c.07,3.24-1.99,5.16-4.54,5.74-3.74.86-6.69-2.64-6.97-5.23-.13-1.2.22-2.3.91-3.27,1.07-1.49,2.52-2.35,4.36-2.52.4-.04.8-.05,1.2-.06,3.08-.03,4.67,2.21,4.98,4.43.05.4.06.8.07.9h-.01Z"/>
  <path class="q" d="M198.86,292.18h-3.87c-1.02,0-1.33-.24-1.34-1.21-.02-2.09-.02-4.18.02-6.26.02-.94.24-1.85.74-2.67.95-1.57,2.36-2.41,4.18-2.4,3.18.03,4.87,2.02,5.27,3.86.08.39.14.79.15,1.18.04,2,0,4,.17,5.99.01.18,0,.36-.01.53-.08.65-.38.94-1.05.96-.8.02-1.6,0-2.4,0h-1.87v.02h.01Z"/>
  <path class="q" d="M204.07,244.53c.03.84.07,1.69.1,2.53,0,.31.02.62-.02.93-.05.41-.27.62-.69.69-.22.04-.44.05-.66.05-1.42,0-2.85-.03-4.27-.03-.35,0-.71.05-1.06.07-.71.04-1.42.12-2.13.11-1.09-.03-1.64-.54-1.76-1.6-.05-.44-.04-.89-.03-1.33.03-1.29.08-2.58.1-3.87,0-.67.09-1.33.22-1.99.44-2.2,2.3-3.75,4.54-3.77.94,0,1.86.17,2.75.47,1.43.48,2.28,1.5,2.62,2.95.14.6.21,1.23.23,1.85.04.98.01,1.96.01,2.93h.06-.01Z"/>
  <path class="q" d="M204.07,265.95c.04.84.08,1.69.1,2.53.01.35.03.71-.02,1.06-.06.47-.32.67-.81.72-.22.02-.44.02-.67.02-1.38,0-2.75-.02-4.13,0-.53,0-1.06.05-1.59.12-.62.08-1.24.14-1.86.07-.86-.1-1.36-.6-1.49-1.45-.06-.39-.09-.8-.06-1.19.09-1.55.14-3.1.12-4.66-.01-.95.23-1.84.68-2.68.65-1.2,1.61-1.97,2.93-2.32.92-.25,1.86-.29,2.77-.13,1.94.35,3.1,1.61,3.71,3.42.18.54.28,1.12.28,1.7v2.8h.05,0Z"/>
  <path class="q" d="M102.58,292.18h-3.87c-.91,0-1.23-.27-1.22-1.19.03-2.18-.08-4.36.09-6.54.17-2.28,2-4.29,4.57-4.37,1.04-.03,2.04.08,2.98.57,1.59.83,2.53,2.14,2.62,3.91.1,2.18.06,4.36.05,6.54,0,.74-.33,1.06-1.07,1.08-1.38.03-2.76,0-4.14,0h0Z"/>
  <path class="q" d="M102.64,248.74h-3.88c-.18,0-.36,0-.53-.04-.42-.07-.63-.27-.7-.69-.04-.22-.05-.44-.05-.66.04-2.14.05-4.28.14-6.41.08-2.11,1.14-3.34,3.18-3.91.96-.27,1.93-.35,2.91-.27,1.5.12,2.59.86,3.29,2.19.44.84.67,1.75.76,2.68.19,2.09.03,4.19.02,6.28,0,.5-.23.71-.73.79-.22.03-.44.04-.66.04h-3.75Z"/>
  <path class="q" d="M102.27,270.28c-.68,0-1.92-.11-3.16.05-.13.02-.27.01-.4,0-.76-.05-1.11-.36-1.23-1.14-.05-.3-.05-.62-.02-.93.11-1.2.08-2.4.06-3.6,0-.71,0-1.42.07-2.13.22-2.35,2.26-4.14,4.47-4.11.44,0,.89,0,1.33.04,2.08.25,4.08,1.33,4.34,4.4.06.66.05,1.33.05,2,0,1.33,0,2.67,0,4,0,1.26-.14,1.4-1.35,1.4h-4.16v.02Z"/>
  <path class="q" d="M157.09,195.06c.03,4.34-3.46,7.37-7.42,6.76-2.46-.38-5.38-2.89-5.61-5.72-.24-2.97,1.09-5.5,3.68-6.66,1.15-.52,2.36-.79,3.61-.88.77-.05,1.5.17,2.15.59,2.24,1.47,3.41,3.55,3.6,5.91h0Z"/>
  <path class="i" d="M202.07,287.15c0,.76.02,1.51,0,2.27-.02.49-.26.76-.75.76-1.42.01-2.84.09-4.26-.11-.83-.11-1.22-.62-1.28-1.3-.13-1.64-.25-3.29-.04-4.92.15-1.16.83-1.91,2-2.21.9-.23,1.77-.14,2.61.19.89.35,1.42,1.04,1.57,2,.17,1.1.2,2.21.15,3.32h0Z"/>
  <path class="i" d="M202.1,243.16c-.06.95-.07,1.71-.15,2.46-.09.76-.35,1.03-1.07,1.13-1.37.19-2.74.2-4.11,0-.63-.09-.92-.4-1-1.05-.04-.35-.04-.71-.04-1.06,0-.84,0-1.69-.13-2.52-.04-.22-.05-.44-.04-.66.09-2.16,1.52-3.68,3.88-3.18.13.03.26.08.39.09,1.14.1,1.72.84,2.02,1.84.19.63.29,1.3.27,1.97-.01.4,0,.8,0,1l-.02-.02Z"/>
  <path class="i" d="M195.76,265.29c-.04-.8-.08-1.59-.13-2.39-.13-2.12,1.6-3.61,3.7-3.19.26.05.53.09.78.18.91.3,1.54.91,1.71,1.87.31,1.71.39,3.44.11,5.17-.12.76-.58,1.17-1.29,1.35-.21.05-.44.09-.66.09-1.02.01-2.04.04-3.06.01-.92-.03-1.19-.33-1.2-1.22-.01-.62,0-1.24,0-1.87h.05,0Z"/>
  <path class="i" d="M99.47,286.74c0-.62-.02-1.25,0-1.87.04-1.45.87-2.88,2.97-2.94.31,0,.62,0,.93.02,1.14.12,1.87.78,2.24,1.83.18.5.27,1.03.26,1.57-.02.94,0,1.87-.02,2.81,0,.13,0,.27-.02.4-.12,1.2-.34,1.45-1.55,1.57-1.2.12-2.4.13-3.6-.06-.8-.13-1.11-.42-1.17-1.2-.06-.71,0-1.42,0-2.14h-.03,0Z"/>
  <path class="i" d="M99.48,243.37v-1.87c0-.59.2-1.13.48-1.65.32-.58.81-.99,1.43-1.11.87-.17,1.77-.16,2.64.11.79.24,1.28.78,1.55,1.53.12.33.21.69.24,1.04.11,1.33.1,2.67-.02,4-.1.99-.38,1.23-1.33,1.35-1.29.16-2.58.17-3.86-.02-.73-.1-1.04-.39-1.09-1.12-.05-.75,0-1.51,0-2.27h-.03Z"/>
  <path class="i" d="M99.48,265.34c0-1-.04-1.71,0-2.42.11-1.54,1.15-2.71,2.58-2.98,1.56-.3,3.08.59,3.56,2.11.11.34.2.69.22,1.04.05,1.11.1,2.22.08,3.33-.03,1.19-.47,1.69-1.65,1.87-1.23.19-2.48.17-3.72.09-.81-.05-1.16-.48-1.15-1.33,0-.66.06-1.33.08-1.7h0Z"/>
  <path class="i" d="M150.76,190.77c.43,0,1.13.1,1.81.35,1.2.44,2.04,1.25,2.39,2.5.34,1.23.38,2.46-.12,3.66-1.06,2.58-4.26,3.61-6.56,2.01-3.01-2.09-3.17-5.38-.15-7.77.79-.62,1.34-.77,2.64-.75h-.01Z"/>
  <g id="b" data-name="SHOP INDULGE IMMERSE" class="m">
    <g class="m">
      <path class="h" d="M31.37,352.24c-2.95,0-5.24-1.55-5.28-4.24h3.06c.08,1.14.84,1.89,2.16,1.89s2.14-.71,2.14-1.73c0-3.08-7.33-1.22-7.31-6.38,0-2.57,2.08-4.11,5.01-4.11s4.91,1.49,5.09,4.05h-3.14c-.06-.94-.81-1.67-2.04-1.69-1.12-.04-1.96.51-1.96,1.67,0,2.85,7.29,1.26,7.29,6.27,0,2.24-1.79,4.26-5.03,4.26h0Z"/>
      <path class="h" d="M47.8,346.05h-6.09v6.05h-2.85v-14.22h2.85v5.85h6.09v-5.85h2.85v14.22h-2.85v-6.05Z"/>
      <path class="h" d="M60.06,352.24c-4.01,0-7.29-3.01-7.29-7.29s3.28-7.27,7.29-7.27,7.27,3.01,7.27,7.27-3.24,7.29-7.27,7.29ZM60.06,349.7c2.57,0,4.34-1.85,4.34-4.75s-1.77-4.71-4.34-4.71-4.36,1.81-4.36,4.71,1.77,4.75,4.36,4.75Z"/>
      <path class="h" d="M74.68,346.64h-2.38v5.46h-2.85v-14.22h5.23c3.42,0,5.13,1.94,5.13,4.4,0,2.16-1.47,4.36-5.13,4.36h0ZM74.56,344.34c1.61,0,2.32-.79,2.32-2.06s-.71-2.08-2.32-2.08h-2.26v4.14h2.26Z"/>
      <path class="h" d="M96.37,337.88h2.85v14.22h-2.85v-14.22Z"/>
      <path class="h" d="M114.19,337.86v14.24h-2.85l-6.46-9.76v9.76h-2.85v-14.24h2.85l6.46,9.78v-9.78h2.85Z"/>
      <path class="h" d="M129.46,345.01c0,4.3-2.95,7.09-7.5,7.09h-4.97v-14.22h4.97c4.54,0,7.5,2.81,7.5,7.13h0ZM121.87,349.68c2.99,0,4.69-1.71,4.69-4.67s-1.69-4.73-4.69-4.73h-2.02v9.39h2.02Z"/>
      <path class="h" d="M131.56,337.88h2.85v8.8c0,1.96,1.06,2.97,2.87,2.97s2.89-1.02,2.89-2.97v-8.8h2.87v8.78c0,3.75-2.69,5.58-5.81,5.58s-5.68-1.83-5.68-5.58v-8.78h0Z"/>
      <path class="h" d="M148.64,337.88v11.96h4.69v2.26h-7.54v-14.22h2.85,0Z"/>
      <path class="h" d="M168.32,342.16h-3.28c-.65-1.2-1.83-1.83-3.34-1.83-2.55,0-4.32,1.81-4.32,4.64s1.79,4.69,4.44,4.69c2.2,0,3.61-1.26,4.03-3.28h-4.89v-2.18h7.7v2.48c-.57,2.89-3.16,5.54-6.95,5.54-4.14,0-7.27-2.99-7.27-7.25s3.14-7.27,7.25-7.27c3.18,0,5.7,1.61,6.62,4.46h.01Z"/>
      <path class="h" d="M179.03,340.19h-5.4v3.57h4.79v2.26h-4.79v3.77h5.4v2.32h-8.25v-14.24h8.25v2.32h0Z"/>
      <path class="h" d="M196.15,337.88h2.85v14.22h-2.85v-14.22Z"/>
      <path class="h" d="M201.81,337.88h3.24l4.52,10.57,4.52-10.57h3.22v14.22h-2.85v-9.25l-3.81,9.25h-2.16l-3.83-9.25v9.25h-2.85v-14.22h0Z"/>
      <path class="h" d="M220.12,337.88h3.24l4.52,10.57,4.52-10.57h3.22v14.22h-2.85v-9.25l-3.81,9.25h-2.16l-3.83-9.25v9.25h-2.85v-14.22h0Z"/>
      <path class="h" d="M246.68,340.19h-5.4v3.57h4.79v2.26h-4.79v3.77h5.4v2.32h-8.25v-14.24h8.25v2.32h0Z"/>
      <path class="h" d="M254.6,337.88c3.42,0,5.13,1.98,5.13,4.36,0,1.73-.96,3.48-3.24,4.09l3.4,5.76h-3.3l-3.14-5.54h-1.34v5.54h-2.85v-14.22h5.34ZM254.5,340.25h-2.38v4.18h2.38c1.59,0,2.3-.83,2.3-2.12s-.71-2.06-2.3-2.06Z"/>
      <path class="h" d="M267.22,352.24c-2.95,0-5.23-1.55-5.28-4.24h3.06c.08,1.14.83,1.89,2.16,1.89s2.14-.71,2.14-1.73c0-3.08-7.33-1.22-7.31-6.38,0-2.57,2.08-4.11,5.01-4.11s4.91,1.49,5.09,4.05h-3.14c-.06-.94-.81-1.67-2.04-1.69-1.12-.04-1.96.51-1.96,1.67,0,2.85,7.29,1.26,7.29,6.27,0,2.24-1.79,4.26-5.03,4.26h0Z"/>
      <path class="h" d="M282.97,340.19h-5.4v3.57h4.79v2.26h-4.79v3.77h5.4v2.32h-8.25v-14.24h8.25v2.32h0Z"/>
    </g>
  </g>
  <circle id="c" data-name="Ellipse 315" class="h" cx="87.57" cy="344.46" r="2.55"/>
  <circle id="d" data-name="Ellipse 316" class="h" cx="187.69" cy="344.46" r="2.55"/>
</svg>