<?xml version="1.0" encoding="UTF-8"?>
<svg id="Layer_1" xmlns="http://www.w3.org/2000/svg" version="1.1" viewBox="0 0 117.7 37.1">
  <!-- Generator: Adobe Illustrator 30.2.0, SVG Export Plug-In . SVG Version: 2.1.1 Build 105)  -->
  <defs>
    <style>
      .st0 {
        fill: #e9cf7e;
      }

      .st1 {
        fill: #dcb963;
      }

      .st2 {
        fill: #dab661;
      }

      .st3 {
        fill: #862328;
      }

      .st4 {
        fill: #a4593f;
      }

      .st5 {
        fill: #b27349;
      }

      .st6 {
        fill: #994337;
      }

      .st7 {
        fill: #b3744a;
      }

      .st8 {
        fill: #c29b65;
      }

      .st9 {
        fill: #c59b58;
      }

      .st10 {
        fill: #ccab5f;
      }

      .st11 {
        fill: #d3ab55;
      }

      .st12 {
        fill: #cea046;
      }

      .st13 {
        fill: #f3e696;
      }

      .st14 {
        fill: #c39d65;
      }

      .st15 {
        fill: #c6a065;
      }

      .st16 {
        fill: #cfa44b;
      }

      .st17 {
        fill: #d8b25a;
      }

      .st18 {
        fill: #a45d42;
      }

      .st19 {
        fill: #f0df8e;
      }

      .st20 {
        fill: #801826;
      }

      .st21 {
        fill: #e2c573;
      }

      .st22 {
        fill: #e9d07f;
      }

      .st23 {
        fill: #c5a160;
      }

      .st24 {
        fill: #862429;
      }

      .st25 {
        fill: #ebd784;
      }

      .st26 {
        fill: #c49336;
      }

      .st27 {
        fill: #e5cb86;
      }

      .st28 {
        fill: #dfca86;
      }

      .st29 {
        fill: #cba85e;
      }

      .st30 {
        fill: #933732;
      }

      .st31 {
        fill: #caa55f;
      }

      .st32 {
        fill: #d8b45c;
      }

      .st33 {
        fill: #edd787;
      }

      .st34 {
        fill: #964136;
      }

      .st35 {
        fill: #862428;
      }

      .st36 {
        fill: #e8df9f;
      }

      .st37 {
        fill: #caa65d;
      }

      .st38 {
        fill: #e3c774;
      }

      .st39 {
        fill: #c49b59;
      }

      .st40 {
        fill: #821a26;
      }

      .st41 {
        fill: #c09355;
      }

      .st42 {
        fill: #efdd8b;
      }

      .st43 {
        fill: #c49b5e;
      }

      .st44 {
        fill: #c19862;
      }

      .st45 {
        fill: #caa45d;
      }

      .st46 {
        fill: #bd8e30;
      }

      .st47 {
        fill: #edd885;
      }

      .st48 {
        fill: #bd8d52;
      }

      .st49 {
        fill: #c59d59;
      }

      .st50 {
        fill: #c8a35e;
      }

      .st51 {
        fill: #d0a44e;
      }

      .st52 {
        fill: #e9cf7c;
      }

      .st53 {
        fill: #862529;
      }

      .st54 {
        fill: #dbb864;
      }

      .st55 {
        fill: #c2975d;
      }

      .st56 {
        fill: #c29657;
      }

      .st57 {
        fill: #f5ec9f;
      }

      .st58 {
        fill: #b98250;
      }

      .st59 {
        fill: #88282a;
      }

      .st60 {
        fill: #e1c472;
      }

      .st61 {
        fill: #c8a362;
      }

      .st62 {
        fill: #debf69;
      }

      .st63 {
        fill: #c39233;
      }

      .st64 {
        fill: #c59d58;
      }

      .st65 {
        fill: #ae754c;
      }

      .st66 {
        fill: #c59235;
      }

      .st67 {
        fill: #debe68;
      }

      .st68 {
        fill: #b67c4d;
      }

      .st69 {
        fill: #f7ed9f;
      }

      .st70 {
        fill: #c09254;
      }

      .st71 {
        fill: #b9824f;
      }

      .st72 {
        fill: #b37d50;
      }

      .st73 {
        fill: #c09455;
      }

      .st74 {
        fill: #b7804e;
      }

      .st75 {
        fill: #c8983d;
      }

      .st76 {
        fill: #bd8b51;
      }

      .st77 {
        fill: #c8a570;
      }

      .st78 {
        fill: #b6846a;
      }

      .st79 {
        fill: #b0774e;
      }

      .st80 {
        fill: #d5ae58;
      }

      .st81 {
        fill: #d1a64e;
      }

      .st82 {
        fill: #c39a5d;
      }

      .st83 {
        fill: #c39b5e;
      }

      .st84 {
        fill: #c7963d;
      }

      .st85 {
        fill: #ca9b42;
      }

      .st86 {
        fill: #c49d5d;
      }
    </style>
  </defs>
  <path class="st20" d="M73.7,36h-.9c-.3-.6-.9-.7-1.5-.7-3.5,0-6.9,0-10.4,0-2.2,0-4.3,0-6.5,0-1.5,0-2.9,0-4.4,0h-4.8c-1.1,0-2.3,0-3.4,0h-4.4c-1,0-2,0-3,0-1.6,0-3.2,0-4.8,0-1.7,0-3.3,0-5,0-1.8,0-3.5,0-5.3,0-4.3,0-8.5,0-12.8,0-.4,0-.8,0-1.1-.1-.1,0-.2,0-.3,0-.3,0-.5-.2-.8-.2-.1,0-.3-.1-.4-.2-2.1-1.2-2.9-3-2.9-5.4,0-7.7,0-15.3,0-23,0-2.2,1.7-4.3,3.8-4.9.8-.2,1.6-.3,2.4-.3,14,0,28,0,42.1,0h1.1c1.2,0,2.5,0,3.8,0,1,0,1.9,0,2.9,0,1.2,0,2.3,0,3.5,0,1.3,0,2.7,0,4,0,1.8,0,3.5,0,5.3,0,1.5,0,2.9,0,4.4,0,1.2,0,2.4,0,3.7,0,1.7,0,3.4,0,5.1,0,1.4,0,2.8,0,4.2,0,1.3,0,2.7,0,4,0,.2,0,.5,0,.7,0h17.7c.2,0,.4,0,.6,0,.2,0,.3,0,.5,0,.4.1.8,0,1.1.1,1.1.2,2,.8,2.8,1.6.8,1,1.4,2.1,1.5,3.3v2.7c0,7,0,14.1,0,21.1,0,2.2-1.2,3.8-3.1,4.8-.7.4-1.6.4-2.1,1.2h-.8c-.4-.2-.9.1-1.3,0-.3,0-.8,0-.4-.6.1-.1.3-.2.4-.3,0,0-.2-.1-.2-.2,0,.1,0,.2,0,.4-.1,0-.3.2-.3.4-.2.4-.6.1-.8.3-.2,0-.4,0-.4-.1.2-.5-.3-.8-.2-1.4-.2.3-.5.4,0,.6s.4.5,0,.9c-.3,0-.5.2-.8,0h0s0,0-.1,0c-.6,0-.9-.4-.8-1-.1.4-.2.9-.6,1-.7.1-.9-.1-.6-1-.1.2,0,.6-.3,1-.3,0-.5.1-.8,0,0,0,0-.1,0-.2.4-.9.3-1.1-.5-1.2-.2,0-.3,0-.4.2s-.2.2-.3.3c-.4.3-.2.8-.6,1-.4,0-.8,0-1.2,0-.2-.3,0-.5,0-.8s0-.1,0-.2c0-.2,0-.4.2-.6.1-.1.3-.1.5-.2,0,0,0-.1,0,0,0,0,0,0,0,0-.1,0-.2,0-.2-.1-.2-.6,0-1.2.2-1.8,0-.2.2-.5.2-.7,0,0-.1.2-.1.3-.2.4-.3.9-.4,1.3,0,0,0,.1,0,.2,0,.3,0,.6-.4.8-.2,0-.3,0-.5,0-.5,0-.7-.3-.6-.9,0-.4,0-.9,0-1.3,0,.4,0,.7,0,1.1,0,.7,0,.9-.7,1.1-.4,0-.8,0-1.2.2-.5.1-1,.2-1.4.5-.2.1-.4.3-.5.5-.2.6-.7.8-1.3.7-.2,0-.4,0-.6,0-.6,0-.6,0-.5-.6,0-.3.2-.5,0-.8-.6-.2-1.1,0-1.5.8,0,.7-.6.5-1,.6-.8,0-.9,0-.7-.8.1-.4.2-.8.7-.8s0,0,0,0c0,0,0,0,0,0-.7-.3,0-.8,0-1.1-.5.7-.5,1.7-.8,2.5-.2.2-.4,0-.6,0-.2,0-.5.3-.5-.1.4-.5-.2-.8-.1-1.3-.2.2-.4.2,0,.5.2.2.4.5.2.8-.2.3-.5.2-.8.3,0,0-.2,0-.3,0h0s0,0,0,0c-.8,0-1.1-.4-.9-1.1-.3.4,0,1.1-.8,1.2h-2.8c-.1,0-.4-.1-.2-.3.5-.8.5-1.9,1-2.7,0,0,0,0,0,0,0,0,0,0,0,0-.3.6-.5,1.2-.7,1.8-.2,1.1-.5,1.3-1.6,1.3-.4,0-.8,0-1.2,0-.3-.2-.7,0-1.1-.1-.6,0-.8-.4-.6-1,0-.2.2-.3.2-.5-.1.2-.2.5-.3.7,0,.2,0,.3-.3.4-.2,0-.3-.2-.3-.3-.1-.3-.3-.6-.3-.9,0,.4.3.7.4,1,0,.2.2.4,0,.6-.4,0-.8,0-1.3,0-.2,0-.2-.2-.1-.3.2-.4,0-.7-.2-1,0-.1,0-.2,0-.4,0-.3.2-.6-.2-.8-.4-.1-.8-.3-1.2.1,0,.5,0,1.1,0,1.6,0,.2,0,.5-.2.7h0Z"/>
  <path class="st26" d="M4.1,34.7c0,0,.2,0,.3.1.2.3.5.1.7.2h.2c.3.4.8.3,1.2.3.3,0,.6,0,.9,0h10c.2,0,.4,0,.3.3,0,.2-.3,0-.5.1.3,0,.5,0,.7,0,.1,0,.4,0,.3.3-.5.1-1,0-1.4,0-.2,0-.3,0-.5,0-.6,0-1.1,0-1.7,0-2.9,0-5.7,0-8.6,0-.2,0-.4,0-.5,0-.3-.1-.7-.2-1.1-.3-2.2-.7-3.9-3-3.9-5.6,0-7.9,0-15.7,0-23.6,0-2,.9-3.6,2.5-4.8,0,0,.1,0,.2,0,0,.3-.2.4-.4.6-1.1,1-1.8,2.2-1.9,3.7v24.5c0,1.1.6,2,1.2,3,.5.8,1.3,1,2.1,1.2h0Z"/>
  <path class="st57" d="M72.4,36c-3.5,0-7,0-10.5,0H6.9c-.4,0-.8,0-1.1,0,.2-.2.5-.1.8-.1h5.4c1.6,0,3.2,0,4.8,0,3.8-.2,7.5,0,11.3-.1,4.7,0,9.3,0,13.9,0,3.7,0,7.3,0,11,0,2.3,0,4.7.1,7,0,1.6-.2,3.2.2,4.7.1-.5,0-1.2,0-1.8,0,.2-.2.6-.3,1.2-.2-.1,0-.3,0-.3-.2h6.8c-.3.3-.5.2-.7.3.2,0,.5,0,.7.2-.8,0-1.5,0-2.2,0s0,.1,0,0c0,0,0,0,0,0,1.1,0,2.2,0,3.4-.1.3,0,.7,0,.9.4h0Z"/>
  <path class="st75" d="M3.1,1.6s-.1,0-.2,0c1-.8,2.3-1.1,3.6-1.1h41.7c.2,0,.5,0,.8,0,1.1.1,2.2,0,3.4,0,.2,0,.5,0,.8,0,0,0,0,.1,0,.2-.8.2-1.6.1-2.4.2-6.5,0-13,0-19.5,0-.4,0-.8,0-1.1,0-.3,0-.5,0-.8,0h-5c-.3,0-.5,0-.8,0-.3,0-.5,0-.8,0h-12c-.3,0-.5,0-.8,0-1.2-.2-2.5-.1-3.7,0-.9.1-1.7.3-2.5.7-.1,0-.3.1-.5,0h0Z"/>
  <path class="st85" d="M111.1,36s0,0,0,0c0-.8.7-.9,1.3-1.1,2.2-.7,3.6-2.6,3.6-5,0-6.7,0-13.5,0-20.2,0-.2,0-.5,0-.8,0,0,.2,0,.2.1.2.4,0,.9,0,1.4,0,1.1,0,2.3,0,3.4,0,1.8,0,3.6,0,5.4,0,1.8,0,3.6,0,5.4,0,1.5,0,3-.1,4.4,0-.4,0-.7.1-1.2.3.6,0,1.1.2,1.5.1-.7-.2-1.6-.1-2.4,0-.2-.1-.6.3-.7,0,0,0,0,0,.1,0,1.7.2,3.5-.1,5.2,0,.2-.1.5-.2.7-.8,2.1-2.4,3.3-4.6,3.7-.3,0-.5,0-.8.1h0Z"/>
  <path class="st13" d="M72.4,36c-.2-.2-.5-.2-.8-.2-1.3,0-2.5,0-3.8-.1h2.5c0-.1-1.1-.1-1.1-.1.4-.2.7,0,1.1-.2h-6.5c0,.2.3,0,.5.2h-1.4c0,.1,2.2.1,2.2.1-4.1,0-8.1.4-12.2.3,0-.3.2-.3.4-.3,1.4,0,2.8,0,4.3.2-.5-.1-.9,0-1.3,0,.2-.3.6-.4,1.3-.5,1.1,0,2.1,0,3.2,0,3.8,0,7.6,0,11.3,0,.4,0,.5.1.5.5,0,.2,0,.3.1.4h-.4,0Z"/>
  <path class="st33" d="M114.7,2.9c-.8-.7-1.7-1.2-2.6-1.5,0,0,0,0,0-.1s0,0,0,0c.3-.5.8-.3,1.2-.2,2,.8,3.2,2.3,3.6,4.4,0,.4.1.8.1,1.2v20.9c0,.2,0,.3,0,.5-.3,0-.2-.3-.2-.4-.2-2.6-.1-5.3-.1-7.9v-8.6c0-.2,0-.5,0-.7,0-.2,0-.3,0-.5,0-1.3,0-2.7,0-4,0-.7-.3-1.4-.6-2.1-.3-.5-.5-1-1.2-.9h0Z"/>
  <path class="st80" d="M53.1.6h-3.5c-.2,0-.5,0-.7-.1,2,0,3.9,0,5.9,0s4.5,0,6.7,0c.1,0,.3,0,.4,0,2,0,4.1.1,6.2,0h.1c.2,0,.5,0,.5.2,0,.3-.3.2-.5.2.3,0,.7,0,1,0,.2,0,.5,0,.6.3h-5.3c-.5-.2-1,0-1.5,0-.2,0-.4,0-.4-.2,0-.2.2-.2.3-.2.2,0,.4,0,.6,0-2.4.4-4.8-.2-7.2,0h-2.6c-.3,0-.5,0-.8-.2h0Z"/>
  <path class="st42" d="M91.6.5h.6c0,0,.2,0,.4.1,1,0,2.1,0,3.1,0,.2,0,.3,0,.5,0,.1,0,.3.2,0,.2-.3,0-.1.3-.3.4h-4.2c-1-.2-2,0-3-.1-.2,0-.6.1-.6-.2,0-.4.4-.2.6-.2.3,0,.6,0,.9,0-1.2,0-2.5.2-3.7.1-.2,0-.3,0-.4-.2,0,0,0-.2,0-.2,1.3,0,2.5,0,3.8,0,.7,0,1.5,0,2.2,0h0Z"/>
  <path class="st19" d="M113.2,1c-.3.2-.8,0-1.1.3-.4,0-.8,0-1.2,0h-.3c-.8.1-1.6,0-2.4,0-1.8,0-3.6,0-5.4,0-.1-.4.2-.3.4-.3.7,0,1.4,0,2.1,0,.1,0,.3,0,.4,0-.2,0-.4,0-.3-.2,0-.2.2-.2.4-.2h3.3c.3,0,.6,0,.9,0,.5,0,1,0,1.5,0,.4.1.9,0,1.3.2.2,0,.5,0,.6.2h0Z"/>
  <path class="st21" d="M83.1,1.2h-5.2c-.6-.2-1.2,0-1.7,0-.2,0-.6.2-.5-.2,0-.3.4-.2.6-.2.2,0,.4,0,.5,0-1.5.2-3,.2-4.5,0-.3,0-.6.1-.7-.3h6.4c0,0,0,.1,0,.2,0,0,0,0,0,0,1.2-.1,2.4,0,3.6,0,0,0,0,0,.1.1-.2.4-.6.1-.8.2.6,0,1.2,0,1.8,0,.2,0,.5,0,.6.3h0Z"/>
  <path class="st67" d="M71.6.5c.2.2.4,0,.7.1,1.6,0,3.2.2,4.7.2-.4.2-.8,0-1.3.2.4.2.7,0,1,.1.4,0,.9-.1,1.3.1h-3.6c-.7-.2-1.5,0-2.2,0h-.5c-.1,0-.2,0-.2-.2,0-.1.1-.2.2-.2.2,0,.5,0,.8,0-.9,0-1.7.3-2.6,0-1.2-.3-2.5-.2-3.7-.2-.1,0-.2,0-.2-.2h5.7,0Z"/>
  <path class="st2" d="M65.9.5c.2.2.5.1.7.1,2,0,3.9.2,5.9.2-.3.2-.7,0-1.1.2.3.2.6,0,.9.1.7,0,1.4-.2,2,.1h-4.4c-.4-.3-.9,0-1.4-.1-.4,0-.8,0-1.3,0,.5-.3,1,0,1.4-.3h-.5c-2.1,0-4.1-.2-6.2-.1-.1,0-.3,0-.4-.1h4.4,0Z"/>
  <path class="st53" d="M99.2,36c-.6,0-1.3,0-1.9,0-.4,0-.3-.2,0-.4.3-.3.6-.5.8-1,.3-.7.9-.5,1.5-.5,0,0,.1,0,.2.1.2.5,0,1-.1,1.5,0,.1-.2.2-.3.2h0Z"/>
  <path class="st36" d="M111.3.6h-1.5c-.7.1-1.4,0-2.1,0-3.4.2-6.8.2-10.3.1-1.7,0-3.3,0-5-.2,0,0-.2,0-.3-.1h19.2c.2,0,.4,0,.5.1-.2.1-.4,0-.6,0h0Z"/>
  <path class="st1" d="M116.8,18.1c0,3.1,0,6.2,0,9.3,0,.2,0,.5,0,.7,0,1.2.1,2.4-.2,3.6,0,.2,0,.4-.2.6.4-2,.2-4,.2-6-.3-.3-.2-.7-.2-1.1,0-1.4,0-2.8,0-4.2,0-.9,0-1.8.1-2.7,0,0,.1,0,.2,0h0Z"/>
  <path class="st64" d="M79.3,36.2c.5-.4,1.1-.3,1.6-.3.5,0,.8-.2.9-.7.2-.9.3-1.8,1-2.4.1,0,.2,0,.2.1-.3.5-.4,1.2-.6,1.8,0,.3-.2.7-.5,1-.2.2,0,.3,0,.4-.8,0-1.5.4-2.3.3-.1,0-.3,0-.4-.1h0Z"/>
  <path class="st31" d="M75.4,34.6c.4.2.4.5.3.9,0,.2-.2.3,0,.5-.6,0-1.2,0-1.9,0v-2.6c.2,0,.3,0,.4,0-.1.7.4.8.9.8.2.1.2.2,0,.4-.2,0-.3,0-.5.1-.3,0-.4.1-.4.4,0,.2.1.3.3.4.3,0,.5,0,.6-.3,0-.2,0-.4,0-.6,0,0,0-.2.2-.1h0Z"/>
  <path class="st61" d="M98.1,34.8c0,.4-.4.7-.8.9-.2.1,0,.2,0,.3-.5,0-.9.1-1.3.2-.6.1-1.1,0-1.6-.2-.1-.2-.1-.3,0-.4.8.2,1.6,0,2.4-.1.5-.1.7-.6,1.1-.8,0,0,.2,0,.2.1h0Z"/>
  <path class="st28" d="M78,.6h0c3.8-.1,7.6-.1,11.4-.1,0,0,0,0,0,0s0,0,0,0h-3.9c0,0-.1.1-.2.1-1.2,0-2.5.1-3.7,0-1,0-2,0-3,0-.2,0-.4,0-.6,0h0Z"/>
  <path class="st9" d="M76.9,36c.1-.5-.2-.9-.3-1.3,0-.2-.2-.5-.2-.8.5.4.5,1,.9,1.6.4-.5.3-1.2.8-1.7,0,.5-.2.9-.3,1.2-.3.8-.3.8.5.9-.2,0-.5,0-.7,0-.2,0-.4.1-.6,0,0,0,0,0,0,0h0Z"/>
  <path class="st82" d="M101,35.9c0-.5.1-.9.5-1.2,0,0,0,.2,0,.3,0,.8,0,1,.9.7,0,0,.2,0,.2,0,.1.4.5.2.8.2.2,0,.3,0,.2.3-.5-.2-1-.2-1.5,0-.4.2-.8.2-1.2-.1,0,0-.1,0-.1-.2h0Z"/>
  <path class="st43" d="M84.8,36c.3,0,.4-.3.5-.6,0-.2,0-.4.2-.6,0-.2,0-.5.3-.4.3.1,0,.3,0,.5,0,.3-.3.7-.2.9.1.3.6,0,.9.1,0,0,0,0,.2,0-.6.3-1.1.3-1.7,0h0Z"/>
  <path class="st55" d="M104.5,35.9c.4-.4.4-1,.7-1.5.3.6,0,1,0,1.5.3.2.7-.2.9.2-.5,0-1,.4-1.5,0,0,0,0,0,0-.2h0Z"/>
  <path class="st11" d="M11.9,35.9c-2,0-4.1,0-6.2,0-.2,0-.5,0-.6-.1,0,0,.2,0,.3,0h.5c1.2-.1,2.4,0,3.6,0,.8,0,1.5,0,2.3,0,0,0,.1,0,0,.2h0Z"/>
  <path class="st83" d="M92.2,34.4c.5.3.2.7.1,1-.2.5,0,.5.4.5,0,0,0,0,0,0s0,0,0,0c-.3.3-.6.3-.9,0,0,0-.2,0-.3-.2.1-.5.6-.8.5-1.4,0,0,0-.2.2,0h0Z"/>
  <path class="st86" d="M104.5,35.9s0,0,0,.2c-.2.2-.4.4-.8.2,0-.1-.1-.2-.2-.3-.1-.6.3-1,.3-1.6.4.3.2.6.2.9-.2.7,0,.7.6.7h0Z"/>
  <path class="st14" d="M108.3,35.6c0-.2.2-.2.4-.2h0c-.2.3-.2.5.3.5.4,0,.9-.2,1.3,0-.3,0-.6.1-.9.2-.4.1-.9.2-1.2-.2,0-.1,0-.3.1-.4h0Z"/>
  <path class="st15" d="M91.5,35.9c.1,0,.2,0,.3.1-.5.2-1,.4-1.6,0-.2-.1-.4,0-.7.1,0,0,0,0,0,0,0,0,0-.1.2-.2.5,0,.8,0,.9-.6.3,0,.2.4.4.4.2,0,.4,0,.5.2h0Z"/>
  <path class="st77" d="M76.9,36h.6c-.3.3-.3.9-.9.9-.2,0-.4,0-.4-.2,0-.2.2-.2.3-.2.3,0,.5-.2.4-.5Z"/>
  <path class="st44" d="M108.3,35.6c0,.2,0,.3-.1.4-.5,0-1,.3-1.5.2-.2,0-.5,0-.6-.2.3-.1.6-.1.9-.1.2,0,.4.2.6,0,.2-.1.6.1.7-.3h0Z"/>
  <path class="st7" d="M92.7,36h0c.7-.1,1.5,0,1.8-.9,0,0,.1,0,.2,0,0,.3,0,.4-.3.5-.1,0,0,.2,0,.3-.5,0-1.1,0-1.6,0h0Z"/>
  <path class="st78" d="M101,35.9s0,0,.1.2c-.5,0-1.1-.2-1.6.2-.2.1-.2,0-.3-.2,0,0,.2,0,.2-.1.1,0,.1-.2.2,0,.4.3.9,0,1.3,0h0Z"/>
  <path class="st39" d="M87.7,35.8c0,.3.3,0,.5.1,0,0,0,0,0,0,0,0,0,0,0,0-.1,0-.2.2-.3.2-.4,0-.8.2-1.1-.2.3,0,.6-.2.9-.2h0Z"/>
  <path class="st27" d="M89.4.6h0c.7-.1,1.4-.1,2.1-.1-.7.2-1.4,0-2.1.1Z"/>
  <path class="st8" d="M88.2,36h0c.2-.3.3,0,.5-.1.3.2.6,0,.9.2h0c-.5.4-.9,0-1.4-.1h0Z"/>
  <path class="st8" d="M86.8,36c.3.3.7,0,1.1.2-.4.1-.9.3-1.3-.1,0,0,.1,0,.2,0h0Z"/>
  <path class="st69" d="M111.3.6h.6c.2,0,.4,0,.6.1-.4,0-.9.1-1.3-.1Z"/>
  <path class="st16" d="M5.4,35.8c0,0-.2,0-.3,0-.3,0-.5,0-.8-.2.4,0,.7,0,1,.2h0Z"/>
  <path class="st23" d="M80.2,8.8c-.2,0-.4-.6-.7,0-1.2-.8-2,.7-3.1.6.3-.5.8-.7,1.2-.9,2.8-1.3,5.6-1.5,8.5-.5,2,.6,3.8,1.5,5.8,2,.7.2,1.3.3,2,.3.3.2.7,0,1.1,0,1.3.2,2.7.2,4,0,0,0,0,0,0,0-.9.3-1.8.2-2.6.2-.6,0-1.2,0-1.8-.2-2.6-.4-5.1-1.5-7.6-2.4-2.1-.8-4.2-1.1-6.3-.5-.2,0-.4,0-.6,0,.7-.6,1.6-1,2.2-1.7.8.2,1.3-.8,2.1-.5,0,0,.1,0,.2,0,3-.7,5.8.2,8.5,1.3.7.3,1.5.7,2.2,1,.2.1.8.1.5.7,0,0,0,0,.2.1.6.1,1.2,0,1.7.7,0,0,.2,0,.2,0,.8,0,1.6.1,2.3.4.8.2,1.5.1,2.3.2.2,0,.5,0,.6,0,.1.2-.2.4-.4.5-.3.3-.7.7-1.2.8-.3,0-.5.5-.8.7-2.3,1.2-4.8,1.8-7.4,1.7-.2,0-.4-.2-.4.1-1.5-.2-2.8-.6-4.1-1.3-.2-.1-.4-.3-.6-.5,0,0-.2-.1-.2-.2h0s0,0,0,0c0,0,0,.2,0,.3,0,.4-.1.3-.3.2-.8-.5-1.6-1.1-2.4-1.6-.8-.5-1.6-1.2-2.6-1.4-.1,0-.3,0-.4,0,0,0,0,.2.2.3,0,0-.2,0-.3,0-.4-.2-.8-.4-1.3-.5-.2,0-.4-.2-.4.2,0,.1,0,.2-.2.2h0Z"/>
  <path class="st29" d="M43,25.5c-.2.5-.7.6-1.2.5-.8-.1-1.6-.2-2.4,0-.2,0-.4,0-.5,0s-.4-.2-.4-.4c0-.3.2-.2.4-.2.3-.2.5-.4.5-.8,0-.8.2-1.5.2-2.3,0-1.9.1-3.8,0-5.7,0-.6-.2-1-.7-1.3-.4-.2-.2-.4,0-.5.1,0,.3-.1.4,0,1.4.2,2.8,0,4.3,0,.7,0,1.4,0,2.1,0,1.4,0,2.5,1,2.8,2.4.3,1.1.2,2.1-.3,3.1-.5,1.2-1.4,1.6-2.7,1.4-.1,0-.2,0-.4,0,.2.5.5.7.8.8,1.6.8,2.9,2,4.2,3.3,1.3,1.3,2.6,2.7,3.9,4.1,1.6,1.6,3.5,2.5,5.7,2.8.7,0,1.3,0,1.9-.3.5-.3.8-.7.7-1.3,0-.1-.1-.2,0-.3.1-.1.3,0,.4,0,.7.3.9,1.1.4,1.8-.6.8-1.5,1.1-2.4,1.1-2.2.1-4.1-.5-5.9-1.6-3.9-2.4-7.4-5.3-10.2-8.9-.5-.7-1-1.4-1.1-2.3,0-.2,0-.4,0-.6.2-.2.3-.3.5,0,.5.7,1.2.7,1.7-.1.4-.9.5-1.8.2-2.8-.2-.8-1-1.3-2.1-1.3-.8,0-1.2.4-1.5,1-.3.6-.4,1.3-.4,2,0,1.8,0,3.6.2,5.4,0,.6.2,1.1.9,1.2h0Z"/>
  <path class="st29" d="M57.4,21.7c.8-1.7,1.5-3.2,2.2-4.7.3-.7.6-1.3,1-1.9.2-.3.5-.5.8-.4h2.1c.3,0,.6,0,.6.4-.9.2-1.2.5-1.2,1.5,0,2.5,0,5,0,7.5,0,.6.2,1.2,1,1.2.4,0,.2.2,0,.4-.2.2-.5.3-.8.2-.8-.1-1.6-.2-2.4,0-.2,0-.4,0-.6-.2-.2-.2-.2-.3,0-.4.9-.3,1-.5,1-1.3,0-1.9,0-3.8,0-5.7,0-.1,0-.3,0-.4-.1,0-.2,0-.2.1-.8,2-1.8,3.8-2.7,5.8-.2.4-.5.6-.9.6s-.8,0-1-.6c-.8-1.9-1.8-3.8-2.6-5.7,0-.1,0-.3-.3-.3v4.3c0,.7,0,1.4,0,2.1,0,.6.3,1,.8,1.1.1,0,.3,0,.3.2,0,.2-.1.3-.3.4-.3.2-.7.1-1,0-.6-.1-1.2-.1-1.8,0-.1,0-.3,0-.4,0-.2,0-.5-.1-.5-.4,0-.3.3-.2.4-.2.5-.2.8-.5.8-1.1,0-2.7,0-5.4-.1-8,0-.5-.2-.8-.7-1,0,0-.3,0-.3-.2,0-.2.2-.2.3-.2.9,0,1.8,0,2.8,0,.3,0,.5.3.7.6.8,1.2,1.2,2.6,1.7,3.9.3.8.6,1.6,1,2.5h0Z"/>
  <path class="st29" d="M96.6,18.6c-.2.4,0,.8,0,1.1,0,1.4,0,2.9,0,4.3,0,.7.2,1.1.9,1.2.4,0,.3.2,0,.4-.3.3-.6.2-.9.2-.7-.1-1.4-.2-2.1,0-.3,0-.7,0-.8-.4,0-.2.3-.1.4-.2.5-.1.8-.4.8-.9,0-2.6,0-5.2,0-7.8,0-.5-.5-.8-1.1-.7-.3,0-.6.2-.8.2,0-.9.7-1.6,1.6-1.7,1,0,1.8.3,2.4,1.1.8,1.1,1.4,2.4,2.1,3.5.6.9,1.1,1.9,1.8,2.7.1.2.3.3.5.5v-3.1c0-.8,0-1.5,0-2.3,0-.8,0-1.5-1.1-1.7.4-.5,3.6-.5,4,0-.4,0-.8,0-1,.5-.2.4-.2.8-.2,1.2,0,2.3,0,4.7,0,7,0,1.2,0,1.3,1.2,1.6-.2.5-.6.6-1,.5-.4,0-.8-.2-1.2,0-.8.2-1.1-.2-1.5-.8-1.2-1.9-2.2-3.9-3.5-5.8-.1-.2-.3-.4-.5-.7h0Z"/>
  <path class="st29" d="M27.3,15.1c.7-.7,1.4-.9,2.3-.7,1,.2,1.8.9,2.2,1.8.8,1.8,1.4,3.5,2.2,5.3.4,1,.8,2,1.2,2.9.2.4.4.9.9,1,.3,0,.2.2,0,.3-.3.3-.6.4-1,.3-.9-.1-1.7-.1-2.6,0-.4,0-.7,0-.9-.5.3-.1.7,0,.9-.4.2-.4,0-.7-.1-1-.2-.6-.4-1.2-.7-1.7-.3-.6-.8-.8-1.4-.6-.5.2-.7.6-.6,1.1,0,.5-.1.4-.4.3-.7-.3-1-1.3-.5-1.9.3-.4.8-.7,1.4-.7h1c-.4-1-.8-2-1.2-2.9,0-.1-.1-.3-.2-.2-.2,0-.2.2-.3.3-.6,1.3-1.1,2.5-1.7,3.8-.3.7-.6,1.4-.9,2.1-.3.9-.2,1.2.7,1.5.4,0,.3.2.1.5-.2.3-.5.3-.8.3-.9,0-1.8-.2-2.8-.1-.3,0-.5,0-.5-.4,0-.3.3-.2.4-.2.6-.1,1-.5,1.2-1,1.2-2.2,2.2-4.6,3.1-7,.4-1.2.1-1.7-1-2.2h0Z"/>
  <path class="st29" d="M73.2,25.3c1,0,1.1-.3.8-1.2-.2-.6-.4-1.3-.7-1.9-.3-.5-.8-.8-1.4-.6-.5.2-.7.5-.6,1,0,.6-.2.5-.5.3-.6-.4-.8-1.3-.3-1.8.5-.6,1.2-.7,1.9-.6.4,0,.4,0,.3-.4-.3-.8-.7-1.6-1-2.4,0-.1,0-.3-.2-.3-.2,0-.3.2-.3.3-.5,1.1-1,2.1-1.4,3.2-.4.9-.8,1.7-1.1,2.6-.3.8-.2,1.2.7,1.5.4.1.3.2.1.5-.2.3-.5.3-.8.3-.9,0-1.8-.2-2.7-.1-.3,0-.5,0-.6-.4,0-.3.3-.2.5-.3.5-.1.9-.5,1.2-1,1.2-2.2,2.2-4.6,3.1-6.9.4-1.1.2-1.4-.8-2.1-.3-.2,0-.3,0-.4.7-.5,1.4-.6,2.2-.3.9.3,1.6.9,1.9,1.8.8,1.9,1.5,3.8,2.3,5.7.3.8.6,1.6,1,2.4.2.4.4.8.8,1,.4.2.2.3,0,.4-.2.2-.6.3-.9.2-.8,0-1.7-.1-2.6,0-.4,0-.7,0-.9-.5h0Z"/>
  <path class="st29" d="M86.9,25.4c1-.1,1.1-.3.8-1.3-.2-.6-.4-1.2-.7-1.8-.3-.6-.8-.7-1.3-.5-.5.1-.7.5-.7,1,0,.5-.2.5-.5.3-.7-.4-.8-1.3-.2-1.9.6-.6,1.3-.6,2.2-.5-.4-1.1-.8-2-1.2-3,0-.2-.3-.3-.4,0,0,.1-.2.2-.2.4-.8,1.8-1.6,3.6-2.4,5.5-.4,1-.3,1.3.7,1.6.3.1.2.2.1.4-.2.3-.4.4-.8.4-1,0-1.9-.2-2.9-.1-.2,0-.5-.1-.5-.4,0-.3.2-.2.4-.2.6-.1.9-.5,1.2-.9,1.3-2.2,2.2-4.6,3.1-7,.4-1,.2-1.4-.8-2-.3-.2,0-.3,0-.4.7-.5,1.4-.6,2.2-.4,1,.3,1.6.9,2,1.8.8,1.8,1.4,3.5,2.2,5.3.4.9.7,1.8,1.1,2.7.2.5.4.9.9,1.1.3,0,.2.2,0,.4-.2.2-.5.3-.9.3-.9,0-1.8-.1-2.7,0-.4,0-.7,0-.8-.5h0Z"/>
  <path class="st29" d="M18.2,25.4c-.4.6-.9.6-1.4.5-1-.1-2-.2-2.9,0-.4,0-.9.1-1.2-.4,1.2,0,1.5-.8,1.6-1.7.3-2.2.3-4.5.2-6.7,0-.7-.2-1.5-1.2-1.7-.3,0-.2-.2,0-.3.2-.2.5-.3.8-.3,2.3,0,4.6,0,6.9,0,.3,0,.5,0,.5.4,0,.8.2,1.6,1,2,.1,0,.3.2.2.3,0,0-.2.2-.4.2-.8,0-1.3-.4-1.8-.9-.5-.5-1-.8-1.7-.9-.5,0-.9,0-1.2.3-.6.6-.8,1.7-.4,2.7.3.8,1.1,1.3,1.9,1.3.7,0,.9-.2.9-.9,0-.5.2-.5.5-.4.5.1.8.4.9.9,0,.5-.1,1-.6,1.3-.6.3-1.3.3-1.9.2-.5,0-1-.2-1.4-.4-.5-.2-.5,0-.5.4,0,1,0,2.1.2,3.1,0,.6.3,1.1,1.2,1.2h0Z"/>
  <path class="st63" d="M30,.7h20.7c0,.4-.4.2-.6.2-2,0-4,0-6,0h-16.7,22.2c.3,0,.6-.2.8.2-.3,0-.5,0-.8,0H6.9C3.6,1.2,1.6,3,1.2,6.3c0,2.7,0,5.5,0,8.2,0,4.7,0,9.3,0,13.9,0,.2,0,.5-.2.7-.3-.3-.2-.6-.2-.9V8.3c0-.3,0-.6,0-.9-.1-.6,0-1.2,0-1.8.3-1.7,1.2-3,2.5-4,.9-.5,1.8-.9,2.9-.9,1.3,0,2.5,0,3.8,0h13.7c.5-.1,1.1,0,1.6,0,1.6,0,3.3,0,4.9,0h0Z"/>
  <path class="st66" d="M.7,7.4c.2.2.1.5.1.7v21c.2-.2.1-.4.1-.5,0-7.2.2-14.4.1-21.6,0-.2,0-.4,0-.6,0,.2,0,.5,0,.8,0,7.3,0,14.6,0,21.9,0,2.5.7,4.4,2.9,5.7-1,.1-2.1-.6-2.6-1.6-.3-.7-.7-1.5-.9-2.3,0-.2,0-.5,0-.7V8.1c0-.2,0-.5,0-.7h0Z"/>
  <path class="st26" d="M50.5,1.2c-.2-.2-.5-.1-.8-.1h-22.5c-.2,0-.5,0-.8,0,.2-.2.5-.2.7-.2,7.6,0,15.2,0,22.8,0,.3,0,.5.1.8-.1h2.4c.1,0,.3,0,.4,0-.3.5-.7.1-1,.2.4,0,.8,0,1.2,0,.2,0,.5,0,.5.3h-3.8,0Z"/>
  <path class="st47" d="M60.9,35.2c-.6.2-1.2,0-1.8,0-.9,0-1.8,0-2.7.4h1.3c-1.4.1-2.7.1-4.1.1s-.5,0-.7.1h-11.1c0,0,0-.2,0-.2.3-.2.7,0,1-.1,1.4,0,2.8,0,4.3,0,1.2-.1,2.5.2,3.7.1-.4,0-.9,0-1.4,0,0,0,0-.1,0-.1.5-.2,1-.3,1.5-.3,1.1,0,2.2,0,3.2,0h6.5,0Z"/>
  <path class="st11" d="M28,35.9h-11.3s0,0,0,0c0,0,0,0,0,0h1.5c.2-.2.6-.2.9-.2,1.2,0,2.3,0,3.5,0,1.6,0,3.2,0,4.7.2-.4,0-.8,0-1.3,0,.3-.3.6-.5,1.2-.5.8,0,1.6,0,2.4,0h4.8c0,.3-.4.3-.6.3-.8,0-1.5,0-2.3,0-.2,0-.5.2-.8.2.3,0,.6,0,.9,0,.2,0,.5,0,.5.3-1.4,0-2.7,0-4.1,0h0Z"/>
  <path class="st16" d="M29.6,35.2c-.5.2-1,.1-1.5,0-.7,0-1.3,0-2.1.4h1.5c0,.1-4.9.1-4.9.1-.6-.2-1.2,0-1.9-.2.6-.3,1.1-.3,1.5-.4.8,0,1.6,0,2.4,0h5Z"/>
  <path class="st22" d="M114.7,2.9c.6-.3.9,0,1.2.5.5.7.7,1.5.8,2.2-.2.9,0,1.8-.2,2.6-.2-.7,0-1.3-.1-2,0,.5,0,1,0,1.4s0,.3-.2.3c-.2-.7,0-1.4-.1-2,0-1.2-.7-2.2-1.4-3.1h0Z"/>
  <path class="st84" d="M24.6,35.2c-.5.2-1.1.1-1.6,0-.7,0-1.3.3-2.2.3.7.2,1.2,0,1.8.2h-4.4c-.3-.3-.8,0-1.1-.2,0-.3.6.2.3-.3.6-.2,1.3,0,1.9-.1h5.3,0Z"/>
  <path class="st38" d="M47.3,35.8h-4.4c-.3-.1-.7,0-1,0-.2,0-.4,0-.4-.1,0-.2.2-.2.4-.2,1.1-.4,2.2,0,3.3-.2h4.8c-.1.4-.4.3-.7.3-.8,0-1.5,0-2.3,0-.4,0-.8.3-1.2.2.3,0,.6,0,1,0,.2,0,.5,0,.6.2h0Z"/>
  <path class="st0" d="M47.3,35.8c-.6-.3-1.3,0-2-.2.9,0,1.7-.4,2.5-.3.7,0,1.4.2,2.1,0h4.4c-.5.2-1,0-1.5,0-.8,0-1.5,0-2.3,0,0,.2.2,0,.2.2-.3.1-.7,0-1.1.2h1.6c0,.1-3.9.1-3.9.1h0Z"/>
  <path class="st81" d="M56.5.6c2.4,0,4.8.2,7.4.1-.4.2-.8,0-1.1.3.6.3,1.3,0,1.9.3h-4c-.6-.2-1.2,0-1.8,0-.2,0-.4,0-.4-.2,0-.2.2-.2.3-.2h.6c-.8,0-1.6.2-2.4.1-.2,0-.3,0-.4-.1,0,0,0-.1,0-.2h0Z"/>
  <path class="st62" d="M45.2,35.2c-.6.2-1.3.1-1.9,0-.6,0-1.2.1-1.7.3.5.2.9-.1,1.4.2h-1c-.9.1-1.9,0-2.8,0-.6-.1-1.1,0-1.7,0-.1,0-.3,0-.3-.2s.2-.2.3-.2c.3,0,.6,0,.9.2,0-.1-.3,0-.2-.2,0-.1.2-.1.2-.1h2.8c.2,0,.5,0,.7,0h3.4,0Z"/>
  <path class="st27" d="M102.6,1.2c2.4,0,4.7,0,7.1,0,.3,0,.6,0,.9,0-.2,0-.3,0-.5,0h-18.3c-.2,0-.3,0-.5,0,.1-.1.3,0,.4,0h4.4c.2-.2.5-.2.7-.2h5.1c.2,0,.5,0,.7.2h0Z"/>
  <path class="st54" d="M41.8,35.2c-.6.2-1.1,0-1.7,0-.6,0-1.3,0-1.9,0,0,.2.2,0,.2.2h-1.2c.6.3,1.3,0,1.9.2-1.1.1-2.2,0-3.3,0-.5-.1-1,0-1.4,0-.1,0-.3,0-.4-.2,0-.2.2-.2.4-.2.4.1.7-.3,1.1-.2.5,0,1,0,1.6,0s.3,0,.4,0h4.4Z"/>
  <path class="st32" d="M37.4,35.2c-.5.2-1.1.1-1.7,0-.6,0-1.1.4-1.7.3.5.2,1.1,0,1.6.2-1.2,0-2.3,0-3.5,0-.6-.3-1.2,0-1.8-.2.3-.2.6,0,.9,0,0-.2-.2,0-.2-.2,0,0,0,0,0,0h2.7c.2,0,.4,0,.6-.1h3Z"/>
  <path class="st52" d="M83.1,1.2c-.3-.3-.8-.1-1.1-.1-.6,0-1.3,0-1.9,0,.5-.4,1.1,0,1.5-.3,1.3,0,2.6,0,3.9,0h.4c-.2.5-.6,0-.8.2.5,0,1.1,0,1.6,0,.2,0,.5,0,.6.3-1.4,0-2.8,0-4.2,0h0Z"/>
  <path class="st66" d="M19.3,35.2c-.6.2-1.2,0-1.9.1H7.2c-.5,0-1,.3-1.6.1-.2,0-.4,0-.6-.2,0,0,.2-.1.3-.2.7.1,1.5.1,2.2.1,4,0,7.9,0,11.9,0h0Z"/>
  <path class="st25" d="M87.3,1.2c-.7-.3-1.4,0-2.1-.1-.3,0-.6,0-.9-.2.5-.2,1.1,0,1.6-.2h4c0,.1-1.7.1-1.7.1,0,.3.3.2.4.2.8,0,1.6,0,2.4,0s.4,0,.6,0c-.1,0-.3,0-.4,0h-4Z"/>
  <path class="st35" d="M102.7,35.6c-.1,0-.2.2-.3.2-.3.2-.6.1-.9,0-.3-.2-.2-.5-.1-.7,0-.1,0-.3.1-.4,0,0,.1-.1.2-.2.2,0,.4-.2.6-.2.6.3.7.6.5,1.3h0s0,0,0,0Z"/>
  <path class="st75" d="M56.5.7h.4c-.2.2-.5.3-1.1.2.3,0,.6,0,.9,0,.2,0,.4,0,.4.2h-2.9c-.5-.3-1,0-1.5-.1-.2,0-.5,0-.7-.2.5-.2,1,0,1.4-.2,1,0,2,0,3,0Z"/>
  <path class="st12" d="M57.1,1.2c-.5-.3-1.1,0-1.8-.2.5-.3,1.1,0,1.5-.3h2.9c-.5.2-.9,0-1.3.2.3.2.7,0,1,.1.4,0,.8-.1,1.2.1h-3.5,0Z"/>
  <path class="st50" d="M89.5,36.1c-.3,0-.7.2-.9-.2.2-1,.3-2.1,1.1-2.9,0,.2-.1.4-.2.6-.2.5-.2.9.6.8-.6,0-.9.2-1,.8-.2.7-.2.7.5.7,0,0,0,.2-.1.2h0Z"/>
  <path class="st76" d="M97.7,34c.6,0,.7-.4.6-.9,0-.3-.1-.7-.2-1,0-.2,0-.4.2-.4.2,0,.2.2.2.4,0,.4,0,.8,0,1.2-.1.5,0,.8.5.8-.5.2-1,.3-1.4,0h0Z"/>
  <path class="st10" d="M97.7,34h1.4c.2,0,.3,0,.5,0,.4-.2.1-.5.3-.8h0c.2,0,.2.1.2.3,0,.2,0,.4,0,.5h.5c-.2.2-.4.3-.6.3-.2.2,0,.5-.2.7,0,0,0,0,0,0-.2,0-.2,0-.2-.2,0-.2,0-.4,0-.5h0c-.6-.1-1.1-.1-1.7.1-.4,0-.9,0-1.3,0,0,0-.2,0-.2-.2.4-.1.8-.2,1.2-.2h0Z"/>
  <path class="st70" d="M107.5,35.9c-.2.2-.4,0-.6,0,.2-.2.3-.4,0-.6-.2-.2-.4-.3-.6,0,.2-.4.3-.8,1-1-.2.3-.3.6,0,.9.2.2.1.4,0,.6-.2.3.1.2.2.2h0Z"/>
  <path class="st49" d="M80.1,32.9c-.3.3-.3.6-.1,1,.1.3.4.6.3,1-.8-.7-.9-1.5-.2-2.1.1,0,.2,0,.1.1Z"/>
  <path class="st9" d="M75,34.7c.1,0,.2-.2,0-.3,0-.5,0-.8-.6-.8,0,0-.2,0-.3-.1,0-.1-.2-.1-.4-.1.5-.3,1-.2,1.4,0,.4.1.4.5.3.9,0,.1-.2.2,0,.4,0,0,0,0-.1.1-.2,0-.2,0-.3-.1h0Z"/>
  <path class="st56" d="M84.3,32c.8.4,1,.9.7,1.8-.3,0,0-.4-.2-.5-.1-.5-.3-.9-.8-1.1,0-.3.2-.2.3-.2h0Z"/>
  <path class="st39" d="M87.7,35.8c0-.4,0-.9-.8-.7.3-.4.4-.8,1.1-.8-.4.3-.3.5-.2.8.2.2.1.5-.1.7h0Z"/>
  <path class="st49" d="M100.1,34c-.3-.2,0-.6-.3-.8,0-.5.2-1,.4-1.5.2,0,.2.1.1.3,0,.7-.3,1.3-.2,2h0Z"/>
  <path class="st5" d="M80.1,32.9s0,0-.1-.1c.7-.6,1.5-.7,2.3-.8,0,0,.2,0,.2.1-.8.2-1.7.3-2.4.9h0Z"/>
  <path class="st37" d="M102.7,35.7c0-.5.1-1.1-.6-1.3,0,0,0,0,0,0,0,0,0,0,0,0,.4,0,.7,0,.9.4.2.4,0,.7-.3,1h0Z"/>
  <path class="st71" d="M90.8,35.9c-.3,0,0-.5-.3-.6.4-.8,1-1.1,1.7-.9,0,0,0,0-.1.1,0,0,0,0,0,0-.7.2-1.1.6-1.2,1.3h0Z"/>
  <path class="st49" d="M84.4,34.5c-.6.4-1.2.4-1.9,0,.7-.3,1.4.1,1.9-.3,0,0,0,.1,0,.2h0Z"/>
  <path class="st30" d="M94.9,10.3c-.3,0-.7,0-1-.1.2,0,.5,0,.7-.1.6,0,1.2,0,1.8.1-.4.3-.9.1-1.4.1Z"/>
  <path class="st51" d="M116.1,6c.2.7,0,1.3.1,2,.2.3.2.6,0,.9h0c0-1,0-1.9,0-2.9h0Z"/>
  <path class="st48" d="M82.5,32c0,0-.2,0-.2-.1.7,0,1.4-.2,2,0-.1,0-.2,0-.3.2-.5-.2-1-.1-1.5-.1h0Z"/>
  <path class="st45" d="M108.7,35.4c0-.2-.2-.4,0-.7.2.3.5.3.9.4-.2.3-.5.3-.8.3h0Z"/>
  <path class="st49" d="M99.6,34.3c.3.2,0,.6.3.8,0,.3,0,.5-.2.8,0,0,0,.3-.2,0,0-.5.2-1.1.1-1.6h0Z"/>
  <path class="st73" d="M96.5,34.2s0,0,.2.1c-.4.4-.9.5-1.4.6,0,0-.1,0-.1-.1.4-.3.9-.5,1.4-.6h0Z"/>
  <path class="st41" d="M85.8,34c0-.3-.1-.5.1-.7,0,0,.2,0,.3,0,0,.3-.2.4-.4.7Z"/>
  <path class="st9" d="M108.8,34.5c.2-.1.4,0,.6,0s.3,0,.3,0c0,0,0,.1,0,.2-.1.1-.2.1-.4,0-.2,0-.3-.1-.5-.2Z"/>
  <path class="st68" d="M84.4,34.5v-.2c.3-.3.4-.7.4-1.1.2.1,0,.4.2.5,0,.3-.3.6-.6.7Z"/>
  <path class="st58" d="M100.4,32c0,0,0-.2-.1-.3,0-.2.2-.5.5-.8-.2.4-.3.7-.4,1h0Z"/>
  <path class="st66" d="M5,35c-.4.1-.6,0-.7-.2.2,0,.5,0,.7.2Z"/>
  <path class="st34" d="M92.9,13.1c0-.1,0-.3-.2-.5.3,0,.4.2.6.3-.2,0-.3,0-.4.1Z"/>
  <path class="st27" d="M110.9,1.2c.4,0,.8,0,1.2,0v.2c-.4,0-.8,0-1.2-.1h0Z"/>
  <path class="st49" d="M99.8,33.3c0,.3.2.7-.3.8.2-.2,0-.5.3-.8Z"/>
  <path class="st74" d="M102.1,34.3h0c-.1.2-.2.3-.4.2.1-.2.2-.3.4-.2h0Z"/>
  <path class="st73" d="M94.7,35.1h-.2c.1-.2.3-.3.5-.4,0,0,0,0,0,0,0,.2-.1.4-.4.3h0Z"/>
  <path class="st72" d="M80.2,8.8s.1,0,.2-.2c0,0,.2.2.2.3-.1.1-.2,0-.3-.1h0Z"/>
  <path class="st6" d="M88,10.9c0,.1,0,.2.1.4,0,0,0,0-.1.1-.1,0-.1-.2-.1-.4,0-.1,0-.2.1-.1Z"/>
  <path class="st49" d="M99.9,34.9c0-.2-.1-.5.2-.7,0,.2,0,.5-.2.7Z"/>
  <path class="st79" d="M82.1,8.9c0,0,.2,0,.3,0,0,0,0,.1.1.2-.2.1-.3,0-.4-.2Z"/>
  <path class="st4" d="M82.9,32.9s0,0-.2-.1c0-.1.2-.3.3-.1,0,0,0,.2-.2.3h0Z"/>
  <path class="st46" d="M.7,7.4v22.6c0,.2,0,.5-.1.7V5.6c.2.6,0,1.2.1,1.8h0Z"/>
  <path class="st66" d="M11.9,35.8c-2,0-4,0-6,0,.2-.2.4-.1.6-.1h9.2c.2,0,.4,0,.6.1-1.5.1-2.9,0-4.4,0Z"/>
  <path class="st16" d="M11.9,35.8h4.8c-1.6.1-3.2.1-4.8.1h0c0-.1,0-.1,0-.1Z"/>
  <path class="st66" d="M8.5,35.4h4s-4,0-4,0h0Z"/>
  <path class="st66" d="M8,35.5c-.1,0-.3,0-.4,0,.2,0,.3,0,.4,0Z"/>
  <path class="st38" d="M32.1,35.8h9.8c-4.7.1-9.3.1-13.9.1.3-.2.7,0,1.1-.1,1,0,2,0,3,0h0Z"/>
  <path class="st26" d="M30,.7h-6.5c.1-.2.3-.1.5-.1h5.6c.2,0,.3,0,.5.1Z"/>
  <path class="st26" d="M9.8.7h-3.8c.3-.2.6-.1.9-.1,1,0,1.9-.2,2.9.1Z"/>
  <path class="st12" d="M56.5.7h-3.4c1.1-.1,2.3-.1,3.4-.1h0c0,.1,0,.1,0,.1Z"/>
  <path class="st1" d="M116.7,9.9v.4c.1,1,0,2,0,3,0,.7,0,1.4,0,2-.1,1.2,0,2.4-.1,3.5,0,.2,0,.4-.2.7-.1-.8,0-1.5,0-2.2v1.6c0,.1,0,.3-.2.3v-5.4c.1-.7,0-1.4.2-2.1.2.6,0,1.2.1,1.7,0-.8-.1-1.8-.1-2.7s-.1-.6.3-.7h0Z"/>
  <path class="st17" d="M116.2,19.2c.3-.7,0-1.5.2-2.2v2.5h.1v-3.4c0-.2,0-.5.1-.7.1.9,0,1.8,0,2.6v2.8c-.2,1.1,0,2.2,0,3.2,0,.2,0,.4-.2.6-.1-.7,0-1.3,0-1.9v1.5c0,.1,0,.3-.2.3v-5.4h0Z"/>
  <path class="st60" d="M116.7,9.9c-.2.2-.1.6-.1.8,0,1,0,2-.1,2.9v-1.9c-.2.7,0,1.3-.2,2,0-1.6,0-3.3,0-4.9,0-.3,0-.6,0-.9.3-.6,0-1.2.2-1.8v2c.3-.8,0-1.7.3-2.5v4.3h0Z"/>
  <path class="st51" d="M116.2,24.6c.3-.7,0-1.4.2-2.1v2.1h.1v-3.1c0-.2,0-.5.1-.7v5.3c-.2.3-.1.7-.1,1.1,0,.8,0,1.6-.1,2.4v-1.6h-.1v1.3h-.1v-4.8h0Z"/>
  <path class="st60" d="M116.7,18.1v-7.8c.2.2.1.4.1.6v7.2h-.1Z"/>
  <path class="st69" d="M102.6,1.2h-6.5c-.2-.2-.5,0-.7-.2.2-.2.6,0,.8-.2h-3c-.2,0-.5,0-.7-.1h17.3c-.2.2-.4.1-.7.1h-3.9c.5.2.9,0,1.2.2,0,.3-.2.2-.4.2-.9,0-1.9,0-2.8,0s-.4,0-.6,0h0Z"/>
  <path class="st25" d="M85.5.7h-3.9s0,0,0,0c0,0,0,0,0,0h3.9Z"/>
  <path class="st52" d="M81.6.6h0c0,.1-4.4.1-4.4.1.3-.2.5,0,.7-.1h3.6Z"/>
  <path class="st49" d="M98,34.2c.5-.1,1.1-.2,1.6,0-.1,0-.3,0-.4,0-.5,0-.9,0-1.1.5,0,0,0,0,0-.1-.2-.1,0-.3,0-.4h0Z"/>
  <path class="st59" d="M75,34.7c0,0,.2,0,.3.1.2.3.3.6,0,.8-.3.2-.7.2-1,0-.3,0-.2-.5-.2-.7,0-.2,0-.3.3-.3h.6Z"/>
  <path class="st24" d="M74.1,33.5c.1,0,.3,0,.4,0,.2,0,.5,0,.6.3.1.3,0,.4-.2.6h-.2c-.9,0-.9,0-.7-.9h0Z"/>
  <path class="st40" d="M98,34.2c.2.1,0,.3,0,.4-.9,1.1-2.6,1.6-3.6,1,0-.2.2-.3.3-.5.1-.1.3-.2.4-.3.5-.2,1-.3,1.5-.5.5,0,.9,0,1.3,0h0Z"/>
  <path class="st3" d="M90.8,35.9c0-.9.2-1.3,1.2-1.4.3.6-.2,1-.5,1.4h-.7Z"/>
  <path class="st18" d="M94.9,10.3c.5,0,.9.1,1.4-.1,1,0,2,0,2.9,0-1.4.3-2.9.4-4.3.2Z"/>
  <path class="st65" d="M88,10.9s0,0-.1.1c0-.1-.2-.2,0-.3.1,0,.1.1.1.2Z"/>
</svg>