<?xml version="1.0" encoding="UTF-8"?>
<svg id="Layer_1" xmlns="http://www.w3.org/2000/svg" version="1.1" xmlns:xlink="http://www.w3.org/1999/xlink" viewBox="0 0 102.4 43.1">
  <!-- Generator: Adobe Illustrator 30.2.0, SVG Export Plug-In . SVG Version: 2.1.1 Build 105)  -->
  <defs>
    <style>
      .st0 {
        fill: none;
      }

      .st1 {
        fill: #4a1533;
      }

      .st2 {
        clip-path: url(#clippath-1);
      }

      .st3 {
        fill: #fdcfad;
      }

      .st4 {
        clip-path: url(#clippath-2);
      }

      .st5 {
        clip-path: url(#clippath);
      }
    </style>
    <clipPath id="clippath">
      <rect class="st0" x="0" y="0" width="102.4" height="43.1"/>
    </clipPath>
    <clipPath id="clippath-1">
      <rect class="st0" x="-26.9" y="-27.3" width="164.6" height="98.8"/>
    </clipPath>
    <clipPath id="clippath-2">
      <rect class="st0" x="-26.9" y="-27.3" width="164.6" height="98.8"/>
    </clipPath>
  </defs>
  <g class="st5">
    <g class="st2">
      <g>
        <rect class="st1" x="-26.9" y="-27.3" width="164.6" height="98.8"/>
        <g class="st4">
          <g>
            <path class="st3" d="M27.9,38.9c0,.2,0,.4-.1.5s-.2.2-.4.2h-.5v.4c0,0,.2,0,.3,0s.2,0,.4,0c.3,0,.5,0,.7-.3.2-.2.3-.4.3-.7v-2.9h-.5v2.8h0Z"/>
            <polygon class="st3" points="32 36 31.5 36 31.5 39.9 32 39.9 32 39.9 34 39.9 34 39.4 32 39.4 32 38.1 33.4 38.1 33.4 37.7 32 37.7 32 36.5 34 36.5 34 36 32 36 32 36"/>
            <polygon class="st3" points="40.1 39 39.3 36 38.8 36 38 39 37.1 36 36.5 36 37.8 39.9 38.1 39.9 39 36.9 39.9 39.9 40.2 39.9 41.5 36 41 36 40.1 39"/>
            <polygon class="st3" points="44.8 36 44.3 36 44.3 39.9 44.8 39.9 44.8 39.9 46.8 39.9 46.8 39.4 44.8 39.4 44.8 38.1 46.2 38.1 46.2 37.7 44.8 37.7 44.8 36.5 46.8 36.5 46.8 36 44.8 36 44.8 36"/>
            <polygon class="st3" points="50.2 36 49.7 36 49.7 39.9 50.2 39.9 50.2 39.9 51.8 39.9 51.8 39.4 50.2 39.4 50.2 36"/>
            <polygon class="st3" points="55.1 36 54.6 36 54.6 39.9 55.1 39.9 55.1 39.9 56.8 39.9 56.8 39.4 55.1 39.4 55.1 36"/>
            <polygon class="st3" points="60 36 59.5 36 59.5 39.9 60 39.9 60.1 39.9 62 39.9 62 39.4 60.1 39.4 60.1 38.1 61.5 38.1 61.5 37.7 60.1 37.7 60.1 36.5 62 36.5 62 36 60.1 36 60 36"/>
            <path class="st3" d="M67.8,37.1c0-.3-.1-.6-.3-.8s-.5-.3-.9-.3h-1.6v3.8h.5v-1.7h.9l.9,1.7h.6l-.9-1.7c.2,0,.4-.1.5-.2.2-.2.4-.5.4-.8M67.1,37.6c-.1.1-.3.2-.6.2h-1v-1.3h1c.2,0,.5,0,.6.2.1.1.2.3.2.5s0,.4-.2.5"/>
            <path class="st3" d="M73,38c-.1,0-.3-.2-.4-.2s-.3-.1-.5-.2-.3,0-.4-.2-.2-.1-.3-.2c0,0-.1-.2-.1-.3,0-.2,0-.3.2-.4.1-.1.3-.2.6-.2s.4,0,.5.2c.1,0,.3.2.4.4l.4-.2c-.1-.2-.3-.4-.5-.6-.2-.1-.5-.2-.8-.2s-.5,0-.7.1-.3.2-.4.4c-.1.2-.2.3-.2.5s0,.3.1.5c0,.1.2.2.3.3s.3.2.4.2.3.1.5.2.3.1.4.2.2.1.3.2c0,0,.1.2.1.3s0,.3-.2.4-.4.2-.6.2-.4,0-.6-.2c-.2-.1-.3-.3-.4-.5l-.5.2c.1.3.3.5.6.7.3.2.6.2.9.2s.5,0,.7-.1.4-.2.5-.4c.1-.2.2-.4.2-.6s0-.3-.1-.5c0-.1-.2-.2-.3-.3"/>
            <path class="st3" d="M16.8,26.5h0v-.5c0,0,0-.2,0-.5,0-.2,0-.4,0-.5s0-.3.1-.4c0-.2.1-.3.2-.4,0,0,.2-.2.3-.2h-2.8c.1,0,.2.1.3.2,0,0,.2.2.2.4,0,.2,0,.3.1.4s0,.3,0,.5c0,.2,0,.4,0,.5v1.8h-4.8v-1.9c0,0,0-.2,0-.5,0-.2,0-.4,0-.5s0-.3.1-.4c0-.2.1-.3.2-.4,0,0,.2-.2.3-.2h-2.8c.1,0,.2.1.3.2,0,0,.2.2.2.4,0,.2,0,.3.1.4,0,.1,0,.3,0,.5,0,.2,0,.4,0,.5v3.9c0,0,0,.2,0,.4,0,.2,0,.3,0,.5,0,.1,0,.2,0,.4,0,.2,0,.3-.1.4,0,0-.1.2-.2.3,0,0-.2.2-.3.2h2.8c-.1,0-.2-.1-.3-.2s-.2-.2-.2-.4c0-.2-.1-.3-.1-.4s0-.3,0-.5c0-.2,0-.3,0-.5v-1.9h4.8v1.8c0,0,0,.3,0,.5,0,.2,0,.4,0,.5s0,.3-.1.4-.1.3-.2.4c0,0-.2.2-.3.2h2.8c-.1,0-.2-.1-.3-.2s-.2-.2-.2-.4c0-.2,0-.3-.1-.4s0-.3,0-.5c0-.2,0-.3,0-.5s0-.2,0-.4v-3.1h0Z"/>
            <path class="st3" d="M24.8,24.3c.3,0,.5,0,.8,0,.2,0,.5,0,.8.1.3,0,.6.2.8.3.2.1.4.3.6.5,0-.2,0-.4,0-.5,0-.1,0-.3-.1-.4s-.1-.2-.2-.2c-.1,0-.2,0-.4-.1-.2,0-.4,0-.6,0h-7.1c.1,0,.9.4.8,1.8v3.2c0,.2,0,2.5-.7,3,0,0,0,0-.1,0,.6,0,1.6-.5,4.5,0,.5,0,1,0,1.5,0,.5,0,.9,0,1.3-.3.2,0,.4-.2.5-.3,0,0,.2-.1.3-.2,0,0,.1-.2.2-.3-.3.2-.6.2-1,.2-.6,0-1.2-.1-1.8-.2-.6,0-1.2-.2-1.8-.2-.1,0-1.6,0-1.6,0v-2.6h2.7s.1,0,.2,0c.1,0,.2,0,.2,0,0,0,.1,0,.2,0s.2,0,.2,0c0,0,.1,0,.2.1s.1.1.2.2c0,0,.1.2.2.2,0,0,.1.2.2.3v-2.4c0,.1-.1.3-.2.4,0,.1-.1.2-.2.3,0,0-.1.1-.3.2-.1,0-.2,0-.3.1,0,0-.2,0-.3,0-.1,0-.2,0-.3,0h-2.9v-3.5h3.4,0Z"/>
            <path class="st3" d="M37.5,31c-.4.3-1,.3-1.4.2-.5,0-1-.1-1.5-.2-.6,0-1.2-.2-1.8-.2-.1,0-1.6,0-1.6,0v-2.6h2.7s.1,0,.2,0c.1,0,.2,0,.2,0,0,0,.1,0,.2,0s.2,0,.2,0c0,0,.1,0,.2.1s.1.1.2.2c0,0,.1.2.2.2,0,0,.1.2.2.3v-2.4c0,.1-.1.3-.2.4,0,.1-.1.2-.2.3,0,0-.1.1-.3.2-.1,0-.2,0-.3.1,0,0-.2,0-.3,0-.1,0-.2,0-.3,0h-2.9v-3.5h3.4c.3,0,.5,0,.8,0,.2,0,.5,0,.8.1.3,0,.6.2.8.3.2.1.4.3.6.5,0-.2,0-.4,0-.5,0-.1,0-.3-.1-.4s-.1-.2-.2-.2c-.1,0-.2,0-.4-.1-.2,0-.4,0-.6,0h-7.1c.1,0,.9.4.8,1.8v3.2c0,.2,0,2.5-.7,3,0,0,0,0-.1,0,.6,0,1.6-.5,4.5,0,.5,0,1,0,1.5,0,1.6-.1,2.1-.7,2.3-1"/>
            <path class="st3" d="M47.5,31.4c-.3,0-.6-.2-.8-.3-.3-.2-.5-.3-.8-.5-.5-.3-1-.6-1.5-.7-.2,0-.4,0-.5-.1-.1,0-.2,0-.4,0,.6,0,1.2-.2,1.7-.3.5-.2.9-.4,1.2-.7.3-.3.5-.5.7-.9s.2-.7.3-1c0-.6-.2-1.2-.6-1.7-.4-.5-1-.8-1.7-1-.5-.1-1.6-.2-3.1-.2h-3.5c.1,0,.2.1.3.2,0,0,.2.2.2.4,0,.2,0,.3.1.4s0,.3,0,.5c0,.2,0,.4,0,.5v4c0,0,0,.3,0,.5,0,.2,0,.4,0,.5s0,.3-.1.4-.1.3-.2.4c0,0-.2.2-.3.2h2.8c-.2,0-.3-.2-.4-.4-.1-.2-.2-.4-.2-.6,0-.2,0-.4,0-.6,0-.2,0-.4,0-.6,0-.1,0-2,0-5.5h1.4c.2,0,.4,0,.7,0,.3,0,.6,0,.8,0,.2,0,.4,0,.6,0,.2,0,.4,0,.6.2.2,0,.4.2.6.4.2.2.3.3.4.5s.2.4.2.6c0,.2,0,.4,0,.7s0,.4-.1.6-.1.4-.2.5c0,.2-.2.3-.4.4-.1.1-.3.2-.4.3s-.3.2-.5.3-.4.2-.5.2c-.1,0-.3.1-.6.2-.2,0-1.3.1-1.4.1.4,0,1.7.7,3,1.7.5.4,1.2.7,2,.8.5,0,.9,0,1.3-.3.2,0,.4-.2.5-.4.2-.2.3-.3.4-.5-.3.4-.9.6-1.4.5"/>
            <path class="st3" d="M67.5,29.9c0-.4-.2-.8-.6-1.1-.4-.3-.9-.6-1.7-.7.3,0,.5,0,.8-.2.5-.2.9-.6,1-1.2.2-.6,0-1.1-.3-1.6-.6-.7-1.5-1-2.9-1h-5.1c.1,0,.2.1.3.2,0,0,.2.2.2.2,0,0,.1.2.1.3,0,.1,0,.2,0,.3,0,0,0,.2,0,.4,0,.2,0,.3,0,.3v4.1c0,0,0,.2,0,.5,0,.2,0,.4,0,.5s0,.3-.1.4c0,.2-.1.3-.2.4s-.2.2-.4.3c.6,0,1.3,0,2.1,0,.8,0,1.6,0,2.5,0s1.6,0,2-.1c.7-.1,1.3-.4,1.7-.7.4-.4.6-.8.6-1.3M65.8,30.7c-.2.2-.4.4-.7.6s-.6.2-.9.3c-.3,0-.7.1-1.1.1h-2.3v-7.4h2.4c.7,0,1.2.2,1.7.5s.7.8.7,1.4c0,.2,0,.4-.1.5,0,.2-.1.3-.2.4,0,.1-.2.2-.4.3-.1,0-.3.2-.4.2-.1,0-.3.1-.5.2-.2,0-.3,0-.5.1-.1,0-.3,0-.5,0,.2,0,.5,0,.7,0,.2,0,.5,0,.8.2.3,0,.6.2.8.3.2.1.4.3.6.5s.2.5.2.8c0,.3-.1.5-.3.8"/>
            <path class="st3" d="M76.5,26.5h0v-.5c0,0,0-.2,0-.5,0-.2,0-.4,0-.5s0-.3.1-.4c0-.2.1-.3.2-.4,0,0,.2-.2.3-.2h-2.8c.1,0,.2.1.3.2,0,0,.2.2.2.4,0,.2,0,.3.1.4s0,.3,0,.5c0,.2,0,.4,0,.5v1.8h-4.8v-1.9c0,0,0-.2,0-.5,0-.2,0-.4,0-.5s0-.3.1-.4c0-.2.1-.3.2-.4,0,0,.2-.2.3-.2h-2.8c.1,0,.2.1.3.2,0,0,.2.2.2.4,0,.2,0,.3.1.4,0,.1,0,.3,0,.5,0,.2,0,.4,0,.5v3.9c0,0,0,.2,0,.4,0,.2,0,.3,0,.5,0,.1,0,.2,0,.4,0,.2,0,.3-.1.4,0,0-.1.2-.2.3,0,0-.2.2-.3.2h2.8c-.1,0-.2-.1-.3-.2s-.2-.2-.2-.4c0-.2-.1-.3-.1-.4s0-.3,0-.5c0-.2,0-.3,0-.5v-1.9h4.8v1.8c0,0,0,.3,0,.5,0,.2,0,.4,0,.5s0,.3-.1.4-.1.3-.2.4c0,0-.2.2-.3.2h2.8c-.1,0-.2-.1-.3-.2s-.2-.2-.2-.4c0-.2,0-.3-.1-.4s0-.3,0-.5c0-.2,0-.3,0-.5v-3.5h0Z"/>
            <path class="st3" d="M91,24h-2.8c.1,0,.2.1.3.2,0,0,.1.2.2.3.3.5.2,1.2.3,1.7,0,.6,0,1.3,0,1.9v1.5c0,.6,0,1.2-.2,1.7,0,.2-.1.3-.2.4,0,0-.2.3-.4.3h2.8c-.3-.2-.5-.5-.6-.9-.1-.5-.1-1-.1-1.5v-3.1c0-.6,0-1.3.2-1.9.1-.2.3-.5.5-.6"/>
            <path class="st3" d="M57.4,32h.7c-.1,0-.2-.1-.3-.2,0,0-.1-.2-.2-.3,0-.1,0-.2-.1-.4s0-.2,0-.4,0-.3,0-.4v-.4h0c0,0,.1-1.7.1-1.7h0c0-.3,0-.7,0-1-.1-.7-.3-1.2-.7-1.7-.7-1-1.9-1.5-3.5-1.5-.9,0-1.6,0-2.2.2s-1.1.4-1.4.7c-.2.2-.3.4-.3.6,0,.2,0,.4.2.5s.4.2.6.1c0-.2,0-.5.2-.7.1-.2.3-.4.5-.5.2-.2.5-.3.7-.4.3-.1.6-.2.9-.2.3,0,.6,0,1,0,.2,0,.5,0,.7.2.2,0,.5.2.6.3.2,0,.4.2.5.3s.3.3.4.4c0,.1.1.3.1.4,0,.1,0,.3-.1.4s-.2.2-.4.3-.5.2-.8.2-.8,0-1.2,0c-.8,0-1.4,0-2,.2-.6.1-1,.3-1.4.6s-.6.5-.8.8c-.2.3-.2.6-.2.9,0,.8.4,1.4,1.1,1.8.7.5,1.8.7,3.2.7s1.3-.1,1.8-.3c.4-.2.8-.4,1.1-.7,0,.5.6.9,1.2.9M56.1,29.8c0,.2-.1.5-.2.7-.1.2-.2.4-.4.5-.1.2-.3.3-.5.4-.2,0-.4.2-.7.2s-.6,0-.9,0c-.8,0-1.5-.2-2-.6-.5-.4-.8-.9-.9-1.5,0-.3,0-.6,0-.8,0-.2.2-.5.4-.7.2-.2.5-.4.9-.5.4-.1.9-.2,1.5-.2.5,0,1,0,1.3,0,.4,0,.7-.1,1-.2s.5-.3.5-.5c.1.4.2,1,.1,1.7,0,.3,0,.6,0,.8s0,.5-.1.7"/>
            <path class="st3" d="M86.9,31.5c0-.1,0-.2-.1-.4s0-.2,0-.4,0-.3,0-.4v-.4h0c0,0,.1-1.7.1-1.7h0c0-.3,0-.7,0-1-.1-.7-.3-1.2-.7-1.7-.7-1-1.9-1.5-3.5-1.5-.9,0-1.6,0-2.2.2s-1.1.4-1.4.7c-.2.2-.3.4-.3.6,0,.2,0,.4.2.5s.4.2.6.1c0-.2,0-.5.2-.7.1-.2.3-.4.5-.5.2-.2.5-.3.7-.4.3-.1.6-.2.9-.2.3,0,.6,0,1,0,.2,0,.5,0,.7.2.2,0,.5.2.6.3.2,0,.4.2.5.3s.3.3.4.4c0,.1.1.3.1.4,0,.1,0,.3-.1.4s-.2.2-.4.3-.5.2-.8.2-.8,0-1.2,0c-.8,0-1.4,0-2,.2-.6.1-1,.3-1.4.6s-.6.5-.8.8c-.2.3-.2.6-.2.9,0,.8.4,1.4,1.1,1.8.7.5,1.8.7,3.2.7s1.3-.1,1.8-.3c.4-.2.8-.4,1.1-.7,0,.5.6.9,1.2.9h.7c-.1,0-.2-.1-.3-.2,0,0-.1-.2-.2-.3M85.4,29.8c0,.2-.1.5-.2.7-.1.2-.2.4-.4.5-.1.2-.3.3-.5.4-.2,0-.4.2-.7.2s-.6,0-.9,0c-.8,0-1.5-.2-2-.6-.5-.4-.8-.9-.9-1.5,0-.3,0-.6,0-.8,0-.2.2-.5.4-.7.2-.2.5-.4.9-.5.4-.1.9-.2,1.5-.2.5,0,1,0,1.3,0,.4,0,.7-.1,1-.2s.5-.3.5-.5c.1.4.2,1,.1,1.7,0,.3,0,.6,0,.8s0,.5-.1.7"/>
            <path class="st3" d="M47.8,20c-1,0-1.7-.1-2.3-.2-.3,0-1-.3-1.1-.3-2.7-.9-2.9-2.3-2.8-3.2h0c.2-.9.7-1.5,1.3-2,.1,0,.3,0,.3.2-.1.3-.2.7-.1,1.1,0,1,.6,1.9,1.5,2.4,0,0,0,0,.1,0,0,0,.1,0,.2.1,0,0,0,0,.1,0h.2s0,0,0,0c.3-.4.5-1.1.5-1.9v-.7c0-.8.4-1.5,1.1-2,0,0,0,0,0-.1v-.3s-.2-.2-.5-.4c-.5-.4-.7-1-.7-1.6v-.7c0-.4-.2-.8-.5-1.1-.3-.2-.6-.3-1-.3h-.1l2.5-1.5c0,0,.1,0,.2,0,.2,0,.4.2.4.4v5.8c0,0,0,.1,0,.1h.2c0,.2.1.2.2.1l5.3-3.1h0c.9-.6,1.4-1.2,1.7-1.8.3-.8.1-1.7-.6-2.3,0,0,0,0,0,0,0,0,0,0,0,0h0c-.3-.2-.6-.3-.9-.3s-.8.2-1.1.5c-.3.3-.5.7-.5,1.1v.3c0,1.1-.5,2.1-1.2,2.8-.1,0-.3,0-.3-.1v-2.2c0-.3-.1-.7-.4-.9,0,0,0-.2,0-.3l2.2-1.3c.8-.4,1.4-.6,2-.6s.7,0,1,.2c.7.3,1.1,1,1.1,1.8,0,1.1-1.1,2-2.1,2.7,0,0,0,.1,0,.2v.2c.1,0,.2.1.3,0,.4-.1.8-.2,1.2-.2,1.5,0,2.5,1,2.6,2.8.1,1.9-.9,3.5-2.9,4.8-.8.5-1.6.8-2.5,1.1h0c-1.7.5-3.3.8-4.7.8h0ZM47.4,14.4h0c0,.1,0,.2,0,.2,0,1.5,0,2.7-.7,3.8,0,0,0,0,0,.1v.2c0,0,.1,0,.2,0,.9.3,1.8.4,2.8.4,1.7,0,3.1-.4,4-.8,1.5-.6,2.6-1.9,2.9-3.4,0,0,0-.1,0-.2h0c.1-.7,0-1.3-.1-2-.4-1.2-1.1-1.8-2.2-1.9h-.2c-.5,0-1,.1-1.5.3-.4.2-.7.7-.7,1.1v2.3s0,0,0,0c0,1.2-.6,2.1-1.7,2.8h0c-.1,0-.3,0-.2-.2.3-.5.4-1.1.5-1.8h0s0-2.4,0-2.4c0,0,0-.1,0-.1h-.2c0-.2-.1-.2-.2-.1l-2.4,1.4s0,0,0,0"/>
            <path class="st3" d="M46.3,13.1c-.2-.2-.4-.4-.6-.6,0,0-.2,0-.3,0-.2.2-.4.4-.6.6,0,0,0,.2,0,.3.2.2.4.4.6.6,0,0,.2,0,.3,0,.2-.2.4-.4.6-.6,0,0,0-.2,0-.3"/>
            <path class="st3" d="M51.1,6.1c.2-.3.5-.5.8-.8,0,0,0-.2,0-.3-.3-.2-.6-.5-.8-.8,0,0-.2,0-.3,0-.2.3-.5.5-.8.8,0,0,0,.2,0,.3.3.2.5.5.8.8,0,0,.2,0,.3,0"/>
            <path class="st3" d="M97.7,19.9c-.2-.3-.4-.5-.6-.6-.3-.2-.6-.2-.9-.2s-.7,0-.9.2-.5.4-.6.6c-.2.3-.2.6-.2.9s0,.7.2.9c.2.3.4.5.6.6.3.2.6.2.9.2s.7,0,.9-.2c.3-.2.5-.4.6-.6.2-.3.2-.6.2-.9s0-.7-.2-.9M97.4,21.7c-.1.2-.3.4-.5.5-.2.1-.5.2-.8.2s-.5,0-.8-.2c-.2-.1-.4-.3-.5-.5-.1-.2-.2-.5-.2-.8s0-.6.2-.8c.1-.2.3-.4.5-.5s.5-.2.8-.2.6,0,.8.2.4.3.5.5c.1.2.2.5.2.8s0,.6-.2.8"/>
            <path class="st3" d="M97,20.4c0-.2,0-.3-.2-.5s-.3-.2-.5-.2h-.9v2h.4v-.8h.4l.5.8h.4l-.5-.8c.1,0,.2,0,.3-.1.1-.1.2-.3.2-.5M96.3,20.7h-.5v-.7h.5c.2,0,.4.1.4.3s-.1.3-.4.3"/>
          </g>
        </g>
      </g>
    </g>
  </g>
</svg>