<?xml version="1.0" encoding="UTF-8"?>
<svg id="Layer_1" xmlns="http://www.w3.org/2000/svg" version="1.1" viewBox="0 0 106.8 41.4">
  <!-- Generator: Adobe Illustrator 30.2.0, SVG Export Plug-In . SVG Version: 2.1.1 Build 105)  -->
  <defs>
    <style>
      .st0 {
        fill: #e02a29;
      }

      .st1 {
        fill: #dab343;
      }

      .st2 {
        fill: #fbf7f5;
      }
    </style>
  </defs>
  <path class="st1" d="M2.6,1.1c.9-.2,1.7,0,2.4,0h97.2c.6,0,1.2,0,1.8,0,.7,0,.9.2.5.8-1,2.2-2,4.5-3,6.7-1.6,3.5-3.2,7.1-4.8,10.6-.2.5-.2.8,0,1.3,2.5,6.4,5,12.8,7.6,19.2.3.8.1.8-.6.8-33.3,0-66.6,0-99.9,0-.9,0-.9-.2-.6-.9,2.6-6.1,5.1-12.2,7.7-18.4.2-.4.2-.7,0-1.1C8.2,13.9,5.5,7.7,2.9,1.6c0-.1-.2-.2-.3-.4h0ZM53.6,3.2H7.8c-.9,0-1.1.4-.8,1.2,2.1,5,4.3,9.9,6.5,14.9.4.8.3,1.4,0,2.2-2.1,5.4-4.1,10.7-6.2,16.1-.4,1-.4,1,.7,1,7.8,0,15.7,0,23.5-.2,10-.2,19.9,0,29.9-.2,9-.2,18,0,27-.2,3.7,0,7.5,0,11.2,0s.9,0,.6-.8c-2.1-5.4-4.2-10.8-6.3-16.1-.2-.6-.2-1.2,0-1.8,2.1-5,4.2-10,6.4-14.9.5-1.1.5-1.1-.8-1.1h-46,0Z"/>
  <path class="st0" d="M53.6,3.2h46c1.2,0,1.2,0,.8,1.1-2.1,5-4.2,10-6.4,14.9-.3.6-.3,1.1,0,1.8,2.1,5.4,4.2,10.8,6.3,16.1.3.7,0,.8-.6.8-3.7,0-7.5,0-11.2,0-9,.2-18,0-27,.2-10,.2-19.9,0-29.9.2-7.8.2-15.7,0-23.5.2-1.1,0-1.1,0-.7-1,2.1-5.4,4.1-10.7,6.2-16.1.3-.8.3-1.4,0-2.2-2.2-5-4.3-9.9-6.5-14.9-.3-.8,0-1.2.8-1.2h45.9,0ZM24.6,19.2c0,0-.1,0-.2,0,.1-1.4.2-2.8.5-4.2.1-.7,0-.9-.7-.9-1.8,0-3.6,0-5.5,0-.6,0-1.1.1-1.3.7-.2.5.2.9.6,1.1.6.5.8,1,.6,1.8-.4,1.5-.4,3-.7,4.6-.6,4.2-1.2,8.5-1.8,12.7,0,.5,0,.7.5.6,1,0,2,0,3.1,0s1.7-.5,1.9-1.5c.9-3.6,1.8-7.2,3.5-10.6.7-1.4,1.5-2.7,2.5-3.9.2.5,0,.9,0,1.2-.2,1.6-.5,3.2-.7,4.8-.1.9-.5,1.4-1.3,1.7-.6.2-1,.4-.9,1.2.1.7.7.9,1.3.9.9,0,1.8,0,2.7,0,2-.2,3.5-1.6,3.9-3.5.7-3.3,1.2-6.7,1.6-10.1.2-1.7.2-1.7-1.5-1.8-.3,0-.6,0-.8,0-2.4-.4-4,.7-5.3,2.6-.6.9-1.3,1.8-2,2.7h0ZM63.3,26c.2-1.4.4-2.8.5-4.3.3-2.4.6-4.8.8-7.2,0-.4.1-.7-.5-.7-1.9,0-3.8,0-5.6,0s-1,0-1.1.6c-.1.5.2.8.6,1,.4.3.8.6.7,1.2-.5,3.8-1.1,7.6-1.6,11.4,0,.6,0,1.2.9,1.1.4,0,.9,0,1.3,0,.3,0,.6,0,.7.3,0,.3-.2.4-.4.6-1.5,1.5-3.1,3-4.6,4.4-.2.2-.6.3-.4.6.1.3.5.2.8.2,1.2,0,2.4,0,3.5,0,.5,0,.9-.2,1.3-.5,2.6-2.5,5.2-4.9,7.8-7.4,1.3-1.2,2.5-2.6,3.4-4.1,1.6-2.7,2.4-5.5,1.7-8.6-.1-.7-.4-.9-1.1-.8-1.2,0-2.4,0-3.6,0-.6,0-.8.2-.8.8,0,2.2-.1,4.3-.7,6.4-.5,2-1.5,3.8-3.4,4.9h0ZM82.9,21.7c0,.6-.1.9-.1,1.3-.2,1.9-.5,3.8-.7,5.7,0,.7.2,1.1.9.9,1.8-.4,3.7-.8,5.4-1.5.6-.2.8-.7.3-1.1-.5-.5-.5-1.1-.4-1.7,0-.7.2-1.3.3-2,.4-2.9.9-5.8,1.2-8.7,0-.4.1-.8-.6-.8-3.5,0-7,0-10.5,0-2.4,0-4.2,1.8-4.5,4.2-.1,1-.3,1.9-.5,2.9-.4,2.5-.7,5-1,7.6,0,.4,0,.6.5.6.7,0,1.5,0,2.2,0,1.3,0,2.3-.4,3-1.6.6-1,1.3-1.9,2-2.8.7-1,1.4-2,2.5-3.1h0ZM52.9,13.9c-1,0-2,0-3,0-.5,0-1,.2-1.2.7-.2.5.2.8.6,1,.6.4.8,1,.7,1.7-.2,1.7-.5,3.3-.7,5-.3,2.1-.5,4.2-.8,6.3,0,.5,0,.6.6.6,1.4,0,2.8,0,4.3,0,.7,0,1-.3,1.1-1,.2-1.7.5-3.3.7-5,.4-2.8.8-5.7,1.2-8.5,0-.7,0-.9-.8-.8-.9,0-1.8,0-2.7,0h0ZM39.1,13.9h0c-1,0-2,0-3,0s-1.2.1-1.3.8c-.1.7.5.9,1,1,.6.2.8.6.7,1.1,0,.5,0,.9-.1,1.4-.5,3.3-.9,6.5-1.4,9.8-.1.8.2,1.1,1,1.1,1.2,0,2.5,0,3.7,0,.7,0,1-.3,1-.9.7-4.6,1.3-9.1,2-13.7.1-.7-.1-.8-.8-.8-1,0-1.9,0-2.9,0h0ZM51.1,8.4c.2,1.7,1.2,3.3,2.6,4.7.2.2.5.3.8,0,1.5-1.2,2.8-2.6,3.5-4.4.4-.8.1-1.6-.5-2.2-.6-.6-1.6-.6-2.3,0-.5.4-.9.3-1.4,0-1.5-.8-2.8,0-2.7,1.9h0ZM44.6,21.3c.5,0,1,0,1.6,0,.4,0,.6,0,.7-.5.4-2.3.6-4.6.9-6.9,0-.3-.1-.5-.4-.6-.2,0-.4-.1-.6.1-.6.8-1.5,1-2.4,1.1-.8.1-1.3.6-1.4,1.4-.2,1-.3,2.1-.5,3.1-.3,2.2-.3,2.2,2,2.2h0Z"/>
  <path class="st2" d="M24.6,19.2c.7-.9,1.4-1.8,2-2.7,1.3-1.9,2.9-3,5.3-2.6.3,0,.5,0,.8,0,1.7,0,1.7,0,1.5,1.8-.4,3.4-.9,6.8-1.6,10.1-.4,2-1.9,3.3-3.9,3.5-.9,0-1.8,0-2.7,0-.6,0-1.2-.2-1.3-.9-.1-.7.3-1,.9-1.2.9-.2,1.2-.8,1.3-1.7.2-1.6.5-3.2.7-4.8,0-.3.1-.7,0-1.2-1.1,1.2-1.9,2.5-2.5,3.9-1.7,3.3-2.5,7-3.5,10.6-.3,1-.9,1.5-1.9,1.5-1,0-2,0-3.1,0-.5,0-.6-.1-.5-.6.6-4.2,1.1-8.5,1.8-12.7.2-1.5.3-3.1.7-4.6.2-.7,0-1.3-.6-1.8-.4-.3-.8-.6-.6-1.1.2-.5.7-.7,1.3-.7,1.8,0,3.6,0,5.5,0,.6,0,.8.2.7.9-.2,1.4-.3,2.8-.5,4.2,0,0,.1,0,.2,0h0Z"/>
  <path class="st2" d="M63.3,26c1.9-1.2,2.9-3,3.4-4.9.6-2.1.7-4.2.7-6.4s.2-.8.8-.8c1.2,0,2.4,0,3.6,0,.7,0,1,.2,1.1.8.7,3.1-.1,6-1.7,8.6-.9,1.5-2.1,2.9-3.4,4.1-2.6,2.5-5.2,4.9-7.8,7.4-.4.4-.8.6-1.3.5-1.2,0-2.4,0-3.5,0-.3,0-.6.1-.8-.2-.1-.3.2-.5.4-.6,1.5-1.5,3.1-3,4.6-4.4.2-.2.5-.3.4-.6-.1-.3-.4-.3-.7-.3-.4,0-.9,0-1.3,0-.9,0-.9-.5-.9-1.1.5-3.8,1.1-7.6,1.6-11.4,0-.6-.3-.9-.7-1.2-.4-.3-.7-.5-.6-1,.2-.5.6-.6,1.1-.6,1.9,0,3.8,0,5.6,0,.6,0,.5.3.5.7-.3,2.4-.5,4.8-.8,7.2-.2,1.4-.4,2.8-.5,4.3h0Z"/>
  <path class="st2" d="M82.9,21.7c-1,1.1-1.7,2.1-2.5,3.1-.7.9-1.4,1.8-2,2.8-.7,1.2-1.8,1.6-3,1.6s-1.5,0-2.2,0-.6-.2-.5-.6c.2-2.5.6-5.1,1-7.6.1-1,.3-1.9.5-2.9.3-2.4,2.1-4.1,4.5-4.2,3.5,0,7,0,10.5,0,.7,0,.6.4.6.8-.3,2.9-.8,5.8-1.2,8.7,0,.7-.2,1.3-.3,2,0,.6,0,1.2.4,1.7.4.5.3.9-.3,1.1-1.8.6-3.6,1-5.4,1.5-.7.2-1-.2-.9-.9.2-1.9.5-3.8.7-5.7,0-.3,0-.7.1-1.3h0ZM79.1,21.6c1.8-1.5,2.7-3.3,3.9-5,.2-.3,0-.5-.4-.5-1.4-.2-2.6.6-3.1,2-.3,1.1-.3,2.2-.4,3.6h0Z"/>
  <path class="st2" d="M52.9,13.9c.9,0,1.8,0,2.7,0,.7,0,.9.2.8.8-.4,2.8-.8,5.7-1.2,8.5-.2,1.7-.5,3.3-.7,5,0,.7-.4,1-1.1,1-1.4,0-2.8,0-4.3,0-.5,0-.6-.1-.6-.6.3-2.1.6-4.2.8-6.3.2-1.7.4-3.3.7-5,.1-.7,0-1.3-.7-1.7-.4-.2-.7-.5-.6-1,.2-.5.7-.7,1.2-.7,1,0,2,0,3,0h0Z"/>
  <path class="st2" d="M39.1,13.9c1,0,1.9,0,2.9,0,.6,0,.9.1.8.8-.7,4.6-1.4,9.1-2,13.7,0,.7-.3,1-1,.9-1.2,0-2.5,0-3.7,0-.8,0-1.1-.3-1-1.1.5-3.2.9-6.5,1.4-9.8,0-.5.1-.9.1-1.4,0-.5-.2-.9-.7-1.1-.5-.2-1.1-.4-1-1,.1-.7.7-.8,1.3-.8,1,0,2,0,3,0h0c0,0,0,0,0,0Z"/>
  <path class="st2" d="M51.1,8.4c0-2,1.3-2.8,2.7-1.9.5.3.8.4,1.4,0,.6-.5,1.7-.5,2.3,0,.6.6.8,1.3.5,2.2-.7,1.8-2,3.2-3.5,4.4-.3.3-.6.1-.8,0-1.3-1.4-2.4-2.9-2.6-4.7h0Z"/>
  <path class="st2" d="M44.6,21.3q-2.3,0-2-2.2c.1-1,.3-2.1.5-3.1.1-.8.6-1.3,1.4-1.4.9-.1,1.8-.3,2.4-1.1.2-.2.4-.2.6-.1.2.1.4.3.4.6-.2,2.3-.5,4.6-.9,6.9,0,.4-.3.5-.7.5-.5,0-1,0-1.6,0h0Z"/>
  <path class="st0" d="M79.1,21.6c.1-1.4.1-2.5.4-3.6.4-1.4,1.7-2.1,3.1-2,.4,0,.6.2.4.5-1.1,1.7-2.1,3.5-3.9,5h0Z"/>
</svg>