<?xml version="1.0" encoding="UTF-8"?>
<svg id="Layer_1" xmlns="http://www.w3.org/2000/svg" version="1.1" viewBox="0 0 93.1 42.7">
  <!-- Generator: Adobe Illustrator 30.2.0, SVG Export Plug-In . SVG Version: 2.1.1 Build 105)  -->
  <defs>
    <style>
      .st0 {
        fill: #f48220;
      }

      .st1 {
        fill: #77c046;
      }

      .st2 {
        fill: #fffdfd;
      }

      .st3 {
        fill: #fafdfa;
      }

      .st4 {
        fill: #1aa6df;
      }

      .st5 {
        fill: #f48421;
      }

      .st6 {
        fill: #fff;
      }

      .st7 {
        fill: #f9fcfd;
      }

      .st8 {
        fill: #282d69;
      }

      .st9 {
        fill: #f48523;
      }

      .st10 {
        fill: #79c147;
      }

      .st11 {
        fill: #f8fbfe;
      }

      .st12 {
        fill: #fafcfe;
      }

      .st13 {
        fill: #39153e;
      }

      .st14 {
        fill: #f48422;
      }

      .st15 {
        fill: #3a143e;
      }

      .st16 {
        fill: #7ac147;
      }

      .st17 {
        fill: #3b163f;
      }

      .st18 {
        fill: #d3e278;
      }

      .st19 {
        fill: #f7f9fb;
      }

      .st20 {
        fill: #3a163f;
      }

      .st21 {
        fill: #39143e;
      }
    </style>
  </defs>
  <path class="st4" d="M17.8,25.7v-5.3c0-.4,0-.4.4-.6.5-.2.8-.5,1.2-.8.2-.2.5-.5.6-.8.4-.6.6-1.2.7-1.8.2-1.5-.2-2.8-1.3-3.8-.7-.7-1.4-1.1-2.3-1.3-.4,0-.9-.2-1.3,0-.6,0-1.2.2-1.7.5-1.2.7-2,1.7-2.3,3.1,0,.3-.1.7-.1,1,0,.9.3,1.8.8,2.5.5.7,1.1,1.2,1.8,1.5,0,0,0,0,.1,0,0,0,0,0,0,.1v10.9c0,.1,0,.2,0,.4,0,0,0,.1-.1.1-.1,0-.2,0-.3,0-.7-.1-1.5-.2-2.2-.5-1.1-.3-2.2-.8-3.3-1.3-.9-.5-1.8-1.1-2.5-1.8-.5-.4-1-.8-1.4-1.3-.8-.8-1.5-1.8-2.1-2.8-.7-1.1-1.2-2.3-1.5-3.5-.2-.6-.3-1.3-.5-2-.2-.9-.2-1.8-.2-2.7v-.7c0-.6,0-1.1.2-1.7.1-1,.4-1.9.7-2.8.5-1.5,1.3-2.9,2.2-4.2.5-.7,1.1-1.3,1.7-1.9,1-1,2.1-1.8,3.3-2.4.9-.5,1.8-.9,2.7-1.2.7-.2,1.4-.4,2.1-.5.5,0,.9-.1,1.4-.2.7,0,1.4,0,2,0s.3,0,.5,0c0,0,.1,0,.2,0,1.3,0,2.5.4,3.8.8,1.6.5,3,1.3,4.4,2.3.8.6,1.6,1.3,2.2,2.1.8.8,1.4,1.8,2,2.8.6,1.1,1.1,2.2,1.4,3.5.2.5.3,1,.3,1.6,0,.3,0,.5.1.8,0,0,0,0,0,0,0,.9.2,1.7,0,2.6,0,.6,0,1.2-.2,1.8,0,.6-.2,1.2-.4,1.8-.3,1.1-.7,2.2-1.3,3.2-.5.9-1,1.7-1.6,2.5-.4.5-.8.9-1.2,1.3-.7.7-1.5,1.4-2.4,1.9-1.3.9-2.8,1.6-4.3,2-.6.2-1.3.3-1.9.4-.2,0-.4,0-.6,0h-.1s-.1,0-.1-.1c0-.1,0-.3,0-.4v-5.2h0Z"/>
  <path class="st8" d="M60.4,15.7V.6c0,0,0-.1.1-.1h11c.7,0,1.3,0,2,.1,1.2.2,2.3.5,3.3,1,.9.5,1.8,1.1,2.5,1.8.8.9,1.4,2,1.6,3.2.2,1,.3,1.9.2,2.9,0,1-.3,1.9-.8,2.8-.4.8-.9,1.5-1.6,2.1,0,0-.2.2-.3.2,0,0,0,.1,0,.2,0,0,0,0,.1,0,1.5.8,2.5,2.1,3.1,3.7.3.8.5,1.6.6,2.5,0,.7,0,1.3,0,2-.3,2.6-1.5,4.7-3.7,6.1-.9.6-1.8,1-2.9,1.3-.9.2-1.8.4-2.6.5-.6,0-1.2,0-1.8,0h-10.7c0,0-.1,0-.1-.1,0-.1,0-.3,0-.4v-14.8h0Z"/>
  <path class="st8" d="M47.7,0c1.8,0,3.4.3,5,.8,1.2.4,2.3,1,3.3,1.8.4.3.7.6,1,.9,0,0,0,0,0,.1,0,0,0,0,0,0,0,0,0,.2-.1.2-.9,1.6-1.7,3.3-2.6,4.9,0,0,0,.1-.1.2,0,0,0,0-.1,0-.1-.1-.2-.2-.4-.3-1.3-1.1-2.7-1.9-4.4-2.3-.6-.2-1.3-.2-1.9-.2-.6,0-1.2.1-1.7.4-.4.2-.7.4-1,.6-.5.4-.8,1-.8,1.6,0,.4,0,.7.2,1.1.1.2.3.4.5.6.2.2.5.4.7.6.4.2.8.5,1.2.7.7.4,1.5.7,2.2,1,.8.3,1.7.7,2.5,1.1.8.4,1.5.8,2.2,1.2.7.5,1.4,1,1.9,1.6.9.9,1.5,2,1.8,3.3.1.5.2,1,.2,1.4,0,.7,0,1.3,0,2-.2,1.6-.8,3-1.7,4.3-1,1.3-2.2,2.2-3.7,2.9-.9.4-1.8.6-2.7.8-.8.1-1.7.2-2.5.2-3.2-.1-6.2-1.1-8.8-3.1-.5-.4-1-.8-1.4-1.3,0,0,0,0-.1-.1,0,0,0,0,0-.1,0,0,0-.1.1-.2,1.1-1.5,2.2-3,3.3-4.6,0,0,0-.1.2-.2,0,0,0,0,0,0,.1,0,.2.2.3.3,1.4,1.3,3,2.2,4.9,2.8.6.2,1.3.3,1.9.3.6,0,1.2,0,1.7-.2.3,0,.5-.2.8-.4.9-.6,1.2-1.5,1.2-2.5,0-.3-.2-.7-.4-1-.2-.2-.3-.4-.5-.6-.3-.2-.6-.5-.9-.6-.5-.3-1-.6-1.6-.8-.9-.4-1.8-.8-2.7-1.2-.8-.4-1.7-.8-2.5-1.2-.7-.4-1.4-.8-2.1-1.4-.5-.4-.9-.8-1.3-1.2-.9-1-1.4-2.2-1.7-3.5-.1-.8-.2-1.5,0-2.3.2-1.7.7-3.1,1.7-4.4.6-.8,1.3-1.4,2-1.9,1.1-.7,2.2-1.2,3.5-1.6,1-.3,2.1-.4,3.1-.4h0Z"/>
  <path class="st8" d="M85.3,15.7V1.1c0-.6,0-.6.5-.6h5.8c.4,0,.4,0,.4.4v29.5c0,.7,0,.6-.6.6h-5.8c-.4,0-.4,0-.4-.4v-14.9h0Z"/>
  <path class="st0" d="M83.8,37.5s0,0-.1,0c0,0,0,0,0,0,0,.1,0,.2,0,.4v2.5c0,0,0,.2,0,.3,0,0,0,0,0,0-.2,0-.4-.2-.6-.2,0,0,0,0,0-.2,0,0,0-.1-.1,0,0,0-.1.1-.2.2,0,0-.2.1-.3.2-.2.1-.5.1-.7,0-.5-.2-.9-.6-1.2-1.1,0-.1,0-.3-.1-.4,0,0,0-.2,0-.2.1-.4.4-.8.7-1,.4-.3.9-.2,1.3,0,.2.1.3.3.5.4,0,0,0,0,0,0,0,0,0,0,0,0v-.8c0,0,0-.1-.1-.1h-7.4c0,0-.1,0-.1-.1v-.2c0-.2,0-.2.2-.2h7.1q.4,0,.4-.4c0-.4-.1-.8-.3-1.1-.2-.3-.4-.7-.6-1,0,0,0,0,0,0s0,0,0,0h.3c.4,0,.4,0,.6.3.3.4.4.8.5,1.2,0,.3,0,.5.1.8,0,.2,0,.2.2.3,0,0,0,0,0,0,.1.2.1.3,0,.5h0Z"/>
  <path class="st1" d="M83.8,37.5c0-.2,0-.3,0-.5.1,0,.2,0,.4,0h7.6c.4,0,.3,0,.3.5,0,0,0,0,0,0-.1,0-.3,0-.4,0h-5.2s-.1,0-.1.1v.2s0,0,0,0c.1,0,.3,0,.4,0,.2,0,.5,0,.7,0,.1,0,.2,0,.3.1.2,0,.3.2.3.4,0,.1,0,.3,0,.4,0,.2,0,.5,0,.7v1.2c0,.1,0,.2-.2.1,0,0,0,0,0,0-.1,0-.3-.1-.4-.2,0,0,0,0-.2,0-.4.2-.8.2-1.2.2-.3,0-.6-.2-.8-.4-.3-.3-.3-.6,0-1,.2-.3.6-.5,1-.7.4-.1.8,0,1.2,0,0,0,0,0,0,0,0,0,0,0,0,0,0,0,0,0,0,0-.1-.2-.3-.2-.5-.2-.3,0-.6,0-.9.2-.2,0-.3.1-.5.2,0,0-.1,0-.1,0s0-.2,0-.3c0,0,0-.2,0-.3v-.5c0,0,0-.1-.1-.1h-1.6c0,0-.2,0-.2,0h0Z"/>
  <path class="st21" d="M30.1,40.5c0,0,0,.1,0,.2,0,0,0,0,0,0h-.4c0,0,0,0,0,0,0,0,0-.1,0-.2v-4.2c0-.3,0-.3.3-.3s0,0,.1,0c0,0,0,0,0,0,0,0,0,.2,0,.3v1.3s0,0,0,0,0,0,0,0c0,0,0,0,.1-.1.2-.1.4-.2.6-.2.2,0,.4,0,.6,0,.3,0,.5.3.6.5.1.2.2.4.2.6,0,.4,0,.9,0,1.3,0,.1-.1.2-.2.4-.3.5-.9.7-1.4.6-.2,0-.4-.1-.6-.3s0,0-.1,0h0Z"/>
  <path class="st21" d="M20.8,38.3v-2c0,0,0-.2,0-.2,0,0,0,0,0,0,.1,0,.3,0,.4,0,0,0,0,0,0,0,0,.1,0,.2,0,.3v1.3s0,0,0,0,0,0,.1,0c0,0,0,0,0,0,.2-.2.5-.3.8-.3s.3,0,.5,0c.3.1.5.4.6.7,0,.2,0,.3,0,.5v1.9s0,0,0,.1c0,0,0,0,0,0-.2,0-.3,0-.5,0,0,0,0,0,0,0,0,0,0-.2,0-.2v-1.9c0,0,0-.2,0-.3,0-.2-.2-.3-.5-.4-.4-.1-.8.1-1,.5,0,.2,0,.4,0,.5v1.4c0,0,0,.2,0,.3,0,0,0,0,0,0h-.4s0,0,0,0c0,0,0-.2,0-.3v-2h0Z"/>
  <path class="st21" d="M40.3,38.4v-2c0,0,0-.2,0-.3,0,0,0,0,0,0h.4s0,0,0,0c0,0,0,.2,0,.3v2.4s0,0,0,.1c0,0,0,0,0,0,0,0,.1,0,.2-.2.3-.4.7-.8,1-1.1,0,0,.2-.2.3-.1.1,0,.2,0,.4,0,0,0,0,0,0,0,0,0-.1.1-.2.2-.3.3-.6.6-.8.9,0,0,0,.1,0,.2.4.5.7,1,1.1,1.6,0,0,0,.2.1.2,0,0,0,0,0,0-.2,0-.3,0-.5,0,0,0,0,0-.1,0,0,0-.1-.2-.2-.3-.2-.3-.4-.6-.6-1-.2-.3-.2-.4-.5,0h0c-.1.1-.2.2-.2.4,0,.2,0,.5,0,.7s0,.1,0,.2c0,0,0,0,0,0-.1,0-.2,0-.4,0s-.1,0-.1-.1v-2.3h0Z"/>
  <path class="st21" d="M66,39.2h-1c-.1,0-.2,0-.1.2,0,.2,0,.4.2.5.2.3.4.4.7.4s.3,0,.5-.1c.1,0,.2-.2.2-.3,0,0,.1-.1.2-.1s.2,0,.3,0c0,0,0,0,0,0-.2.5-.5.7-1,.8-.3,0-.5,0-.8,0-.3,0-.5-.3-.7-.5-.2-.3-.2-.5-.3-.9,0-.3,0-.6,0-1,.2-.5.4-.8.9-1,.2,0,.3,0,.5,0s.4,0,.5,0c.3.1.6.3.7.7.2.3.2.6.2,1,0,0,0,.1-.2.1h-1.1Z"/>
  <path class="st21" d="M26,39.2h-1c0,0-.1,0-.1.1,0,.2,0,.4.2.6.2.2.4.4.7.4h.2c.2,0,.3,0,.4-.2,0,0,0-.1.1-.2,0,0,.1,0,.2,0h.2c.2,0,.3,0,.1.3-.3.6-.9.8-1.5.7-.6,0-1-.4-1.2-1s-.2-1.1,0-1.7c.2-.4.4-.6.8-.8.2,0,.3,0,.5,0s.4,0,.6,0c.3.1.5.3.7.6.1.3.2.5.2.8s0,.3-.3.3h-.9Z"/>
  <path class="st15" d="M45,39.2h-1c0,0-.1,0-.1.2,0,0,0,0,0,.1,0,.2,0,.3.2.5.2.2.4.4.7.4s.4,0,.5-.1c0,0,.2-.2.2-.3,0,0,.1-.1.2,0,.1,0,.2,0,.4,0,0,0,0,0,0,0,0,0,0,.1,0,.2-.2.4-.5.6-1,.7-.3,0-.5,0-.8,0-.3,0-.5-.2-.7-.5-.2-.2-.2-.5-.3-.8,0-.5,0-.9.2-1.3.2-.4.4-.6.8-.8.3,0,.7,0,1,0,.3,0,.6.3.7.6s.2.7.2,1c0,0,0,.1-.1.1h-1.1Z"/>
  <path class="st21" d="M35.6,39.5c0,.4,0,.7,0,1.1,0,.1,0,.2-.2.2h-.3c0,0,0,0-.1-.1,0,0,0,0,0-.1,0,0,0,0,0,0,0,0,0,0,0,0-.4.3-.9.4-1.3.2-.4-.1-.6-.4-.6-.8,0,0,0-.1,0-.2,0-.4.2-.8.6-.9.2,0,.3-.1.5-.1s.3,0,.5,0h.3c.1,0,.2,0,.2-.2,0-.1,0-.2,0-.3,0-.2-.2-.3-.4-.4-.2,0-.3,0-.5,0-.2,0-.3,0-.4.2,0,0,0,.1,0,.2,0,0,0,0-.1,0s0,0-.1,0c-.4,0-.3,0-.2-.4.2-.3.4-.5.8-.6.3,0,.5,0,.8,0,.2,0,.3,0,.4.2.3.2.4.4.4.7,0,.1,0,.2,0,.3v.9h0Z"/>
  <path class="st21" d="M59.5,39.2h-.9c-.2,0-.2,0-.2.2,0,.2,0,.4.2.5.2.2.3.3.6.3h.2c.2,0,.3,0,.4-.2,0,0,.1-.1.2-.2,0,0,0,0,.2,0,.1,0,.2,0,.4,0,0,0,0,0,0,.1-.2.4-.5.7-1,.8-.2,0-.5,0-.7,0-.4,0-.7-.3-.9-.7-.1-.2-.2-.5-.2-.7,0-.4,0-.8.2-1.2.2-.4.4-.6.8-.8s.4,0,.6,0c.7,0,1.1.4,1.2.9,0,.2,0,.5,0,.8,0,0,0,.1-.2.1h-1,0Z"/>
  <path class="st5" d="M76.8,39.3v-1.1c0-.1,0-.2.2-.2h.4q.2,0,.2.2s0,0,0,0c0,0,0,0,.2,0,0,0,.2-.1.3-.2.4-.2.8-.2,1.2,0,.4.2.6.6.7,1,0,.5,0,1-.2,1.4,0,.1-.2.3-.3.4,0,.1-.2.1-.3,0-.2-.1-.3-.2-.5-.3,0,0,0,0,0,0,0,0,0,0,.1-.1,0-.1.2-.2.3-.3.3-.3.4-.7.4-1s0-.2,0-.3c0-.2-.2-.3-.4-.3-.4,0-.8,0-1,.4s-.4.7-.4,1.1v1c0,.1,0,.2-.2,0,0,0,0,0,0,0-.6-.3-.5-.2-.5-.7v-.8h0Z"/>
  <path class="st21" d="M55.6,39c0,.4,0,.8-.2,1.1-.3.6-1,.8-1.6.8-.6,0-.9-.4-1.1-.9-.2-.5-.2-1.1,0-1.6.2-.4.5-.7.9-.8.9-.2,1.7.1,1.9,1,0,0,0,.2,0,.3,0,0,0,.2,0,.2h0Z"/>
  <path class="st1" d="M88.7,39.3v-1.1c0-.1,0-.2.2-.2h.4c0,0,.1,0,.2,0,0,0,0,0,0,.1,0,0,0,0,0,0,0,0,.2-.1.3-.2.5-.3,1.4-.3,1.9.5.1.2.2.4.2.6,0,.5,0,1-.3,1.4,0,.1-.2.2-.2.3,0,0-.1,0-.2,0-.1,0-.3-.2-.4-.3,0,0,0,0-.2-.1,0,0,0,0,0-.1.1-.2.3-.3.4-.4.3-.3.4-.6.4-1,0-.2,0-.3,0-.4,0-.2-.2-.3-.4-.3-.4,0-.7,0-1,.3-.3.3-.5.7-.5,1.2,0,.3,0,.7,0,1,0,0,0,0-.1,0,0,0,0,0,0,0,0,0,0,0,0,0-.6-.3-.5-.2-.5-.7v-.8h0Z"/>
  <path class="st21" d="M70.4,37.5h.1c0,0,.1,0,.1.1.1.3.2.6.3.9.2.5.3,1,.5,1.4,0,0,0,0,0,.1,0,0,0,0,0,0,0,0,0,0,0,0,0-.1,0-.3.1-.4.2-.7.4-1.3.6-2,0-.2.1-.2.3-.2s.2,0,.3,0c0,0,0,0,0,0,0,0,0,.2,0,.3-.3,1-.7,2-1.1,3.1,0,.2-.1.3-.2.5,0,0,0,.1,0,.2-.2.4-.5.5-.9.6-.1,0-.2,0-.4,0,0,0,0,0,0,0,0-.1,0-.2,0-.4,0,0,0,0,0,0,0,0,.2,0,.3,0,.2,0,.4-.1.5-.3,0,0,0,0,0-.1.1-.2.1-.4,0-.6-.3-.9-.6-1.7-.9-2.6,0,0,0-.2,0-.3-.1-.3,0-.3.3-.3h0Z"/>
  <path class="st17" d="M18.3,38.8v-1.7h0c0-.2,0-.2-.1-.2h-1c-.4,0-.4,0-.3-.5,0,0,0,0,0,0,0,0,0,0,0,0h3.2s0,0,0,0c0,0,0,0,0,0,0,.1,0,.2,0,.4,0,0,0,0,0,0h-.8c-.6,0-.5,0-.5.5v3.4c0,0,0,.1-.2.1h-.3c0,0-.1,0-.1-.2v-1.9h0Z"/>
  <path class="st21" d="M36.6,39v-1.3c0,0,0-.1,0-.2,0,0,0,0,0,0,0,0,.2,0,.3,0s.2,0,.2.2h0c0,.1,0,.2,0,.1h0s0,0,0,0c.3-.4.8-.4,1.2-.3.3,0,.5.2.6.5,0,.2.1.3.1.5,0,0,0,.2,0,.3v1.9c0,0,0,.1,0,.2,0,0,0,0,0,0h-.4s0,0,0,0c0,0,0-.2,0-.2v-1.6c0-.2,0-.3,0-.5,0-.3-.3-.5-.6-.5s-.6.2-.8.5c0,.2-.1.4-.1.6v1.5c0,.1,0,.3,0,.3-.1,0-.3,0-.4,0,0,0,0,0,0,0,0,0,0-.2,0-.2v-1.4h0Z"/>
  <path class="st13" d="M62.5,40.1c.3-.8.5-1.5.8-2.2,0,0,0-.2.1-.3,0,0,0,0,.1,0h.4s0,0,0,0c0,0,0,.1,0,.2-.3.9-.7,1.8-1,2.8,0,0,0,.1,0,.2,0,0,0,0,0,0h-.5c0,0-.1,0-.1-.1,0,0,0,0,0,0-.3-.9-.7-1.9-1-2.8,0,0,0-.1,0-.2,0,0,0,0,0,0h.4s0,0,0,0c0,0,0,.1,0,.2.2.7.4,1.4.7,2,0,0,0,.2.1.4h0Z"/>
  <path class="st20" d="M50.9,39.1v-1s0,0,0,0-.1,0-.2,0h-.1c-.1,0-.2,0-.2-.2v-.2c0,0,0-.1.1-.1.1,0,.2,0,.3,0,0,0,.1,0,.1-.1,0-.2,0-.5,0-.7,0,0,0,0,0,0s0,0,0,0h.2c.3,0,.3,0,.3.3v.5c0,0,0,.1.2.1.2,0,.3,0,.5,0,0,0,.1,0,.1.1v.2h0c0,0,0,.1-.1.1h-.4s0,0-.1,0c0,0,0,0,0,0,0,0,0,0,0,.1v1.6c0,0,0,.2,0,.3,0,.1.1.3.3.3h.3s0,0,0,0v.2c0,0,0,.1-.1.1-.2,0-.4,0-.6,0-.2,0-.4-.2-.4-.4,0-.2,0-.3,0-.5v-.9h0Z"/>
  <path class="st13" d="M46.9,39.1v-1.3c0,0,0-.2,0-.2,0,0,0,0,0,0,.1,0,.3,0,.4,0,0,0,0,0,0,0,0,0,0,.2,0,.3,0,0,0,0,0,0s0,0,0,0l.2-.2c.2-.1.3-.2.5-.3.2,0,.3,0,.3.2,0,0,0,.2,0,.2,0,0,0,0,0,0-.1,0-.2,0-.3,0-.3,0-.5.3-.6.6,0,.2,0,.4,0,.6v1.1c0,0,0,.2,0,.3,0,0,0,0,0,0h-.4s0,0,0,0c0,0,0-.2,0-.2v-1.4h0Z"/>
  <path class="st21" d="M68,39.1v-1.5c0,0,0-.1.1-.2h.2c.2,0,.2,0,.2.2,0,0,0,.2,0,.2h0c0,0,0,0,0,0,.2-.2.3-.3.6-.4,0,0,.2,0,.2,0,.1,0,.2,0,.2.2v.2c0,.1,0,.1-.1.2,0,0-.2,0-.3,0-.3,0-.5.3-.6.6,0,.2,0,.4,0,.6v1.3c0,0,0,.2,0,.2,0,0,0,0,0,0h-.4s0,0,0,0c0,0,0-.2,0-.2v-1.4h0Z"/>
  <path class="st14" d="M76.3,39.4v1c0,.5,0,.5-.5.2,0,0-.1,0-.2,0,0,0,0,0,0-.2v-2.3c0,0,0-.2,0-.2,0,0,0,0,0,0,.1,0,.3,0,.4,0s.2,0,.2.2v1.4h0Z"/>
  <path class="st10" d="M84.9,39.4v1.4c0,0,0,0-.1,0-.2,0-.3-.2-.4-.2,0,0-.1-.1-.1-.2v-2.4c0,0,0-.2.1-.2h0c.5,0,.5,0,.5.5v1.1h0Z"/>
  <path class="st9" d="M75.1,35.1c.1,0,.3,0,.5.1.2,0,.3.2.4.5,0,.3.2.6.3,1,0,0,0,0,0,0,0,0-.2,0-.3,0,0-.1-.1-.2-.2-.4,0-.2-.2-.3-.4-.4,0,0-.1,0-.2,0,0,0-.2-.1-.2-.2,0-.2,0-.3-.2-.5,0,0,0-.2.1-.1,0,0,0,0,.2,0h0Z"/>
  <path class="st16" d="M83.8,35.1c.2,0,.3,0,.5.1.2,0,.3.2.4.5,0,.3.2.6.3,1,0,0,0,.1-.1.1,0,0-.2,0-.2,0,0-.1-.1-.2-.2-.3,0-.2-.2-.3-.4-.4,0,0,0,0-.1,0-.2,0-.2-.2-.3-.3,0-.1,0-.3-.1-.4,0-.2.1-.1.2,0h0Z"/>
  <path class="st18" d="M83.8,35.1c0,0-.2,0-.2,0,0,0,0,0,0-.1s0,0,.1,0c0,0,.1,0,.2,0h0Z"/>
  <path class="st6" d="M66.9,15.7V6.3c0,0,0-.1.1-.1h4.3c.4,0,.8,0,1.3.1,0,0,.2,0,.2,0,.9.3,1.5,1,1.8,1.9,0,.3.1.5.1.8,0,.4,0,.8,0,1.2,0,.2,0,.3-.1.4-.2.6-.7,1-1.3,1.3-.4.2-.8.3-1.2.3-.5,0-.9,0-1.4,0h-.4c0,0-.1,0-.1.1s0,.1,0,.2v5.2c0,0,0,.1.1.1h2.1c.4,0,.8,0,1.3.2.9.3,1.6.9,2,1.7.2.4.3.8.3,1.3,0,.7,0,1.4-.3,2-.4,1-1.1,1.6-2,1.9s-.7.2-1.1.2h-5.3c0,0-.1,0-.1-.2v-9.4h0Z"/>
  <path class="st2" d="M80.8,39.5c0-.2,0-.4.2-.5.2-.3.5-.5.8-.6,0,0,.2,0,.3,0,.2,0,.3.1.4.2.1.1.2.3.1.5,0,0,0,0,0,.1-.2.4-.5.7-.8.9-.1,0-.2,0-.3,0-.2,0-.3,0-.4-.2-.1-.2-.2-.3-.2-.5h0Z"/>
  <path class="st3" d="M86.1,40.3s-.1,0-.2,0c0,0,0,0-.1,0,0,0,0-.1,0-.2,0,0,0-.2.1-.2.4-.4.8-.5,1.3-.4.1,0,.3,0,.4.2,0,0,0,.1,0,.2s0,0,0,0c-.4.3-.9.5-1.5.5h0Z"/>
  <path class="st6" d="M30.1,39.1c0-.2,0-.5,0-.7.1-.3.4-.5.7-.5.3,0,.6.1.8.4,0,.2.1.4.2.6,0,.3,0,.7-.2,1,0,.2-.2.3-.3.4-.3.2-1,.2-1.2-.4,0-.1,0-.3,0-.4v-.4h0Z"/>
  <path class="st11" d="M65.8,38.8h-.6c-.2,0-.2,0-.2-.2,0,0,0-.2,0-.3.1-.3.4-.4.7-.5.2,0,.4,0,.5.1.2.2.3.4.3.6,0,.1,0,.2-.2.2h-.7,0Z"/>
  <path class="st12" d="M25.7,38.8c-.3,0-.5,0-.8,0,0,0,0,0,0,0,0-.2,0-.4.2-.6.1-.2.3-.3.5-.3.1,0,.3,0,.4,0,.2,0,.4.2.5.4,0,.1,0,.3,0,.4,0,0,0,0,0,0h-.8s0,0,0,0Z"/>
  <path class="st7" d="M44.7,38.8h-.7c0,0-.1,0-.1-.1,0-.2,0-.3.2-.5.1-.2.3-.3.6-.3.1,0,.3,0,.4,0,.2,0,.4.3.4.5,0,0,0,.2,0,.3,0,0,0,.1,0,.1h-.7,0Z"/>
  <path class="st19" d="M35.1,39.4c0,.1,0,.3,0,.5,0,.2-.2.4-.5.5-.2,0-.3,0-.5,0-.2,0-.3-.1-.4-.3-.2-.3,0-.7.3-.8.1,0,.3,0,.4,0,.2,0,.4,0,.5,0s.1,0,.1.1,0,0,0,.2h0Z"/>
  <path class="st12" d="M59.2,38.8h-.6c-.2,0-.3,0-.2-.3,0,0,0-.2,0-.2.1-.3.4-.4.7-.4h.2c.2,0,.3.1.5.3.1.2.2.4.2.6,0,0,0,0,0,0,0,0,0,0-.1,0h-.7Z"/>
  <path class="st6" d="M55,39.1c0,.3,0,.6-.1.8,0,.1-.2.3-.3.4-.3.2-.8.2-1.1,0-.1-.1-.2-.2-.3-.4-.2-.5-.2-.9,0-1.4,0-.2.3-.4.5-.5.3-.1.7,0,1,.3.1.2.2.4.2.6,0,.1,0,.2,0,.3h0Z"/>
</svg>