<?xml version="1.0" encoding="UTF-8"?>
<svg id="Layer_1" xmlns="http://www.w3.org/2000/svg" version="1.1" viewBox="0 0 128.9 37.7">
  <!-- Generator: Adobe Illustrator 30.2.0, SVG Export Plug-In . SVG Version: 2.1.1 Build 105)  -->
  <defs>
    <style>
      .st0 {
        fill: #2f84b7;
      }

      .st1 {
        fill: #3f4868;
      }

      .st2 {
        fill: #2b406a;
      }

      .st3 {
        fill: #354364;
      }

      .st4 {
        fill: #1d355d;
      }

      .st5 {
        fill: #657da9;
      }

      .st6 {
        fill: #a4aaa9;
      }

      .st7 {
        fill: #258a52;
      }

      .st8 {
        fill: #23436c;
      }

      .st9 {
        fill: #1b3056;
      }

      .st10 {
        fill: #c2e5f3;
      }

      .st11 {
        fill: #1d355c;
      }

      .st12 {
        fill: #f4f3f5;
      }

      .st13 {
        fill: #8e91a8;
      }

      .st14 {
        fill: #95a3b8;
      }

      .st15 {
        fill: #52597c;
      }

      .st16 {
        fill: #2a3858;
      }

      .st17 {
        fill: #243d6c;
      }

      .st18 {
        fill: #203d70;
      }

      .st19 {
        fill: #cfebf6;
      }

      .st20 {
        fill: #2c3f6e;
      }

      .st21 {
        fill: #283f6c;
      }

      .st22 {
        fill: #203b67;
      }

      .st23 {
        fill: #2e416c;
      }

      .st24 {
        fill: #3d4d68;
      }

      .st25 {
        fill: #294069;
      }

      .st26 {
        fill: #dee6e6;
      }

      .st27 {
        fill: #213c68;
      }

      .st28 {
        fill: #adbacf;
      }

      .st29 {
        fill: #2b3f6d;
      }

      .st30 {
        fill: #378857;
      }

      .st31 {
        fill: #139950;
      }

      .st32 {
        fill: #1c345a;
      }

      .st33 {
        fill: #69b3db;
      }

      .st34 {
        fill: #21345c;
      }

      .st35 {
        fill: #b1b3bb;
      }

      .st36 {
        fill: #b0c4de;
      }

      .st37 {
        fill: #414e6a;
      }

      .st38 {
        fill: #1a3155;
      }

      .st39 {
        fill: #267a4a;
      }

      .st40 {
        fill: #354266;
      }

      .st41 {
        fill: #bbc5d2;
      }

      .st42 {
        fill: #203454;
      }

      .st43 {
        fill: #bdc9d4;
      }

      .st44 {
        fill: #1e3a5f;
      }

      .st45 {
        fill: #1f3359;
      }

      .st46 {
        fill: #314164;
      }

      .st47 {
        fill: #1f3766;
      }

      .st48 {
        fill: #213d71;
      }

      .st49 {
        fill: #5b8eb2;
      }

      .st50 {
        fill: #1a345f;
      }

      .st51 {
        fill: #172f52;
      }

      .st52 {
        fill: #303f66;
      }

      .st53 {
        fill: #243b72;
      }

      .st54 {
        fill: #21355d;
      }

      .st55 {
        fill: #a8b6c9;
      }

      .st56 {
        fill: #525877;
      }

      .st57 {
        fill: #223d68;
      }

      .st58 {
        fill: #bfe1e4;
      }

      .st59 {
        fill: #1e3558;
      }

      .st60 {
        fill: #2b406e;
      }

      .st61 {
        fill: #2c4467;
      }

      .st62 {
        fill: #21375c;
      }

      .st63 {
        fill: #e0f2f1;
      }

      .st64 {
        fill: #233a68;
      }

      .st65 {
        fill: #84b6d7;
      }

      .st66 {
        fill: #1d325e;
      }

      .st67 {
        fill: #243b74;
      }

      .st68 {
        fill: #409660;
      }

      .st69 {
        fill: #7d9ebc;
      }

      .st70 {
        fill: #213c6d;
      }

      .st71 {
        fill: #253d6c;
      }

      .st72 {
        fill: #3c4767;
      }

      .st73 {
        fill: #20396a;
      }

      .st74 {
        fill: #233a70;
      }

      .st75 {
        fill: #526780;
      }

      .st76 {
        fill: #2c406a;
      }

      .st77 {
        fill: #324267;
      }

      .st78 {
        fill: #0c984b;
      }

      .st79 {
        fill: #b8bcbe;
      }

      .st80 {
        fill: #bbcedf;
      }

      .st81 {
        fill: #a6aaaf;
      }

      .st82 {
        fill: #46a66b;
      }

      .st83 {
        fill: #a6a7ad;
      }

      .st84 {
        fill: #314168;
      }

      .st85 {
        fill: #2a3e6c;
      }

      .st86 {
        fill: #223d74;
      }

      .st87 {
        fill: #1d335c;
      }

      .st88 {
        fill: #3c4769;
      }

      .st89 {
        fill: #182d52;
      }

      .st90 {
        fill: #213b6e;
      }

      .st91 {
        fill: #bdded9;
      }

      .st92 {
        fill: #283e6a;
      }

      .st93 {
        fill: #1c395e;
      }

      .st94 {
        fill: #384465;
      }

      .st95 {
        fill: #23386d;
      }

      .st96 {
        fill: #3a4b5f;
      }

      .st97 {
        fill: #b8bbbd;
      }

      .st98 {
        fill: #f6f6f8;
      }

      .st99 {
        fill: #c3d1dd;
      }

      .st100 {
        fill: #f2f1f4;
      }

      .st101 {
        fill: #223968;
      }

      .st102 {
        fill: #afb0c3;
      }

      .st103 {
        fill: #898d97;
      }

      .st104 {
        fill: #1b345b;
      }

      .st105 {
        fill: #2c3c5d;
      }

      .st106 {
        fill: #21396b;
      }

      .st107 {
        fill: #1d3761;
      }

      .st108 {
        fill: #1f3559;
      }

      .st109 {
        fill: #edf1f0;
      }

      .st110 {
        fill: #233661;
      }

      .st111 {
        fill: #3a4664;
      }

      .st112 {
        fill: #b2c1d4;
      }

      .st113 {
        fill: #d3e9f2;
      }

      .st114 {
        fill: #2b3954;
      }

      .st115 {
        fill: #1a365e;
      }

      .st116 {
        fill: #4b5979;
      }

      .st117 {
        fill: #f0eff2;
      }

      .st118 {
        fill: #53607f;
      }

      .st119 {
        fill: #9da6a5;
      }

      .st120 {
        fill: #239654;
      }

      .st121 {
        fill: #32436e;
      }

      .st122 {
        fill: #2d4362;
      }

      .st123 {
        fill: #2a3c68;
      }

      .st124 {
        fill: #becddf;
      }

      .st125 {
        fill: #97a1b4;
      }

      .st126 {
        fill: #bbe2f1;
      }

      .st127 {
        fill: #4c6089;
      }

      .st128 {
        fill: #273a5d;
      }

      .st129 {
        fill: #acd7cf;
      }

      .st130 {
        fill: #3a4368;
      }

      .st131 {
        fill: #b9c7cf;
      }

      .st132 {
        fill: #29364e;
      }

      .st133 {
        fill: #6f9fc0;
      }

      .st134 {
        fill: #21a74f;
      }

      .st135 {
        fill: #cee8ef;
      }

      .st136 {
        fill: #1f3963;
      }

      .st137 {
        fill: #22345c;
      }

      .st138 {
        fill: #2d80af;
      }

      .st139 {
        fill: #ded163;
      }

      .st140 {
        fill: #20a14d;
      }

      .st141 {
        fill: #263e6a;
      }

      .st142 {
        fill: #223c71;
      }

      .st143 {
        fill: #f5f4f6;
      }

      .st144 {
        fill: #334060;
      }

      .st145 {
        fill: #1f3762;
      }

      .st146 {
        fill: #607797;
      }

      .st147 {
        fill: #1a3856;
      }

      .st148 {
        fill: #228f54;
      }

      .st149 {
        fill: #beddd8;
      }

      .st150 {
        fill: #1b315a;
      }

      .st151 {
        fill: #34456e;
      }

      .st152 {
        fill: #a5a8ac;
      }

      .st153 {
        fill: #1f3c6a;
      }

      .st154 {
        fill: #1b3556;
      }

      .st155 {
        fill: #2c416f;
      }

      .st156 {
        fill: #2f4167;
      }

      .st157 {
        fill: #434c61;
      }

      .st158 {
        fill: #2d3f6c;
      }

      .st159 {
        fill: #1d335b;
      }

      .st160 {
        fill: #1c355c;
      }

      .st161 {
        fill: #1d3155;
      }

      .st162 {
        fill: #31436d;
      }

      .st163 {
        fill: #bec9df;
      }

      .st164 {
        fill: #394766;
      }

      .st165 {
        fill: #a3a8a8;
      }

      .st166 {
        fill: #575f7f;
      }

      .st167 {
        fill: #203c6d;
      }

      .st168 {
        fill: #c5c7d1;
      }

      .st169 {
        fill: #6c87aa;
      }

      .st170 {
        fill: #2d3f6a;
      }

      .st171 {
        fill: #32456e;
      }

      .st172 {
        fill: #a7a9b2;
      }

      .st173 {
        fill: #22386c;
      }

      .st174 {
        fill: #193158;
      }

      .st175 {
        fill: #bbc7d3;
      }

      .st176 {
        fill: #465e81;
      }

      .st177 {
        fill: #a8b6c8;
      }

      .st178 {
        fill: #1f3966;
      }

      .st179 {
        fill: #43506d;
      }

      .st180 {
        fill: #213b6f;
      }

      .st181 {
        fill: #2c3d5e;
      }

      .st182 {
        fill: #21396a;
      }

      .st183 {
        fill: #374568;
      }

      .st184 {
        fill: #1a3458;
      }

      .st185 {
        fill: #1d3154;
      }

      .st186 {
        fill: #3e4869;
      }

      .st187 {
        fill: #273e6b;
      }

      .st188 {
        fill: #9ed5c6;
      }

      .st189 {
        fill: #233861;
      }

      .st190 {
        fill: #253c5d;
      }

      .st191 {
        fill: #a2a6ae;
      }

      .st192 {
        fill: #a8a9b2;
      }

      .st193 {
        fill: #bcbcc9;
      }

      .st194 {
        fill: #253b61;
      }

      .st195 {
        fill: #37456a;
      }

      .st196 {
        fill: #3b446a;
      }

      .st197 {
        fill: #3986b0;
      }

      .st198 {
        fill: #aaabad;
      }

      .st199 {
        fill: #223c73;
      }

      .st200 {
        fill: #2e3a61;
      }

      .st201 {
        fill: #313b52;
      }

      .st202 {
        fill: #274164;
      }

      .st203 {
        fill: #2686c2;
      }

      .st204 {
        fill: #24345c;
      }

      .st205 {
        fill: #1c3d6b;
      }

      .st206 {
        fill: #29406f;
      }

      .st207 {
        fill: #b9bfc4;
      }

      .st208 {
        fill: #1d3a59;
      }

      .st209 {
        fill: #1f4075;
      }

      .st210 {
        fill: #223a6d;
      }

      .st211 {
        fill: #253d69;
      }

      .st212 {
        fill: #c6c5cf;
      }

      .st213 {
        fill: #213c70;
      }

      .st214 {
        fill: #446d8e;
      }

      .st215 {
        fill: #324370;
      }

      .st216 {
        fill: #cfe9d9;
      }

      .st217 {
        fill: #223b6f;
      }

      .st218 {
        fill: #bac7d5;
      }

      .st219 {
        fill: #213b61;
      }

      .st220 {
        fill: #273e6c;
      }

      .st221 {
        fill: #1a365b;
      }

      .st222 {
        fill: #293a65;
      }

      .st223 {
        fill: #2b3f6e;
      }

      .st224 {
        fill: #4188a8;
      }

      .st225 {
        fill: #2c577c;
      }

      .st226 {
        fill: #1f3761;
      }

      .st227 {
        fill: #acb0bf;
      }

      .st228 {
        fill: #f4f3f4;
      }

      .st229 {
        fill: #233d6e;
      }

      .st230 {
        fill: #344168;
      }

      .st231 {
        fill: #b3bfce;
      }
    </style>
  </defs>
  <path class="st70" d="M4.5,3.8c0-.2.1-.5.2-.8.8-.7,1.8-.5,2.8-.6,1.2,0,2.3,0,3.5.1,1.2.4,2.4,0,3.7-.3.4,0,.8,0,1.2,0,.7.3,1.4.7,2.2.3.6-.1,1.3,0,1.9,0,1.4.6,2.9-.4,4.3,0,1.1.9.7,1.4-.4,1.6-1.3.2-2.6,0-3.9,0-.8,0-1.5-.2-2.2.1-.2.2-.2.4-.2.7.2.3.5.4.7.6,0,.2.2.3.2.5,0,.2,0,.3-.2.5-.5.3-1.1.1-1.7.1-.3,0-.5-.1-.8-.2-.5-.1-.9-.3-1.3-.6-.4-.3-.9-.7-.7-1.1.6-1.4-.6-.4-.8-.7-.7,0-1.3,0-2,0-1.4,0-2.9,0-4.3,0-.7,0-1.5,0-2.1-.6h0Z"/>
  <path class="st145" d="M20.9,1c1.1.2,2.2.3,3.4.4-.2,1.7-1.7,1-2.6,1.3-1.2,0-2.4-.2-3.6-.2-1.2.4-2.5-.5-3.7,0-.6.2-1.3,0-1.9.3-.2,0-.4,0-.6,0-.6-.2-1.2-.2-1.8-.3-1.5-.4-3.2.4-4.5-.7,0-.3-.2-.7.2-.9,3-.2,6.1-.2,9.1,0,1.1,0,2.2,0,3.2,0,1,.5,2,.3,2.9,0h0Z"/>
  <path class="st120" d="M37.7,25.9c-.2,2.9-.3,5.8-.5,8.8,0,.5.2,1.3-.7,1.2-.7,0-.6-.8-.6-1.4,0-2-.2-3.9,0-5.8.3-2.4-.7-3.4-2.9-3.5.5-1.2,1.8-.2,2.5-.8.5-.4,1.1-.7,1.7,0,.9.3,1.8.6.5,1.5h0Z"/>
  <path class="st31" d="M39.8,4.7c-.6.2-1.3.3-1.9.5-.9.8-.3,1.9-.4,2.9-.1.7.1,1.5-.2,2.2,0,1.2,0,2.5,0,3.8,0,.4.2,1-.4,1-.7,0-.8-.5-.8-1,0-2.2-.1-4.5,0-6.7.1-1.7-.2-2.9-2.1-3,.2-1.4,1.5-.2,2.1-.8h4.6c.6,1-.4.9-.8,1.2h0Z"/>
  <path class="st109" d="M24.6,23.8c-.1.3-.2.7-.4,1-.9.6-1.9,0-2.8,0-1.3,0-2.6,0-3.9.4-.3,0-.7,0-1,.2-.6,0-1.3,0-1.9.2-.6.2-1.2,0-1.8,0-.6-.2-1.2.3-1.8,0-.3-.2-.9-.1-.7-.8,1.3-1.2,3.2-.6,4.6-1.5.3-.2.7,0,.7-.5,0-.2-.1-.5,0-.7.1-.3.4-.4.6-.5,1.1,0,2,.7,3.1.7.2,0,.4,0,.5.1.5.2,1,.3,1.6.3.2,0,.3,0,.5,0,.2,0,.3,0,.5.1.3.1.6.2.9.3.3,0,.6.2.8.4.1,0,.2.2.4.3h0Z"/>
  <path class="st220" d="M110.7,7.5c1.6-.8,2.1.5,2.5,1.5.5,1,.7,2.2.9,3.3.2,1.1.2,2.1,1.2,2.9.5.3,0,.7-.3.9-.6.4-1.2,0-1.8,0-1-1.8-1-3.9-1.6-5.9-.2-.8-.5-1.4-1.3-1.6-.3-.5.2-.7.3-1.1h0Z"/>
  <path class="st187" d="M121.6,14.8c-1,.5-2.2.5-3.2.4-1.5-.2-2.4-1.3-2.1-2.8.4-1.8,1.2-3.7,3.2-4.4.3.2.4.5.4.8-.2,1.6-1.5,3.3.4,4.7.4.5,1.5.2,1.4,1.2h0Z"/>
  <path class="st158" d="M77.6,32.3c-2.1-.9-2.2-1.8-.5-3.3.8,0,.8.4.5.9,0,.7.3,1,.8,1.2.8.3,1.7.2,2.5,0,.3,0,.7,0,1,0,1,.4,2.2.6,2.3,2,0,1.4-.9,2-2.1,2.4-.5-.3-1.2.3-1.7-.3.2-.1.5-.3.7-.3.7-.2,1.4-.5,1.3-1.3,0-.8-.8-.8-1.4-.9-.5,0-.9-.2-1.4-.3-.7-.4-1.4-.3-2.1,0h0Z"/>
  <path class="st101" d="M75.5,13.5c-.7-.8-.7-1.8-.8-2.7-.2-1.7-1-2.3-3-2.4,1.5-.7,2.5-2.2,3.8-.4-.1,0-.3.2-.3.3,0,.1.2.1.3,0,.8,2.3,1.5,4.6,2.3,6.8.3.8-.2,1.2-.6,1.3-.9.3-1.5-.2-1.4-1.2-.4-.5.2-1.2-.4-1.7h0Z"/>
  <path class="st47" d="M5.6,24c-.3-3,0-5.9,0-8.9.2-1.2.2-2.5,0-3.7-.4-1.6,0-3.2-.2-4.7,0-.1,0-.2,0-.3,0-.2.1-.5.3-.6.5-.2.9-.2,1.3.2.3.4.4.9.4,1.4,0,1.5.1,3-.1,4.4-.6,2.7-.1,5.3-.3,8,0,.8,0,1.6.2,2.3.2.7.2,1.5,0,2.2,0,.2-.2.4-.3.5-.9.4-1.1-.2-1.2-.9h0Z"/>
  <path class="st92" d="M24.3,23.9c-.4.3-.6-.2-.9-.3-1-1.6-.4-3.4-.6-5.1,0-3.2,0-6.3,0-9.5,0-.8,0-1.7.3-2.4.3-.4.7-.4,1.1-.3,1,1.4.4,3,.6,4.5,0,.2,0,.5,0,.8-.5,1.1-.3,2.2-.3,3.4,0,1,.1,2-.2,3h0c.2,2,.3,4,0,5.9h0Z"/>
  <path class="st210" d="M54.1,35.8c-1.7.6-2.1-.8-2.4-1.8-.4-1.5-.4-3.2-.6-4.7,0-.6,0-1.1.8-1.1.8,0,.9.4,1,1,.3,1.8-.2,3.6.7,5.3.3.4.8.8.4,1.4Z"/>
  <path class="st85" d="M99.4,36.1c-.8-1.4-.8-3-1.2-4.6-.2-.7-.4-1.5-.9-2-.2-.3-.7-.4-.4-.9,1.9-1.2,2.5.5,2.8,1.6.6,1.8.7,3.7,1.1,5.5-.3.5-.8.7-1.4.5Z"/>
  <path class="st155" d="M69.6,8c.5.6.2,1.1,0,1.7-1.1,1.2.8,1.6.7,2.5-.2.7-.5,1.4-.7,2.2-.1.6-.3.9-1,.8-.5,0-.8-.4-.8-.8.4-2.2-.5-4.5.4-6.7.5,0,.9.2,1.3.4h0Z"/>
  <path class="st206" d="M126.6,11c.3,1,.7,2,.9,3,.3,1.1-.2,1.5-1.3,1.3-.5-.8-.2-1.9-1.1-2.5-.3.5-.8.8-1.4.8-.2-.1-.3-.3-.3-.5.5-1.5.8-3,1-4.5,1.3-.6,2.1-.4,2,1.3,0,.4,0,.8.2,1.2h0Z"/>
  <path class="st223" d="M52.3,8.5c-.1.4-.3.8-.4,1.3-.2,1.5-.3,3.1,0,4.6,0,.6-.5.4-.8.3-.5-2.9,0-5.8-.2-8.6,0-1.4.2-2.9-.2-4.3,0-.5-.1-.8.5-.8.6,0,1,.3,1.1.7.2.6.4,1.2,0,1.8-.6,1.7-.3,3.3-.2,5h0Z"/>
  <path class="st21" d="M88,13.2c-.3.1-.7.3-1.1.4-.4.2-.6,0-.7-.3.3-1.6,1.3-3.2.2-4.9,0-.3.1-.6.4-.8l.8.6c1,.1,1.6.5,1.5,1.7,0,.5-.1,1.1.1,1.6,0,1.4.3,2.8-.3,4.2-.7.2-.6-.3-.7-.7,0-.6.3-1.2-.3-1.7h0Z"/>
  <path class="st90" d="M93.1,15c-.9-.3-1.7-.7-1.7-1.9.6-.8.4-1.8.7-2.7.6-.6.7-1.7,1.7-2,.4-.3.8-.2,1,.3-.1,1.5-1.5,2.9-.4,4.5.2.6,1,.7,1.2,1.5-.8.5-1.7.1-2.5.3h0Z"/>
  <path class="st71" d="M101.8,11.4c.3.8-.3,2,.9,2.6-.2,1.2-.9,1.1-1.8.8-.6-.5,0-2-1.5-1.7-.4.2-.6,0-.7-.4.2-1.1.6-2.2.7-3.3,0-.2.2-.4.4-.5.5,0,1.3-.3,1.5-.6.9.9,0,2.1.5,3h0Z"/>
  <path class="st162" d="M73.6,29.8c-.2,1.9-.4,3.6-.6,5.3,0,.4,0,.9-.5,1-.7,0-.7-.5-.7-1,0-1.8,0-3.6,0-5.4,0-.6-.5-1.7.6-1.6.9,0,1.2,1,1.3,1.7h0Z"/>
  <path class="st141" d="M55.7,14.8c-.3,0-.6-.1-.7-.5.4-.5.4-1.2.4-1.8,0-.4,0-.8.1-1.2-.3.5-.1,1-.2,1.5,0,.5,0,1-.4,1.4-1.2-2.7,0-5.1,3.3-6.6.3,0,.5.3.5.6-1.2,1.5-2.3,3-1.2,5.1,0,.2,0,.4,0,.6-.3.3-1.1.1-1,.9-.3,0-.6,0-.8-.1h0Z"/>
  <path class="st76" d="M47.8,28.6c1.9,1.1,2.2,3.2.5,4.6-.6.5-1.2.9-1.8,1.3-.2-.1-.2-.3-.3-.5.8-1.7.8-3.4.2-5.2.4-.4.8-.6,1.4-.3h0Z"/>
  <path class="st123" d="M61.6,7.2c2.6.5,3.7,2.1,3,4.7-.1.5.4,1.1.7,1.6.9,1.5.2,1.8-1.2,1.6,0-1.7-.1-3.3-1.3-4.7-.6-.6-1.1-1.3-1.5-2.1-.2-.4-.3-.7-.2-1.1.2-.2.3-.2.5,0h0Z"/>
  <path class="st60" d="M39.9,11c.2-.5.3-1,.7-1.3.6-.5.9,0,1.2.4.1.3.2.6.2.9,0,.4-.5.6-.5,1,.3.7.5,1.4,1.2,1.9.3.4,1,0,1.3.7-1.2.9-2.3.1-3.4-.2-.4-.1-.6-.5-.7-.8.3-.8.1-1.7,0-2.5h0Z"/>
  <path class="st93" d="M41.5,10.6c0-.5-.3-.9-.9-.9,2.1-2.8,4.5-3.3,7.2-1.7v.3c0,.5,0,.9-.3,1.3-.3.3-.6.4-1,.2-1.3-1.6-2.1-1.6-3.5-.2-.4.4-.7,1.1-1.4,1Z"/>
  <path class="st77" d="M40.6,14.3c1-.1,1.9.7,3,.3-.3-.2-.6-.5-.9-.7,1.6.3,3.2.2,4.6-.9.4-.3.8-.8,1.2-.1.3.5,0,.9-.4,1.2-1.8,1.4-5.3,1.5-7.5.3h0Z"/>
  <path class="st2" d="M62.9,10.2c1.4.8,2.1,3.5,1.2,5-.1-.1-.4-.2-.4-.4-.3-2.1-1.2-1.9-2.5-.8-.4.2-.5,0-.7-.4.6-1.3,1.6-2.3,2.3-3.4h0Z"/>
  <path class="st226" d="M56.6,31.9c.2-.8.4-1.6.5-2.5.8-.5,1.3-.3,1.3.7,0,.5,0,1,.2,1.4l1,3.8c-1.1,0-.9-.7-1-1.3-.2.3.1.7,0,1.1,0,.3-.1.6-.4.8-.6-.8-.3-1.7-.4-2.6-.2-.2-.2-.9-.8-.5h0c-.8,0-.7-.4-.4-.9Z"/>
  <path class="st17" d="M40.2,31.4c.2-.6.3-1.2.9-1.6.5,0,.9.2,1.1.8,0,.4,0,.7-.3,1-.7.6-.2,1.2,0,1.8.2.3.3.7.3,1,0,.2,0,.4-.2.5-.3.3-.6.5-1,.5-.3,0-.6,0-.8-.2-.4,0-.5-.3-.4-.7-.5-1.2.2-2.2.4-3.2h0Z"/>
  <path class="st170" d="M90.9,28.4c1.3-.7,1.7.4,2.2,1.1.5.7.3,1.7,1.2,2.3.2.1.2.3.2.5-1,.1-.8,1.3-1.5,1.8-.7-1.5-.4-3.3-1.6-4.6-.4-.3-.8-.5-.4-1.1h0Z"/>
  <path class="st32" d="M17.2,24.9c2.4-.7,4.7-.7,7.1,0,.2.5,1,.3,1.1,1.2-2-.2-4-.9-6.1-.8-.8,0-1.6.7-2.2-.4Z"/>
  <path class="st180" d="M62.5,28.7c.6-.1,1.2,0,1.3.8-.3.8-.5,1.7.1,2.5,0,.8,0,1.5-.1,2.2-.7.3.2,1.9-1.2,1.6-.4-2.3-.4-4.7,0-7Z"/>
  <path class="st160" d="M88,13.2c1.2.5-.2,1.9.9,2.4-.2,1.9-.4,3.8-2.1,5-.8,0-.7-.3-.4-.8,1.8-1.9,1.3-4.4,1.6-6.7h0Z"/>
  <path class="st95" d="M88.1,29c.2.6-.4,1.3.4,1.7.5.7.2,1.4,0,2.1h0c-.6.6-.4,1.5-.7,2.2-.2,1.2-.7.7-1.2.2-.2-1.7.4-3.4.2-5.1,0-.7.1-1.6,1.3-1.1h0Z"/>
  <path class="st222" d="M79.7,10.6c.8-1.2,1.7-2.5,3.3-2.9.2.2.3.5.2.8-1,1.6-2,3.2-.5,5.1,0,.2,0,.4-.2.5-.3.1-.6.2-.9,0-.6-.2-1-.7-1.1-1.4-.1-.8,0-1.7-.8-2.2h0Z"/>
  <path class="st144" d="M41.9,30.8c-.3-.3-.6-.6-.9-.9,2-1.6,4.2-2.3,6.8-1.3-.5.2-.9.3-1.4.5-1.5.5-3,1.2-4.5,1.7h0Z"/>
  <path class="st64" d="M46.6,9.7c.3,0,.6,0,.8-.4.2-.2.4-.3.7-.2.3.1.3.4.4.6-1.4,2.2-3.5,2.3-5.7,2,0-1,1-.7,1.5-1.1.8-.2,1.5-.9,2.3-1h0Z"/>
  <path class="st46" d="M126.6,11c-.4-.3-.3-.8-.4-1.3-.1-1.5-.8-1.5-1.8-.6-1.2-.1-2.3-.4-3.3-.9-.2-.3-.2-.6,0-.9,1.8-.8,3.3.5,5,.7.9,0,.3,2,.4,3h0Z"/>
  <path class="st159" d="M98.9,12.6c.2.2.3.3.5.5-1.7,1.9-3.9,2.4-6.3,1.9.6-.4,1.3-.1,2.1-.3-.3-.5-1.2-.5-1.2-1.2,1.7,0,3.4-.3,5-.8h0Z"/>
  <path class="st52" d="M41.9,34.9c0-.2,0-.3,0-.5,1.5-.2,3-.4,4.6-.5,0,.2,0,.4,0,.6-2,1.8-4.2,2-6.3.8.3,0,.6,0,.9,0,.3-.2.7,0,.8-.4h0Z"/>
  <path class="st57" d="M88.1,29c-.8,0-1.1.6-1,1.1.6,1.8-.4,3.4-.3,5.2.1.1.2.2,0,.3,0,0,0,.1-.1.1-.8-2.2-.3-4.4-.3-6.6,0-.8,1-.8,1.6,0h0Z"/>
  <path class="st15" d="M50.8,1.8c.7,2.8.2,5.7.4,8.6,0,1.4,0,2.9,0,4.3-.3,0-.4-.3-.4-.6,0-4.1,0-8.2,0-12.4Z"/>
  <path class="st178" d="M105.2,10.8c0-.5-.1-1.1,0-1.6,0-.6-.4-1.5.7-1.6,1.1,0,1.3.7,1,1.7-.4.6.2,1.4-.2,2-.6-.2-.9.7-1.5.4,0-.3,0-.6,0-.9h0Z"/>
  <path class="st212" d="M4.1,8.4c-.2-.9-2.2-.3-1.7-1.9,0-.2.2-.4.4-.5.9-.3,1.8-.4,2.5.4h0c.5.9.5,1.7,0,2.5-.5.1-.8-.3-1.2-.5h0Z"/>
  <path class="st211" d="M66.2,29.4c0-.6-.1-1.6.8-1.5,1.1,0,.4,1,.6,1.6h0c.8.2,2.1.8,1.6,1.4-.7.9-2,0-2.9-.5-.3-.3-.3-.7,0-1h0Z"/>
  <path class="st168" d="M28.5,6.5c0,.3,0,.6-.4.7-.5.3-1,.6-1.6.8-.7,0-1,1.6-2,.6,0-.9-.3-1.9.8-2.5,1.1-.3,2.2-.6,3.2.4h0Z"/>
  <path class="st230" d="M80.1,28.2c1.1-.3,2.2-.1,3.3.1.5.1,1.1.5.8,1.2-.3.8-.9.5-1.3.2-1-.6-2.1-.7-3.2-.8-.2-.4.2-.5.4-.8h0Z"/>
  <path class="st94" d="M86.4,13.1c.2.2.4.3.6.5-2,1.5-4.1,2.2-6.5,1.2.2-.3.5-.4.8-.4.3,0,.7,0,1,0,.2,0,.3.2.5,0-.2,0-.3-.3-.3-.5h0c1.2-.7,2.4-1,3.8-.9h0Z"/>
  <path class="st88" d="M60.8,13.4c.2.2.3.3.5.5-1.7,1.4-3.6,1.7-5.6.8.3,0,.6,0,.9,0,.2-.4,1,0,.8-.8,0-.1,0-.2,0-.3,1.1-.5,2.2-.5,3.3-.2h0Z"/>
  <path class="st202" d="M2.5,6.6c-.6-.3-1.6.3-1.7-1-.1-1.1.6-2,.6-3,.8,0,1.4.4,1.6,1.2.1.4-.2.6-.4.8-.2.2-.3.5-.2.8,0,.1.2.3.2.4,0,.2,0,.3-.1.4,0,0,0,.2,0,.2h0Z"/>
  <path class="st118" d="M5,8.9c.8-.7.4-1.6.3-2.4,1,1.6.3,3.3.5,5-.1.2-.2.5-.4.5-1.1.2-1.3-.7-1.5-1.4.8-.3.7-1.2,1.2-1.7h0Z"/>
  <path class="st164" d="M56.6,31.9c0,.3,0,.7.4.9-.5,1.5-1.2,2.8-2.9,3-.1-.5-.3-.9-.4-1.4,2.2.5,2-1.6,2.9-2.5Z"/>
  <path class="st62" d="M19.2,3.9c1.5,0,3,0,4.5,0,1.1,0,.7-.4.2-.8-.1-.2-.1-.4,0-.5.4-.3.8-.1,1.2,0,.7.2.3.9.6,1.3,0,.5-.3.7-.6.8-1.9.2-3.7.4-5.6-.2-.2-.2-.3-.4-.2-.6h0Z"/>
  <path class="st3" d="M66.2,29.4c0,.3,0,.7,0,1-1.2,1-1.8,2.4-2.5,3.7,0-.7,0-1.5,0-2.2-.1-.2,0-.3,0-.4,1.1-.4,1.4-1.7,2.5-2.1h0Z"/>
  <path class="st171" d="M14.8.9c-3,0-6.1,0-9.1,0,3-.6,6.1-.3,9.1,0Z"/>
  <path class="st59" d="M88.5,32.8c0-.7,0-1.4,0-2.1,1-.6,1.1-2.1,2.5-2.3.2.4.3.7.4,1.1-1.9.3-2,2.2-2.9,3.3h0Z"/>
  <path class="st110" d="M71.6,24.4c.5-.7,1.1-1,1.8-.2.5.5.6,1.2.3,1.7-.5.8-1.3.9-2,.2-.2-.6.9-1.2-.1-1.7h0Z"/>
  <path class="st178" d="M106.9,13.5c-.5,1.1-1,1.5-1.7,1.2-.4-.7-.1-1.5-.2-2.2.8-.8,1.3,0,1.9.4.2.2.2.4,0,.6Z"/>
  <path class="st185" d="M28.5,6.5c-1.1,0-2.2,0-3.4,0-.2.2-.5.2-.7,0-.3,0-.6,0-.9,0-.1-.1-.1-.2-.1-.3,0-.1,0-.2,0-.2,1.2-.7,2.5-.2,3.7-.5.2-.1.4-.4.6-.6.1-.2.2-.3.4-.4.3-.1.7-.4.9.2,0,.6.2,1.2-.2,1.7-.1,0-.2.1-.4.2h0Z"/>
  <path class="st204" d="M94.3,32.4c0-.2,0-.3,0-.5.5-1.3,1-2.7,2.6-3.2.1.3.3.6.4.9-2.2.3-1.8,2.6-2.9,3.8-.3-.3-.3-.6,0-1h0Z"/>
  <path class="st148" d="M37.7,25.9c.8-.8,0-1.1-.5-1.5.8,0,1.7,0,2.5,0,.5,0,1,.2.9.8,0,.5-.5.6-.9.6-.7,0-1.4-.1-2,.2h0Z"/>
  <path class="st26" d="M10.5,24.8c.1.4.5.5.8.5,0,.4,0,.6-.5.4-.2,0-.4,0-.5,0-1.2.7-2.5.2-3.7.2-.4-.2-.9,0-1.2-.4,0-.2,0-.3,0-.5.3-.2.8.1,1.2-.3h.1c.1,0,.2-.2.4-.3.3-.1.7,0,1,0,.3,0,.6.2.9.2.2,0,.5,0,.7,0,.2,0,.3,0,.5,0,0,0,.1,0,.2.1h0Z"/>
  <path class="st40" d="M83,8.4v-.8c1.2-.8,2.5-.7,3.8-.2,0,.3,0,.7,0,1-1.3.1-2.5.2-3.8-.1Z"/>
  <path class="st72" d="M95.7,7.7c1.4-1,2.7-.5,4.1,0,0,.7-.5.8-1,1-.9,0-1.8,0-2.6-.3-.3-.1-.5-.4-.5-.7h0Z"/>
  <path class="st215" d="M106.9,13.5c0-.1,0-.3,0-.4-.4-.5-.2-1.1-.3-1.7,0-.7-.2-1.5.3-2.1.3.2-.5,1.6.8.8.5-.1.7,0,.6.6-.4,1-.9,1.9-1.3,2.8h0Z"/>
  <path class="st24" d="M6.6,25.7c1.2,0,2.4,0,3.6,0-1.3,1.5-2.8.7-4.2.4,0-.3.4-.3.6-.5h0Z"/>
  <path class="st18" d="M99,8.5c.3-.3.6-.5.8-.8.3,0,.5,0,.8,0,.3.2.5.4.4.7.3,1.4-.5,1.1-1.3.9-.6,0-.9-.2-.8-.9h0Z"/>
  <path class="st111" d="M108.2,10.7c-.2-.2-.4-.4-.6-.6.8-1.1,1.6-2.2,3-2.6-.1.4-.2.7-.3,1.1-.7.7-1.4,1.4-2.1,2.1h0Z"/>
  <path class="st1" d="M28.8,4.3c-.2.1-.5.2-.7.4-.6,0-1.4,0-1.4-.9.9-1.5.9-1.5,2.2.1.1.1.2.2,0,.3,0,0-.1,0-.2,0h0Z"/>
  <path class="st217" d="M94.3,32.4c0,.3,0,.7,0,1,0,.5-.1,1-.2,1.5-1,.7-.7-.7-1.2-.8h0c.3-.6-.6-2.2,1.3-1.7h0Z"/>
  <path class="st56" d="M62.5,28.7c0,2.3,0,4.7,0,7-.6-2.3-.6-4.7,0-7Z"/>
  <path class="st150" d="M4.5,3.8c2.3,0,4.5,0,6.8,0,0,.3,0,.5-.3.6-1.9.6-3.9.3-5.9.3-.4,0-.7-.2-1-.5,0-.3,0-.4.3-.5h0Z"/>
  <path class="st151" d="M58.6,31.5c-1-.3.2-2.3-1.5-2.1,0-.7,0-1.3.9-1.3.8,0,.7.7.7,1.3,0,.7,0,1.4-.1,2.1h0Z"/>
  <path class="st45" d="M80.5,35.3c.6.1,1.2-.2,1.7.3-.2,0-.5.1-.7.2-1.5.3-2.9.2-4.4,0h-.3c-.2-.5,0-.8.4-1,1.1.2,2.2.3,3.3.5h0Z"/>
  <path class="st29" d="M99.4,36.1c.5-.2.9-.3,1.4-.5.6,0,1,.1.9.8,0,.5-.3.7-.7.5-.6-.2-1.7.7-1.6-.8h0Z"/>
  <path class="st196" d="M123.6,12.9c0,.2,0,.4,0,.6-.4.9-1.3,1.1-2.2,1.2-.4-.7-1.3-.2-1.7-.8,1.1-.7,2.3-1.2,3.7-1h0Z"/>
  <path class="st121" d="M24.3,23.9c0-2,0-4,0-6,.6,2,.2,4,.3,6h-.2s-.2,0-.2,0h0Z"/>
  <path class="st23" d="M71.6,24.4c.5,0,1.3-.1,1.5.5.2,1-1.1.5-1.3,1.2-.6-.5-.7-1.1-.1-1.7h0Z"/>
  <path class="st205" d="M79.7,10.6c1.7,0,1.1,1.2,1.2,2.1-.3.3-.6.4-1,.3-.6-.2-.2-.8-.3-1.1,0-.4,0-.8.1-1.2h0Z"/>
  <path class="st161" d="M61.2,7.3c.1.3.2.6.4.9-1,.5-1.9.6-2.8-.1-.2-.1-.3-.2-.5-.4.3-.2.6-.4.8-.5.7-.1,1.4-.3,2.1.1Z"/>
  <path class="st30" d="M36,3.5c-.5.8-1.6,0-2.1.8-.6,0-1.2.2-1.8-.6,1.3-.3,2.6-.3,3.8-.2h0Z"/>
  <path class="st173" d="M86.4,19.8c0,.3.1.7.4.8,0,.1-.1.3-.2.3-.6.2-1.2.3-1.7-.1-.2-.1-.3-.6-.2-.7.4-.7,1.1-.2,1.6-.3h0Z"/>
  <path class="st105" d="M80.1,28.2c-.1.2-.3.5-.4.8-.7.3-1.7,0-2.1,1,0-.4-.1-.8-.5-.9.9-.8,1.9-.9,3-.8Z"/>
  <path class="st16" d="M89.2,11.4c-.8-1,.2-2.8-1.6-3.3,1.3-.5,2-.3,1.7,1.3-.1.7,0,1.3-.1,2Z"/>
  <path class="st166" d="M24.3,11.5c0-.2,0-.3,0-.5.4-.3.2-1,.8-1.1.3,0,.6,0,.8.2,0,.6.3,1.3-.3,1.8-.5.2-1,0-1.3-.5h0Z"/>
  <path class="st104" d="M52.3,8.5c-.5-1.7-.7-3.4.2-5,0,1.7,0,3.3-.2,5Z"/>
  <path class="st11" d="M70.3,12.2c-.5-.8-2.2-1.2-.7-2.5.3.2-.4,1.3.7.8.5,0,.7,0,.5.6-.2.4-.4.8-.6,1.2h0Z"/>
  <path class="st72" d="M101,8.5c-.2-.2-.3-.5-.4-.7,1-.2,1.2.4,1.2,1.2s0,1.7,0,2.5c-.8-.8.1-2.1-.8-2.9h0Z"/>
  <path class="st44" d="M5.5,1.8c1.7.2,3.3-.4,5,.4-.6.8-1.4.4-2.2.5h-1.6c-.4,0-.9,0-1.2-.4,0-.1,0-.3,0-.4h0Z"/>
  <path class="st37" d="M25.9,10.1c-.2,0-.4,0-.6,0-.6-.2-1-.6-.6-1.2.7-.2.9-1.1,1.7-1.2.2,0,.3.2.4.3-.7.5-1.5,1-.9,2Z"/>
  <path class="st5" d="M25.1,2.6c-.4,0-.8,0-1.2,0-.5.3-1.1.1-1.6.2-.3,0-.6-.3-.5-.7.9-.2,2,.4,2.5-.8.6.2.3.9.8,1.1h0Z"/>
  <path class="st7" d="M37.3,10.3c.2-1.7-.7-3.5.6-5.1-.6,1.7.2,3.5-.6,5.1Z"/>
  <path class="st174" d="M51.9,14.4c-.6-1.5-.6-3.1,0-4.6.3,1.5,0,3.1,0,4.6Z"/>
  <path class="st68" d="M35.6,24.4c-.7.8-1.8,0-2.5.8-.3,0-.7,0-.8-.3,0-.4.2-.4.5-.4.9,0,1.9,0,2.8,0h0Z"/>
  <path class="st186" d="M70.9,11.1c-.2-.2-.4-.4-.5-.6.4-.6.6-1.5,1.7-1.6,0,1-.6,1.6-1.1,2.2Z"/>
  <path class="st13" d="M24.3,11.5c.4.2.9.3,1.3.5-1.4.6-.7,1.9-1,2.9-.2,0-.3,0-.3-.1,0-1.1,0-2.1,0-3.2h0Z"/>
  <path class="st156" d="M92.2,10.4c-.2.9.7,2.1-.7,2.7-.2-1,0-1.9.7-2.7Z"/>
  <path class="st195" d="M77,35.8h4.4c-1.5.5-2.9.6-4.4,0Z"/>
  <path class="st137" d="M5,8.9c-.1.8.2,1.8-1.2,1.7,0-.7.9-1.3.3-2.1.3,0,.8,0,.9.4h0Z"/>
  <path class="st127" d="M5.3,12c.1-.2.3-.4.4-.5,0,1.2.3,2.5-.3,3.8,0-1.1,0-2.1-.1-3.2h0Z"/>
  <path class="st184" d="M6.6,2.2c.3,0,.6,0,.9,0,.2.3.2.6,0,.8-.9,0-1.9,0-2.8,0,0-.1,0-.2,0-.4.6-.6,1.4,0,2-.5h0Z"/>
  <path class="st41" d="M4.2,4.3c.3,0,.5,0,.8,0,.1.2,0,.4,0,.5-.2.1-.3.2-.5.2-.4,0-.8,0-1.2,0-.5-.1-1.1,0-1.1-.8.3-.1.8,0,.9-.5.4.2.8.3,1.2.4h0Z"/>
  <path class="st136" d="M58.2,35.9v-1c.8,0,1,.8,1.7.8-.5,1-1,1.3-1.7.2Z"/>
  <path class="st195" d="M77.2,34.8c-.1.3-.3.6-.4.9-.8-.2-1.1-.7-.7-1.3.5-.7.8,0,1.1.4h0Z"/>
  <path class="st131" d="M26.7,3.9c.2.8,1.2.2,1.4.9h0c-.2.2-.5.4-.8.4-.7,0-1.3,0-1.9-.2-.2-.2-.2-.3-.1-.5.2-.2.3-.3.5-.5.4.3.7.3,1.1,0h0Z"/>
  <path class="st154" d="M121.2,7.3v.8c-.4.6-.9,1-1.6,1,0-.3,0-.7,0-1,.5-.4,1-.8,1.7-.7h0Z"/>
  <path class="st183" d="M44.4,11c-.5.2-1.1.5-1.7.7-.4,0-.8.2-1.2.2.1-.3.2-.7.4-1,.8-.7,1.7-.8,2.5,0Z"/>
  <path class="st215" d="M105.4,12.3c0,.8,0,1.6,0,2.4-.7-1.3-.2-2.6,0-3.9,0,.3.1.6.2.9.1.2.1.4,0,.5h0Z"/>
  <path class="st209" d="M59.9,35.7c-.8.2-1.2-.4-1.6-.8,0-.3,0-.6,0-1,.5.6.9,1,1.2,1.5.2,0,.4.2.3.4Z"/>
  <path class="st84" d="M100.9,14.8c.7,0,1.4,0,1.8-.8.8.3.4.7,0,.9-.6.4-1.3.9-1.8,0h0Z"/>
  <path class="st57" d="M87.6,34.9c0-.8.1-1.6.9-2.1-.1.7.1,1.5-.5,2.1-.2.2-.3.2-.5,0h0Z"/>
  <path class="st194" d="M40.2,31.4c-.1,1.1-.3,2.1-.4,3.2-.7-1.2-.3-2.2.4-3.2Z"/>
  <path class="st181" d="M125.2,12.7c1.2.5,1,1.5,1.1,2.5-.9-.6-.7-1.7-1.1-2.5Z"/>
  <path class="st130" d="M95.7,7.7c0,.1.2.3.3.4,0,.9-.5,1-1.3.8-.2-.3-.5-.3-.8-.4.4-.7,1.2-.5,1.8-.8h0Z"/>
  <path class="st96" d="M10.8,25.7c.2-.1.3-.3.5-.4.6,0,1.1,0,1.6-.4.3.2.3.5.2.8-.2.2-.4.2-.6,0-.5,0-1.2.8-1.7,0h0Z"/>
  <path class="st128" d="M79.6,11.8c.5.2,0,.6,0,.9.3.3.6.6.7,1,0,.3,0,.6-.3.8-1-.8-1.3-1.7-.4-2.8Z"/>
  <path class="st157" d="M6.6,25.7c-.2.2-.4.3-.6.5-.7,0-1.3,0-1.8-.6.4-.7.8.2,1.1,0,.4,0,.8.1,1.2.2Z"/>
  <path class="st179" d="M17.2,24.9c.6.6,1.5.1,2.2.4-.8.4-1.7.3-2.6.3-.1,0-.2-.2-.1-.2,0,0,0-.1.1-.1,0-.2.2-.4.5-.3h0Z"/>
  <path class="st34" d="M39.9,11c.4.8.8,1.7,0,2.5-.3-.8-.3-1.7,0-2.5Z"/>
  <path class="st121" d="M24.3,14.7c0,0,.2,0,.3.1,0,1,.1,2.1-.3,3.1v-3.2h0Z"/>
  <path class="st107" d="M20.9,1c-1,.6-2,.7-2.9,0,1,0,2,0,2.9,0Z"/>
  <path class="st103" d="M12.5,25.8c0-.1.2-.2.3,0,.5-.4,1.1-.1,1.7-.2.2,0,.5,0,.6.3-.9.5-1.7.6-2.6,0h0Z"/>
  <path class="st98" d="M61.2,7.3c-.7,0-1.4,0-2.1-.1.8-.5,1.7-.5,2.5,0-.1,0-.3,0-.4.1Z"/>
  <path class="st189" d="M69.6,8c-.6.3-1,.3-1.3-.4.7-.7,1-.1,1.3.4Z"/>
  <path class="st87" d="M63.7,31.5c0,.1,0,.2,0,.4-.6-.8-.6-1.7,0-2.5v2.1h0Z"/>
  <path class="st54" d="M87.6,34.9h.5c0,1-.1,1.7-1.3.8,0-.1,0-.3,0-.4.5.3.8.3.8-.4h0Z"/>
  <path class="st9" d="M80.9,31.2c-.8.5-1.7.6-2.5,0,.8,0,1.7,0,2.5,0Z"/>
  <path class="st170" d="M93,34.1c.5.1.6.8,1.2.8,0,.5-.5.8-.8.6-.6-.3-.3-.9-.4-1.4h0Z"/>
  <path class="st151" d="M57,32.8c0-.4.1-1,.5-.9.6.2.2.9.3,1.4-.3-.2-.3-.7-.8-.5h0Z"/>
  <path class="st116" d="M28.8,4.3c0-.1,0-.2,0-.4.6.8.6,1.5,0,2.3,0-.6,0-1.3,0-1.9h0Z"/>
  <path class="st48" d="M75.5,8.3c0,.3,0,.8-.5.7-.2,0-.5-.4-.5-.6,0-.6.6-.2,1-.3h0c0,.1,0,.2,0,.2h0Z"/>
  <path class="st114" d="M6.6,24.8c-.2.8-.8.2-1.2.3,0-.4,0-.7,0-1.1.3.3.5.9,1,.8h0Z"/>
  <path class="st132" d="M26.8,8.1c-.1-.1-.3-.2-.4-.3.6-.1,1-.8,1.7-.5-.2.6-.7.8-1.3.9h0Z"/>
  <path class="st42" d="M77.6,32.3c.7-.5,1.4-.6,2.1,0-.7,0-1.4,0-2.1,0Z"/>
  <path class="st22" d="M80,14.6c0-.3,0-.7,0-1,.7-.2.9.5,1.3.7,0,.2,0,.3,0,.5-.3,0-.6,0-.9,0-.2,0-.3-.1-.5-.2h0Z"/>
  <path class="st20" d="M75.5,13.5c1,.4.4,1.1.4,1.7-.5-.5-.4-1.1-.4-1.7Z"/>
  <path class="st39" d="M39.8,4.7c.3-.4.9-.5.8-1.2.6,0,.6.5.4.9-.2.6-.8.3-1.2.3h0Z"/>
  <path class="st200" d="M113.2,16c.6-.4,1.2.2,1.8,0-.6.6-1.2.8-1.8,0Z"/>
  <path class="st201" d="M15.1,25.7h-.1c0,0-.2,0-.2,0-.3,0-.3-.2,0-.4.7,0,1.3,0,2,0v.4c-.5,0-1.1,0-1.6.1h0Z"/>
  <path class="st227" d="M6.6,2.2c-.5.8-1.4.2-2,.5,0-.5.5-.5.8-.5.4,0,.8,0,1.2,0Z"/>
  <path class="st93" d="M48.5,9.7c-.1-.2-.2-.3-.3-.4-.3-.3-.6-.7-.4-1.2h0c1.2,0,.8.9.7,1.6h0Z"/>
  <path class="st27" d="M13.4,3.9c.4.3,1.4.2.6,1.2-.2.3.3.7.7.9.2.3.3.5.1.8-.2.2-.5.3-.8.3-.8-.2-1.5.4-2.3.4-.3-.1-.6-.2-.9-.1-.2,0-.3,0-.5,0-.3-.2-.6-.3-.9-.4-.4,0-.7-.2-1-.4,0-.2,0-.4,0-.6.1-.1.3-.2.5-.3,1.3-.4,2.6.1,3.8-.4.2-.3.3-.6.4-.9,0-.2.2-.3.3-.4h0Z"/>
  <path class="st208" d="M21.8,2.2c.1.2.3.3.4.5-.7.9-1.6.5-2.5.3-.7,0-1.4,0-2.1,0-.1-.1-.2-.3-.1-.4.1-.2.4-.2.5-.4h3.8Z"/>
  <path class="st219" d="M12.2,2.6c.5-.3,1.1-.5,1.7-.4.2.3.6,0,.8.4-1.1.2-2.1,1.1-3.3.4.2-.3.5-.4.9-.4h0Z"/>
  <path class="st176" d="M18,6c-.4,0-1,0-1.3-.4.2-.2.4-.3.6-.4,1.5-.2,2.9-.4,4.3.2.2.2.3.4.2.7-.3.3-.6.4-1,.5-1,0-2,.2-2.9-.4h0Z"/>
  <path class="st61" d="M12.2,2.6c-.2.3-.5.4-.9.4h-3.8v-.8c.2,0,.3,0,.5,0,1.3.5,2.8-.1,4.1.4h0s0,0,0,0Z"/>
  <path class="st167" d="M19.7,3c.8-.1,1.7.3,2.5-.3.6,0,1.2,0,1.7,0v.4c-1.4,0-2.8,1.1-4.2,0h0Z"/>
  <path class="st8" d="M14.6,6.8c0-.3,0-.6,0-.9.5.2.9.3,1.3.5.2.4.3.9,0,1.3-.4.3-.9.3-1.3,0-.2-.3-.3-.6,0-.9Z"/>
  <path class="st169" d="M14.6,2.7c-.3,0-.7,0-.8-.4,1.4,0,2.8,0,4.1,0-.1.2-.3.3-.4.5-.6.4-1.1.3-1.7,0-.4,0-.8,0-1.3,0h0Z"/>
  <path class="st25" d="M18,6h2.9c0,.5-.3.6-.6.8-.4.2-.7.6-1,.9-.2,0-.3,0-.5,0-.5-.3-.4-.9-.8-1.3,0-.2,0-.3,0-.5h0Z"/>
  <path class="st33" d="M16.3,6.8c.5-.5,1.1,0,1.7,0,.4.6.2,1-.3,1.3-.6.2-1,0-1.5-.4,0-.3-.2-.6.1-.9Z"/>
  <path class="st69" d="M17.6,8c.1-.4.3-.8.4-1.2,0-.1,0-.2,0-.3,1-.2.7.7.9,1.1-.3.6-.7.8-1.3.4h0Z"/>
  <path class="st167" d="M15.9,2.6c.6,0,1.1,0,1.7,0v.3c-.8.8-1.3.3-1.7-.4h0Z"/>
  <path class="st175" d="M17.2,5.5c-.2,0-.3,0-.5,0,0-.4,0-.9,0-1.3.6-.3,1.2-.1,1.8-.2.2,0,.3.2.4.4-.2.8-.9.6-1.4.7-.2,0-.3.2-.4.3h0Z"/>
  <path class="st51" d="M18.8,4.4c-.7,0-1.4,0-2.1,0,.7-.8,1.7-.3,2.5-.4v.3c0,.2-.2.2-.4.1h0Z"/>
  <path class="st89" d="M13.4,3.9v.4c-.6.5-1.2.5-1.9.2,0,0-.1-.2-.2-.3,0-.1,0-.2,0-.3h2.1Z"/>
  <path class="st214" d="M16.3,6.8c0,.3,0,.5,0,.8-.2.1-.3,0-.5,0,0-.4.1-.7.2-1.1.1.1.2.2.3.4Z"/>
  <path class="st36" d="M12.1,2.6c-1.4-.2-2.8.5-4.1-.4.8,0,1.6,0,2.5,0,.5.3,1.3-.3,1.6.5h0Z"/>
  <path class="st78" d="M36.8,9.8v2.5c-.4-1.2-.4-1.9,0-2.5Z"/>
  <path class="st134" d="M15.5,23.5c-1.4,1.2-3.3.8-4.9,1.2h0c-.8-.7-.6-1.6-.7-2.4,0-.8,0-1.6,0-2.5.1-.9.2-1.9,1.6-1.5,1,.5,1.8,1.3,2.7,1.8.2.2.4.3.6.6.4.5.9.9,1.1,1.5l.4.4c.2.8-.6.5-.8.8h0Z"/>
  <path class="st140" d="M14.6,21.1c-.1,0-.2-.2-.4-.3-.6-1.5.9-1.7,1.5-2.5.9-.6,1.8-1.2,2.9-1.4.3,0,.7,0,1,.2.7.7.6,1.5.7,2.4-.1,1.1.3,2.3-.7,3.2-1.2.4-2.1-.7-3.2-.8-.7-.1-1.3-.3-1.8-.8h0Z"/>
  <path class="st83" d="M22.6,23.3c-.2,0-.3-.1-.4-.2-.7-.7-.6-1.5-.6-2.3,0-2.9,0-5.8,0-8.7.1-1.4-.2-2.9.3-4.3.4-.4.7-.9,1.3-.3,0,3.7,0,7.4,0,11.1v3.7c0,.5,0,1-.6,1.1h0Z"/>
  <path class="st153" d="M21.7,23.1c-.6,0-1.2.2-1.7-.4,0-.1,0-.2,0-.3,0-.8,0-1.5,0-2.3.1-1.8-.2-3.7-.2-5.5,0-.8,0-1.5.4-2.2,1.2-.3,1,.6,1.1,1.2.2.9,0,1.9.3,2.8.2,2,0,4,.1,6.1,0,.2,0,.5-.1.7h0Z"/>
  <path class="st14" d="M21.7,23.1c0-.1,0-.2,0-.4,0-3.5-.5-7.1-.1-10.7.2-.3.4-.3.7-.2,0,3.8,0,7.5,0,11.3h-.5,0Z"/>
  <path class="st99" d="M22.6,23.3c.8-1.5.2-3.2.4-4.7.1-.2.2-.2.3,0,0,1.7,0,3.3,0,5-.3,0-.5-.2-.8-.3h0Z"/>
  <path class="st129" d="M19.6,22.7v-3.3c.4-.1.5,0,.7.1,0,.4,0,.9,0,1.3,0,.6,0,1.3,0,1.9h-.2c-.2,0-.3,0-.5,0h0Z"/>
  <path class="st216" d="M14.6,21.1c.8-.1,1.3.3,1.8.8-.2.2-.3.3-.5.5-.5-.3-1.3-.4-1.3-1.3Z"/>
  <path class="st82" d="M15.5,23.5c.3-.2.5-.5.8-.8.2,0,.6,0,.7.1.2.3-.1.5-.3.5-.4,0-.8,0-1.2,0h0Z"/>
  <path class="st207" d="M14.7,25.3c0,.1,0,.3,0,.4h-2c0-.3,0-.5,0-.8.6.1,1.2.3,1.8.4h0Z"/>
  <path class="st100" d="M119.5,9c.5-.3.9-1,1.6-1,1.2,0,2.4,0,3.3,1,.8,1.5.1,2.7-.8,3.9-1.2.6-2.3,1.2-3.7,1-1.8-1.5-1.8-2.3-.4-4.9h0Z"/>
  <path class="st81" d="M4.6,4.7c.1,0,.3,0,.4,0,2-.4,4.1,0,6.1-.2.7.2,1.5-.4,2,.4-1.2,1.2-2.8.2-4.2.7-.2,0-.4.2-.5.4h0c-.1.1-.2.3-.3.5,0,1.3,0,2.6,0,3.9,0,.6-.4,1.1-.3,1.7,0,3.1,0,6.2,0,9.3,0,.3.4-.1.2,0-.5-3.1,0-6.3-.2-9.5.1-.5.3-.8.8-.3.5.7.4,1.6.4,2.4,0,2.8,0,5.6,0,8.3s.1,1.8-.7,2.5c-.4,0-.8,0-1.2,0-.3-1.2-.2-2.6-.4-3.8,0-2.7,0-5.4,0-8.2.3-1.9.3-3.7,0-5.6,0-.4,0-.8,0-1.2-.2-.2-.4-.3-.7-.4-.5-.2-1.4.2-1.4-.9h0Z"/>
  <path class="st50" d="M6.2,20.2c.2-2.8-.4-5.6.3-8.4.4.3.2.7.3,1,0,2.4,0,4.8,0,7.1-.1.3-.3.3-.6.2h0Z"/>
  <path class="st28" d="M6.7,12.7c0-.3,0-.6-.1-.8,0-1.5,0-3.1.1-4.6.8,1.8.2,3.6.3,5.4-.1.2-.2.2-.3,0Z"/>
  <path class="st80" d="M6.2,5.5c.2.2.3.3.4.5-.4,0-.8,0-1.2,0-1,.2-2,.2-2.9,0-.1,0-.3-.1-.4-.2.2-1.1,1.1-.6,1.7-.7.8.2,1.6,0,2.4.4h0Z"/>
  <path class="st231" d="M7,21c0,1.3,0,2.5,0,3.8-.1,0-.2,0-.3,0,0-.8,0-1.7-.2-2.5-.2-.4-.1-.8,0-1.2.2-.2.3-.2.5,0h0Z"/>
  <path class="st38" d="M2.5,6h2.9c0,.1,0,.3,0,.4-1,0-2,0-2.9,0,0-.1,0-.2,0-.3Z"/>
  <path class="st66" d="M6.7,21c0,.4,0,.8-.1,1.2-.6-.6-.3-1.4-.3-2.1h.3c.3.2.3.5.1.8h0Z"/>
  <path class="st112" d="M23.4,18.5h-.3c0-3.8,0-7.5,0-11.3-.2-.2-.3-.4-.3-.7,0-.4,0-.7.4-1,.2,0,.3,0,.5,0,0,.2,0,.3,0,.5,0,.1,0,.2,0,.4,0,4,0,8.1-.1,12.2h0Z"/>
  <path class="st13" d="M24.7,8.9c-.1.6.3.9.6,1.2-.4.2-.2,1.1-1,.8,0-1.5,0-3,.1-4.5.2,0,.5,0,.7,0-.7.7-.5,1.6-.4,2.5h0Z"/>
  <path class="st143" d="M83,8.4c1.3-.5,2.5-.6,3.8.1,1.5,1.7.9,3.1-.4,4.5-1.2.7-2.4,1.1-3.8.8-1.8-1.9-1.7-3.2.4-5.5h0Z"/>
  <path class="st12" d="M94.7,8.9c.5,0,1-.4,1.3-.8,1,0,2-.3,2.9.5.3.3.5.6.8.9.2,1.2.1,2.3-.8,3.2-1.5,1.4-3.1,1.8-5,.8-.8-1.7-.3-3.2.8-4.6h0Z"/>
  <path class="st67" d="M72.5,29.3c.6.9.5,1.8,0,2.7-.4-.8-.4-1.8,0-2.7Z"/>
  <path class="st98" d="M58.7,8.1c1,0,1.9-.2,2.8.1.5.7.9,1.3,1.3,1.9,0,1.5-.9,2.5-2.2,3.3-1.1.4-2.2.8-3.3.2-1.5-1.9-1-3.9,1.3-5.5h0Z"/>
  <path class="st213" d="M54.9,12.7c0-.9.2-1.6,1.1-2.4,0,.9-.2,1.7-.2,2.4-.3.2-.5.2-.8,0Z"/>
  <path class="st53" d="M57.4,13.9c.2.2.5.5.5.6-.3.5-.8.1-1.3.2-.5-1,.2-.8.8-.8h0Z"/>
  <path class="st48" d="M54.9,12.7h.8c0,.7,0,1.3-.8,1.6h0c0-.6,0-1.1,0-1.6Z"/>
  <path class="st117" d="M46.5,33.9c-1.4,1-2.9,1.3-4.6.5,0-.3,0-.6-.4-.8-.4-.7-.4-1.3,0-2,.1-.3.3-.5.4-.8,1.2-1.4,2.6-2.2,4.5-1.7,2,1.6,1.1,3.2,0,4.9Z"/>
  <path class="st228" d="M44.4,11c-.8,0-1.7,0-2.5,0-.1-.1-.2-.2-.4-.4,1-1,1.6-2.6,3.4-2.6,1.2,0,1.9.3,1.6,1.7-.5.8-1.3,1.1-2.1,1.3h0Z"/>
  <path class="st86" d="M47.8,8.1c.1.4.3.8.4,1.2-.3,0-.5,0-.8,0,0-.4-.1-.9.4-1.2Z"/>
  <path class="st74" d="M41.9,34.9c.3.2.8.4.5.7s-.9-.1-1.3-.3c.2-.3.5-.4.8-.4h0Z"/>
  <path class="st108" d="M41.5,31.6v2c-.7-.6-.5-1.3-.3-2.1,0,0,.1,0,.2,0,0,0,.1,0,.2,0h0Z"/>
  <path class="st180" d="M81.3,14.4c-.7,0-.8-.6-1.3-.8-.3-.2-.4-.5-.4-.8h1.2c0,.6.3,1,.8,1.3,0,.4,0,.6-.4.4h0Z"/>
  <path class="st182" d="M81.3,14.4l.4-.4c.3,0,.5,0,.8,0,.3.2.6.4,1.2.8h-2.4v-.4h0Z"/>
  <path class="st199" d="M105.4,12.3v-.5c.3-.3.6-.8,1.2-.4,1.3.3,0,1.2.3,1.7-.7,0-1-.6-1.5-.8h0Z"/>
  <path class="st142" d="M67.5,29.4c0,.3.5.7-.2.8-.2,0-.5-.3-.5-.5,0-.7.5-.1.8-.2h0s0,0,0,0Z"/>
  <path class="st192" d="M3.7,5.5c-.5.1-1.2-.2-1.7.3-.6-.5-.6-1,0-1.5.3.4.8.3,1.2.3.2.2.6.3.4.8Z"/>
  <path class="st177" d="M18.8,4.4c.1,0,.3,0,.4-.1,2,0,3.9,0,5.9.1v.3c-.6.7-1.3.4-2,.5-.5.2-1,0-1.5,0-.9-.2-2,.3-2.8-.5v-.3h0Z"/>
  <path class="st124" d="M23.5,6c0-.1,0-.3,0-.4,1-.8,2.1-.3,3.2-.5.5,0,1,0,1.4.4-1.4,1-3,.1-4.5.5h0Z"/>
  <path class="st198" d="M28,5.5c-.4,0-.8,0-1.2,0-.2-.5.2-.6.4-.8h.8c0,.3,0,.5,0,.8h0Z"/>
  <path class="st106" d="M8.3,24.9c0-4.5,0-8.9,0-13.4-.3-.4-.3-1-.5-1.4,0-.5,0-1,0-1.5.3-.7-.1-1.5.6-2.1.4,0,.9,0,1.3,0,.3.9.3,1.8.2,2.8-.5.7-.3,1.3,0,1.9.1.4.2.8.2,1.2,0,.2,0,.4,0,.6,0,1.5,0,3-.2,4.6,0,.7-.1,1.3,0,2,0,.2,0,.4,0,.6v1.6c0,1.2.4,2.5-.8,3.5-.4.1-.7.2-.9-.3h0Z"/>
  <path class="st190" d="M9.2,25.1c.6-1.2.4-2.5.5-3.7.8,0,.5.6.6,1,0,.8.2,1.6-.2,2.4-.2.4-.5.4-.9.3h0Z"/>
  <path class="st58" d="M10.1,24.8c0-.8,0-1.7,0-2.5.1-.2.2-.2.3,0,0,.8,0,1.6,0,2.4-.2,0-.3,0-.5,0h0Z"/>
  <path class="st55" d="M11.3,4.7h-6.3v-.3c2.1,0,4.2,0,6.3-.2h0c.2.2.2.3.2.4,0,0,0,.1-.1.1h0Z"/>
  <path class="st165" d="M3.7,5.5c-.1-.3-.3-.5-.4-.8h1.2c.4.7,1.3.1,1.7.8h-2.5Z"/>
  <path class="st152" d="M27.2,4.7c-.1.3-.3.5-.4.8-1.1,0-2.2,0-3.4,0h0c-.3-.2-.7-.4-.4-.9.7,0,1.4,0,2.1,0,.7,0,1.4,0,2.1,0h0Z"/>
  <path class="st133" d="M11.3,7.2c.9.4,1.5-1.3,2.5-.4.3.4.4.8.1,1.2-.6.5-1.2.5-1.9.3-.3-.1-.6-.3-.8-.6-.1-.2,0-.4,0-.6h0Z"/>
  <path class="st146" d="M8.4,6c0-.1,0-.3,0-.4,1.4-.5,2.9-.1,4.3-.2.2,0,.5,0,.7.2-1.6.9-3.3.2-5,.5Z"/>
  <path class="st75" d="M9.5,9.3c.1-1-.6-2,.1-2.9.3.2.5.5.8.7,0,.8.2,1.7-.2,2.5-.1.2-.3.3-.5.3-.2-.1-.3-.3-.2-.5h0Z"/>
  <path class="st19" d="M10,9.8c.3-.8-.4-1.9.5-2.6.1,0,.2.1.4.1.1.2.2.3.2.6,0,.9,0,1.9-.5,2.7-.2.2-.4.2-.6,0-.2-.3-.2-.6,0-.9h0Z"/>
  <path class="st43" d="M13.3,5.5h-.4c-.2-.1-.2-.2-.2-.3,0,0,0-.1.1-.1-.4-.6-1.1-.3-1.7-.4,0-.1,0-.2,0-.3.7,0,1.4,0,2.1,0,0,.4,0,.8,0,1.2h0Z"/>
  <path class="st49" d="M13.8,8.1v-1.2h.8c0,.3,0,.5,0,.8,0,.7-.4.7-.9.4h0Z"/>
  <path class="st125" d="M8.4,6.4c-.4.7.3,1.5-.4,2.1-.4-.8-.3-1.7,0-2.5.1,0,.3,0,.4,0,0,.1,0,.3,0,.4h0Z"/>
  <path class="st225" d="M10.9,7.6c0-.1,0-.2,0-.3.1-.3.3-.3.4,0,0,.1,0,.3,0,.4h-.3,0Z"/>
  <path class="st73" d="M20,6.4c.3-.1.6-.2.9-.4.3,0,.5,0,.8,0,.3.2.4.5.5.8,0,.3,0,.6-.2.9,0,.6,0,1.2,0,1.8-.1.3-.4.5-.7.5-.2,0-.4,0-.6,0-.3,0-.5-.2-.8-.4-.2-.1-.3-.3-.3-.5,0-.2,0-.4,0-.6.2-.7,0-1.5.5-2.2h0Z"/>
  <path class="st172" d="M21.9,6.8c0-.3-.1-.5-.2-.8,0-.1,0-.2,0-.3-.1-.2-.2-.3-.2-.5,0-.2.1-.3.2-.5h1.3c.1.3.3.5.4.8-.3.2-.4.5-.5.9-.3.3-.6.6-1.1.4h0Z"/>
  <path class="st97" d="M21.8,5.1c0,.2,0,.4,0,.5-1.5,0-3,0-4.6-.1v-.4c1.5-.3,3.1-.3,4.6,0h0Z"/>
  <path class="st203" d="M13.8,8.1c.4,0,.7,0,.9-.4.4,0,.8,0,1.2,0,.2,0,.3,0,.5,0,.4.1.8.3,1.3.4.5-.1.9-.3,1.3-.4,0,0,.2,0,.2,0,.5.2.6.7.5,1.2h0c0,2.5.4,4.9-.3,7.3,0,.3-.3.6-.5.8-1.2.2-2.1,1.3-3.4,1.4-1.3-.8-2.6-.3-3.9,0-.5,0-.8-.3-1-.8-.2-.7-.2-1.4-.2-2.1v-2.9c0-1.3.5-2.4.4-3.7,0-.6.5-.8,1-.9h2.1Z"/>
  <path class="st113" d="M19.7,8.9c-.2-.4-.4-.8-.5-1.2.2-.5-.2-1.4.9-1.2,0,.8.4,1.7-.3,2.5Z"/>
  <path class="st6" d="M21.8,5.1c-1.5,0-3.1,0-4.6,0,.4-.6,1.1-.3,1.7-.4,1,0,2,0,3,0v.4h0Z"/>
  <path class="st139" d="M11.6,18.1c1.3-1.2,2.5-1.3,3.8,0,.1.2.5.3.4.6-.4.9-1.7,1-1.7,2.1-1.1-.2-1.7-1.3-2.6-1.8-.1-.3-.2-.6,0-.9h0Z"/>
  <path class="st149" d="M11.6,18.1c0,.3,0,.6,0,.9-1.2-.8-1.1.1-1.2.8-.2.2-.5.2-.7,0v-.5c0-.6,0-1.3.1-1.9.2-.9-.4-2,.5-2.8.4.2.3.5.4.8,0,.8-.2,1.5.2,2.3.2.3.5.3.8.3h0Z"/>
  <path class="st63" d="M9.7,19.8h.7c0,.8,0,1.7,0,2.5h-.3c0-.3,0-.8-.5-.9,0-.5,0-1.1,0-1.6h0Z"/>
  <path class="st91" d="M15.9,18.7c-.1-.2-.3-.4-.4-.6,1.1-.2,1.8-1.3,3-1.2,0,0,0,.2,0,.3-.8.6-1.5,1.2-2.5,1.5h0Z"/>
  <path class="st188" d="M20,19.4h-.3c-.2-.7.3-1.6-.5-2.2.2-.8.5-.6,1-.2,0,.8.3,1.7-.2,2.4h0Z"/>
  <path class="st135" d="M20,16.9c-.3,0-.6,0-.8.3-.3,0-.6,0-.9,0,0,0,0-.2,0-.3.1-.1.2-.3.4-.4.4-.3.5-.9,1-1,.2,0,.4.1.4.3,0,.4.2.8-.3,1.1Z"/>
  <path class="st191" d="M21.7,9.8c0-.7,0-1.4.1-2.1h.2c0-.1.2,0,.2,0v4.2c-.1,0-.2,0-.3,0-.7-.7-.6-1.3,0-2.1h0Z"/>
  <path class="st119" d="M22.2,7.6h-.3v-.9c.4-.1.8-.2,1.1-.4v.8c-.3.1-.5.3-.8.4h0Z"/>
  <path class="st115" d="M21.7,9.8c0,.7,0,1.4,0,2.1,0,3.6-.1,7.3-.2,10.9-.7-2.1-.1-4.2-.3-6.3-.5-1.8.2-3.7-.8-5.4-.2-.4,0-.9.4-1.3.3,0,.5,0,.8,0h0Z"/>
  <path class="st147" d="M20,16.9v-1.3c-.5-.7-.3-1.4-.3-2.2,0-.3,0-.6,0-1,0-.2,0-.4.2-.6.2-.1.3-.2.6-.2.1.1.2.2.1.3,0,.1,0,.2,0,.2,0,2.8,0,5.6,0,8.4,0,.2-.2.2-.3,0,0-.4,0-.8-.1-1.2,0-.8,0-1.7,0-2.5h0Z"/>
  <path class="st95" d="M20.5,12.3c0-.1,0-.3,0-.4-.5-.7-.6-1.4,0-2.1h.4c.2,2.2.6,4.4.4,6.7-1.1-1.2.2-3-.8-4.2h0Z"/>
  <path class="st4" d="M20.2,20.6h.3c0,.7.2,1.5-.3,2.1,0-.7,0-1.4,0-2.1h0Z"/>
  <path class="st35" d="M7.9,11.8v10h-.4v-10c.1-.2.3-.2.4,0h0Z"/>
  <path class="st163" d="M6.7,21c0-.3,0-.5-.1-.8,0-2.5,0-5,.1-7.5h.3c0,2.8,0,5.6,0,8.3,0,0-.2,0-.3,0h0Z"/>
  <path class="st79" d="M12.9,5.1c0,.1,0,.2,0,.4-1.5,0-3.1,0-4.6.1,1.5-1,3.1-.2,4.6-.5Z"/>
  <path class="st193" d="M7.9,6c0,.8,0,1.7,0,2.5,0,.5,0,1.1,0,1.6-.1.2-.3.2-.4,0,.2-1.4-.4-2.8.4-4.2Z"/>
  <path class="st102" d="M7.5,10.2h.4c.5.3.4.8.3,1.3-.1.1-.2.3-.3.4-.1,0-.3,0-.4,0v-1.7h0Z"/>
  <path class="st218" d="M10.4,14.8c-.7.9-.1,2.1-.4,3-.2,0-.3,0-.3-.2,0-1.6,0-3.3,0-4.9.9,0,.6.9.9,1.3,0,.3,0,.6-.2.8h0Z"/>
  <path class="st126" d="M10.3,13.9c-.2-.4-.4-.8-.7-1.2,0-.1-.1-.2,0-.4.5-.5-.2-1.3.5-1.7h.3c.5.6.2,1.4.3,2,0,.4.2,1-.3,1.3h0Z"/>
  <path class="st210" d="M9.5,9.3c0,.1,0,.2,0,.4.3.4.3.9,0,1.3-.7-.5-1.6-1.1,0-1.7h0Z"/>
  <path class="st229" d="M9.6,17.6c.1,0,.2.2.3.2-.2.5.2,1.1-.4,1.5-.4-.6-.3-1.2,0-1.8h0Z"/>
  <path class="st122" d="M9.6,11c0-.4,0-.9,0-1.3.1,0,.2,0,.3,0,0,.3,0,.5.1.8-.2.5.2,1.3-.5,1.7,0-.4,0-.9,0-1.3h0Z"/>
  <path class="st197" d="M10.5,12.7c0-.7,0-1.4-.1-2.1.2-1-.2-2.1.6-3h.3c.2.1.3.3.5.4-1.5,1.3-.6,3.1-.8,4.6-.1.2-.2.2-.3,0h0Z"/>
  <path class="st0" d="M20,12.2v.9c-.4.8,0,1.7-.3,2.5,0,.5-.3.9-.9.9.5-1.9.4-3.9.4-5.9,0-.6-.2-1.2.4-1.7.1.1.2.3.3.4.2.1.2.3.2.5,0,.8-.3,1.6-.2,2.4h0Z"/>
  <path class="st221" d="M20,9.8v-.5c.2.1.3.3.5.4,0,.7,0,1.4,0,2.1h-.3c-.5-.7-.3-1.3-.1-2h0Z"/>
  <path class="st138" d="M10.5,12.7h.3c0,1,0,2,0,3h-.3c0-.3-.1-.6-.2-.8,0-.3,0-.6,0-.9,0-.4,0-.8.2-1.2h0Z"/>
  <path class="st224" d="M10.5,15.6h.3v2.2c-.6-.7-.2-1.4-.3-2.2Z"/>
  <path class="st10" d="M19.7,15.6c0-.8-.4-1.7.3-2.5v2.5h-.3Z"/>
  <path class="st65" d="M20,9.8c0,.7,0,1.4.1,2,0,.1,0,.3-.1.4-.6-.8-.5-1.6,0-2.5h0Z"/>
</svg>